<svg width="44" height="44" viewBox="0 0 44 44" fill="none" xmlns="http://www.w3.org/2000/svg">
<mask id="path-1-inside-1_2873_88428" fill="white">
<path d="M0 0H44V44H0V0Z"/>
</mask>
<path d="M0 0H44V44H0V0Z" fill="#18181B" fill-opacity="0.02"/>
<path d="M44 0H43V44H44H45V0H44Z" fill="#18181B" fill-opacity="0.12" mask="url(#path-1-inside-1_2873_88428)"/>
<g clip-path="url(#clip0_2873_88428)">
<path d="M29.9606 15.3332C29.8849 15.3254 29.8085 15.3254 29.7328 15.3332H14.1773C14.0776 15.3348 13.9785 15.3497 13.8828 15.3777L21.9106 23.3721L29.9606 15.3332Z" fill="black"/>
<path d="M30.7814 16.1055L22.6925 24.161C22.4844 24.368 22.2027 24.4841 21.9092 24.4841C21.6157 24.4841 21.334 24.368 21.1259 24.161L13.1092 16.1666C13.0846 16.2572 13.0715 16.3505 13.0703 16.4444V27.5555C13.0703 27.8502 13.1874 28.1328 13.3957 28.3411C13.6041 28.5495 13.8867 28.6666 14.1814 28.6666H29.737C30.0317 28.6666 30.3143 28.5495 30.5227 28.3411C30.731 28.1328 30.8481 27.8502 30.8481 27.5555V16.4444C30.8437 16.3286 30.8212 16.2143 30.7814 16.1055ZM14.9425 27.5555H14.1703V26.761L18.2092 22.7555L18.9925 23.5388L14.9425 27.5555ZM29.7259 27.5555H28.9481L24.8981 23.5388L25.6814 22.7555L29.7203 26.761L29.7259 27.5555Z" fill="black"/>
</g>
<defs>
<clipPath id="clip0_2873_88428">
<rect width="20" height="20" fill="white" transform="translate(12 12)"/>
</clipPath>
</defs>
</svg>
