<svg width="308" height="347" viewBox="0 0 308 347" fill="none" xmlns="http://www.w3.org/2000/svg">
<rect x="2.66061" y="2.65963" width="302.319" height="341.618" rx="23.9373" fill="white"/>
<rect x="2.66061" y="2.65963" width="302.319" height="341.618" rx="23.9373" stroke="#EDD9FF" stroke-width="5.3194"/>
<g filter="url(#filter0_d_2792_155915)">
<g clip-path="url(#clip0_2792_155915)">
<rect x="21.3203" y="29.3193" width="265" height="148.299" rx="9.67164" fill="white"/>
<path d="M34.6034 46.2491V45.1809H40.2154V46.2491H38.0414V52.2148H36.7775V46.2491H34.6034ZM42.7785 52.3179C42.2633 52.3179 41.8168 52.2045 41.439 51.9779C41.0612 51.7512 40.7681 51.4341 40.5598 51.0265C40.3537 50.6189 40.2506 50.1427 40.2506 49.5977C40.2506 49.0528 40.3537 48.5754 40.5598 48.1655C40.7681 47.7557 41.0612 47.4374 41.439 47.2107C41.8168 46.9841 42.2633 46.8707 42.7785 46.8707C43.2936 46.8707 43.7401 46.9841 44.1179 47.2107C44.4957 47.4374 44.7877 47.7557 44.9937 48.1655C45.2021 48.5754 45.3063 49.0528 45.3063 49.5977C45.3063 50.1427 45.2021 50.6189 44.9937 51.0265C44.7877 51.4341 44.4957 51.7512 44.1179 51.9779C43.7401 52.2045 43.2936 52.3179 42.7785 52.3179ZM42.7853 51.3219C43.0647 51.3219 43.2982 51.2452 43.486 51.0918C43.6737 50.9361 43.8134 50.7277 43.905 50.4667C43.9989 50.2056 44.0458 49.9149 44.0458 49.5943C44.0458 49.2714 43.9989 48.9795 43.905 48.7185C43.8134 48.4552 43.6737 48.2457 43.486 48.09C43.2982 47.9343 43.0647 47.8564 42.7853 47.8564C42.4991 47.8564 42.261 47.9343 42.0709 48.09C41.8832 48.2457 41.7424 48.4552 41.6485 48.7185C41.5569 48.9795 41.5111 49.2714 41.5111 49.5943C41.5111 49.9149 41.5569 50.2056 41.6485 50.4667C41.7424 50.7277 41.8832 50.9361 42.0709 51.0918C42.261 51.2452 42.4991 51.3219 42.7853 51.3219ZM48.9958 46.9394V47.9011H45.9631V46.9394H48.9958ZM46.7119 45.6755H47.9552V50.6281C47.9552 50.7952 47.9803 50.9235 48.0307 51.0128C48.0834 51.0998 48.1521 51.1593 48.2368 51.1914C48.3215 51.2234 48.4154 51.2394 48.5184 51.2394C48.5963 51.2394 48.6673 51.2337 48.7314 51.2223C48.7978 51.2108 48.8481 51.2005 48.8825 51.1914L49.092 52.1633C49.0256 52.1862 48.9306 52.2114 48.8069 52.2389C48.6856 52.2664 48.5367 52.2824 48.3604 52.287C48.049 52.2961 47.7685 52.2492 47.519 52.1462C47.2694 52.0408 47.0713 51.8783 46.9248 51.6584C46.7805 51.4386 46.7096 51.1639 46.7119 50.8342V45.6755ZM51.5537 52.3213C51.2194 52.3213 50.9183 52.2618 50.6504 52.1427C50.3848 52.0214 50.1742 51.8428 50.0185 51.6069C49.865 51.3711 49.7883 51.0803 49.7883 50.7346C49.7883 50.4369 49.8433 50.1908 49.9532 49.9961C50.0631 49.8015 50.2131 49.6458 50.4031 49.529C50.5932 49.4123 50.8073 49.3241 51.0454 49.2646C51.2858 49.2028 51.5342 49.1581 51.7907 49.1306C52.0998 49.0986 52.3505 49.07 52.5428 49.0448C52.7352 49.0173 52.8748 48.9761 52.9618 48.9211C53.0511 48.8639 53.0958 48.7757 53.0958 48.6567V48.6361C53.0958 48.3773 53.0191 48.177 52.8657 48.035C52.7123 47.8931 52.4913 47.8221 52.2028 47.8221C51.8983 47.8221 51.6567 47.8885 51.4781 48.0213C51.3018 48.1541 51.1828 48.3109 51.1209 48.4918L49.9601 48.327C50.0517 48.0064 50.2028 47.7385 50.4134 47.5233C50.6241 47.3058 50.8817 47.1432 51.1862 47.0356C51.4907 46.9257 51.8273 46.8707 52.1959 46.8707C52.4501 46.8707 52.7031 46.9005 52.955 46.96C53.2068 47.0195 53.437 47.118 53.6453 47.2554C53.8537 47.3905 54.0208 47.5748 54.1468 47.8083C54.275 48.0419 54.3391 48.3338 54.3391 48.6841V52.2148H53.1439V51.4902H53.1027C53.0271 51.6367 52.9206 51.7741 52.7833 51.9023C52.6482 52.0282 52.4776 52.1301 52.2715 52.208C52.0677 52.2835 51.8285 52.3213 51.5537 52.3213ZM51.8765 51.4077C52.1261 51.4077 52.3425 51.3585 52.5257 51.26C52.7088 51.1593 52.8497 51.0265 52.9481 50.8616C53.0489 50.6968 53.0992 50.517 53.0992 50.3224V49.7008C53.0603 49.7328 52.9939 49.7626 52.9 49.7901C52.8084 49.8175 52.7054 49.8416 52.5909 49.8622C52.4764 49.8828 52.3631 49.9011 52.2509 49.9171C52.1387 49.9332 52.0414 49.9469 51.959 49.9584C51.7735 49.9835 51.6075 50.0248 51.461 50.082C51.3144 50.1392 51.1988 50.2194 51.1141 50.3224C51.0294 50.4232 50.987 50.5537 50.987 50.714C50.987 50.9429 51.0706 51.1158 51.2377 51.2326C51.4049 51.3493 51.6178 51.4077 51.8765 51.4077ZM56.8326 45.1809V52.2148H55.5893V45.1809H56.8326ZM60.565 52.2148V45.1809H61.8083V47.8118H61.8599C61.924 47.6836 62.0144 47.5473 62.1312 47.4031C62.248 47.2565 62.406 47.1317 62.6052 47.0287C62.8044 46.9234 63.0585 46.8707 63.3676 46.8707C63.7752 46.8707 64.1427 46.9749 64.4701 47.1833C64.7998 47.3893 65.0608 47.695 65.2532 48.1003C65.4478 48.5033 65.5451 48.9978 65.5451 49.584C65.5451 50.1633 65.4501 50.6556 65.26 51.0608C65.07 51.4661 64.8113 51.7752 64.4838 51.9882C64.1564 52.2011 63.7855 52.3076 63.3711 52.3076C63.0688 52.3076 62.8181 52.2572 62.6189 52.1565C62.4197 52.0557 62.2594 51.9344 62.1381 51.7924C62.019 51.6481 61.9263 51.5119 61.8599 51.3837H61.7877V52.2148H60.565ZM61.7843 49.5771C61.7843 49.9183 61.8324 50.2171 61.9286 50.4735C62.027 50.73 62.1678 50.9303 62.351 51.0746C62.5365 51.2165 62.7609 51.2875 63.0242 51.2875C63.2989 51.2875 63.529 51.2143 63.7145 51.0677C63.9 50.9189 64.0396 50.7162 64.1335 50.4598C64.2297 50.2011 64.2778 49.9068 64.2778 49.5771C64.2778 49.2497 64.2308 48.9589 64.137 48.7048C64.0431 48.4506 63.9034 48.2514 63.7179 48.1071C63.5325 47.9629 63.3012 47.8908 63.0242 47.8908C62.7586 47.8908 62.533 47.9606 62.3476 48.1003C62.1621 48.2399 62.0213 48.4357 61.9251 48.6876C61.8312 48.9394 61.7843 49.236 61.7843 49.5771ZM68.1202 52.3213C67.7859 52.3213 67.4848 52.2618 67.2169 52.1427C66.9513 52.0214 66.7406 51.8428 66.5849 51.6069C66.4315 51.3711 66.3548 51.0803 66.3548 50.7346C66.3548 50.4369 66.4098 50.1908 66.5197 49.9961C66.6296 49.8015 66.7795 49.6458 66.9696 49.529C67.1596 49.4123 67.3737 49.3241 67.6118 49.2646C67.8523 49.2028 68.1007 49.1581 68.3571 49.1306C68.6662 49.0986 68.917 49.07 69.1093 49.0448C69.3016 49.0173 69.4413 48.9761 69.5283 48.9211C69.6176 48.8639 69.6623 48.7757 69.6623 48.6567V48.6361C69.6623 48.3773 69.5856 48.177 69.4321 48.035C69.2787 47.8931 69.0578 47.8221 68.7693 47.8221C68.4648 47.8221 68.2232 47.8885 68.0446 48.0213C67.8683 48.1541 67.7492 48.3109 67.6874 48.4918L66.5265 48.327C66.6181 48.0064 66.7692 47.7385 66.9799 47.5233C67.1905 47.3058 67.4481 47.1432 67.7527 47.0356C68.0572 46.9257 68.3938 46.8707 68.7624 46.8707C69.0166 46.8707 69.2696 46.9005 69.5214 46.96C69.7733 47.0195 70.0034 47.118 70.2118 47.2554C70.4201 47.3905 70.5873 47.5748 70.7132 47.8083C70.8414 48.0419 70.9056 48.3338 70.9056 48.6841V52.2148H69.7103V51.4902H69.6691C69.5936 51.6367 69.4871 51.7741 69.3497 51.9023C69.2146 52.0282 69.044 52.1301 68.838 52.208C68.6342 52.2835 68.3949 52.3213 68.1202 52.3213ZM68.443 51.4077C68.6926 51.4077 68.909 51.3585 69.0921 51.26C69.2753 51.1593 69.4161 51.0265 69.5146 50.8616C69.6153 50.6968 69.6657 50.517 69.6657 50.3224V49.7008C69.6268 49.7328 69.5604 49.7626 69.4665 49.7901C69.3749 49.8175 69.2719 49.8416 69.1574 49.8622C69.0429 49.8828 68.9296 49.9011 68.8174 49.9171C68.7052 49.9332 68.6079 49.9469 68.5254 49.9584C68.34 49.9835 68.174 50.0248 68.0274 50.082C67.8809 50.1392 67.7653 50.2194 67.6805 50.3224C67.5958 50.4232 67.5535 50.5537 67.5535 50.714C67.5535 50.9429 67.637 51.1158 67.8042 51.2326C67.9713 51.3493 68.1843 51.4077 68.443 51.4077ZM73.399 45.1809V52.2148H72.1557V45.1809H73.399ZM76.1956 52.3213C75.8613 52.3213 75.5602 52.2618 75.2923 52.1427C75.0267 52.0214 74.8161 51.8428 74.6604 51.6069C74.507 51.3711 74.4302 51.0803 74.4302 50.7346C74.4302 50.4369 74.4852 50.1908 74.5951 49.9961C74.705 49.8015 74.855 49.6458 75.045 49.529C75.2351 49.4123 75.4492 49.3241 75.6873 49.2646C75.9277 49.2028 76.1761 49.1581 76.4326 49.1306C76.7417 49.0986 76.9924 49.07 77.1847 49.0448C77.3771 49.0173 77.5167 48.9761 77.6038 48.9211C77.6931 48.8639 77.7377 48.7757 77.7377 48.6567V48.6361C77.7377 48.3773 77.661 48.177 77.5076 48.035C77.3542 47.8931 77.1332 47.8221 76.8447 47.8221C76.5402 47.8221 76.2986 47.8885 76.12 48.0213C75.9437 48.1541 75.8247 48.3109 75.7628 48.4918L74.602 48.327C74.6936 48.0064 74.8447 47.7385 75.0553 47.5233C75.266 47.3058 75.5236 47.1432 75.8281 47.0356C76.1326 46.9257 76.4692 46.8707 76.8379 46.8707C77.092 46.8707 77.345 46.9005 77.5969 46.96C77.8488 47.0195 78.0789 47.118 78.2872 47.2554C78.4956 47.3905 78.6627 47.5748 78.7887 47.8083C78.9169 48.0419 78.981 48.3338 78.981 48.6841V52.2148H77.7858V51.4902H77.7446C77.669 51.6367 77.5625 51.7741 77.4252 51.9023C77.2901 52.0282 77.1195 52.1301 76.9134 52.208C76.7096 52.2835 76.4704 52.3213 76.1956 52.3213ZM76.5184 51.4077C76.768 51.4077 76.9844 51.3585 77.1676 51.26C77.3507 51.1593 77.4916 51.0265 77.59 50.8616C77.6908 50.6968 77.7411 50.517 77.7411 50.3224V49.7008C77.7022 49.7328 77.6358 49.7626 77.5419 49.7901C77.4503 49.8175 77.3473 49.8416 77.2328 49.8622C77.1183 49.8828 77.005 49.9011 76.8928 49.9171C76.7806 49.9332 76.6833 49.9469 76.6009 49.9584C76.4154 49.9835 76.2494 50.0248 76.1029 50.082C75.9563 50.1392 75.8407 50.2194 75.756 50.3224C75.6713 50.4232 75.6289 50.5537 75.6289 50.714C75.6289 50.9429 75.7125 51.1158 75.8796 51.2326C76.0468 51.3493 76.2597 51.4077 76.5184 51.4077ZM81.4745 49.1238V52.2148H80.2312V46.9394H81.4195V47.8358H81.4813C81.6027 47.5404 81.7962 47.3058 82.0618 47.1317C82.3297 46.9577 82.6605 46.8707 83.0544 46.8707C83.4184 46.8707 83.7355 46.9486 84.0057 47.1043C84.2782 47.26 84.4888 47.4855 84.6377 47.7809C84.7888 48.0762 84.8632 48.4346 84.8609 48.8559V52.2148H83.6176V49.0482C83.6176 48.6956 83.526 48.4197 83.3429 48.2205C83.162 48.0213 82.9113 47.9217 82.5907 47.9217C82.3732 47.9217 82.1797 47.9698 82.0103 48.0659C81.8431 48.1598 81.7115 48.296 81.6153 48.4746C81.5214 48.6532 81.4745 48.8696 81.4745 49.1238ZM88.426 52.3179C87.8993 52.3179 87.4471 52.2023 87.0693 51.971C86.6938 51.7397 86.4042 51.4203 86.2004 51.0128C85.9989 50.6029 85.8981 50.1312 85.8981 49.5977C85.8981 49.0619 86.0012 48.5891 86.2073 48.1793C86.4133 47.7671 86.7041 47.4466 87.0796 47.2176C87.4574 46.9863 87.9039 46.8707 88.4191 46.8707C88.8473 46.8707 89.2262 46.9497 89.5559 47.1077C89.8879 47.2634 90.1524 47.4843 90.3493 47.7706C90.5462 48.0545 90.6584 48.3865 90.6859 48.7666H89.4975C89.4495 48.5124 89.335 48.3006 89.1541 48.1312C88.9755 47.9595 88.7362 47.8736 88.4363 47.8736C88.1821 47.8736 87.9589 47.9423 87.7665 48.0797C87.5742 48.2148 87.4242 48.4094 87.3166 48.6635C87.2113 48.9177 87.1586 49.2222 87.1586 49.5771C87.1586 49.9366 87.2113 50.2457 87.3166 50.5044C87.4219 50.7609 87.5696 50.9589 87.7597 51.0986C87.952 51.236 88.1775 51.3047 88.4363 51.3047C88.6194 51.3047 88.7832 51.2703 88.9274 51.2017C89.0739 51.1307 89.1964 51.0288 89.2949 50.896C89.3934 50.7632 89.4609 50.6018 89.4975 50.4117H90.6859C90.6561 50.7849 90.5462 51.1158 90.3562 51.4043C90.1661 51.6905 89.9074 51.9149 89.58 52.0775C89.2525 52.2377 88.8679 52.3179 88.426 52.3179ZM94.0423 52.3179C93.5134 52.3179 93.0566 52.208 92.6719 51.9882C92.2895 51.7661 91.9953 51.4524 91.7892 51.0471C91.5832 50.6395 91.4801 50.1598 91.4801 49.608C91.4801 49.0654 91.5832 48.5891 91.7892 48.1793C91.9976 47.7671 92.2884 47.4466 92.6616 47.2176C93.0348 46.9863 93.4733 46.8707 93.977 46.8707C94.3022 46.8707 94.609 46.9234 94.8975 47.0287C95.1883 47.1317 95.4447 47.292 95.6668 47.5095C95.8912 47.7271 96.0675 48.0041 96.1957 48.3407C96.324 48.675 96.3881 49.0734 96.3881 49.5359V49.9171H92.064V49.0791H95.1963C95.194 48.841 95.1425 48.6292 95.0417 48.4437C94.941 48.256 94.8002 48.1083 94.6193 48.0007C94.4407 47.8931 94.2323 47.8393 93.9942 47.8393C93.74 47.8393 93.5168 47.9011 93.3245 48.0247C93.1321 48.1461 92.9822 48.3063 92.8745 48.5055C92.7692 48.7025 92.7154 48.9188 92.7131 49.1547V49.8862C92.7131 50.193 92.7692 50.4564 92.8814 50.6762C92.9936 50.8937 93.1504 51.0608 93.3519 51.1776C93.5534 51.2921 93.7893 51.3493 94.0595 51.3493C94.2403 51.3493 94.4041 51.3242 94.5506 51.2738C94.6971 51.2211 94.8242 51.1444 94.9318 51.0437C95.0394 50.9429 95.1207 50.8181 95.1757 50.6693L96.3365 50.7998C96.2633 51.1066 96.1236 51.3745 95.9175 51.6035C95.7138 51.8302 95.4527 52.0065 95.1345 52.1324C94.8162 52.2561 94.4521 52.3179 94.0423 52.3179Z" fill="#71717A"/>
<path d="M42.0528 93.1137V88.7292H44.6641V93.1137H42.0528ZM42.0528 67.7418V63.3895H44.6641V67.7418H42.0528ZM43.6325 89.8576C41.2683 89.8576 39.334 89.245 37.8295 88.02C36.3465 86.7949 35.4331 85.1615 35.0892 83.1197L38.7322 82.217C38.9686 83.6355 39.5274 84.7101 40.4086 85.4409C41.3113 86.1716 42.4182 86.537 43.7292 86.537C44.4599 86.537 45.1155 86.408 45.6958 86.1501C46.2761 85.8707 46.7274 85.4838 47.0498 84.9895C47.3937 84.4952 47.5656 83.9364 47.5656 83.3131C47.5656 82.6468 47.3829 82.0988 47.0176 81.6689C46.6522 81.2176 46.1256 80.82 45.4379 80.4761C44.7501 80.1107 43.9119 79.7346 42.9232 79.3477C41.5692 78.8319 40.4193 78.2731 39.4737 77.6713C38.528 77.0695 37.808 76.3603 37.3137 75.5436C36.8193 74.7053 36.5722 73.7167 36.5722 72.5776C36.5722 71.3955 36.8623 70.3531 37.4426 69.4504C38.0229 68.5262 38.8396 67.8062 39.8928 67.2904C40.9459 66.7746 42.1602 66.5167 43.5358 66.5167C45.0187 66.5167 46.3298 66.8498 47.4689 67.5161C48.608 68.1824 49.5214 69.1925 50.2092 70.5465L47.2432 72.3519C46.7919 71.5352 46.2438 70.9119 45.599 70.4821C44.9543 70.0307 44.2235 69.805 43.4068 69.805C42.8265 69.805 42.2999 69.9233 41.8271 70.1597C41.3543 70.3746 40.9782 70.6862 40.6987 71.0946C40.4408 71.503 40.3119 71.9758 40.3119 72.5131C40.3119 73.0719 40.4731 73.5662 40.7955 73.9961C41.1179 74.4044 41.6122 74.7806 42.2785 75.1244C42.9662 75.4683 43.8367 75.8444 44.8898 76.2528C46.2438 76.7686 47.3937 77.3274 48.3393 77.9292C49.285 78.531 50.005 79.251 50.4993 80.0892C51.0152 80.9059 51.2731 81.9053 51.2731 83.0874C51.2731 84.3985 50.9507 85.5591 50.3059 86.5692C49.6611 87.5794 48.7585 88.3853 47.5979 88.9871C46.4587 89.5674 45.137 89.8576 43.6325 89.8576ZM61.1888 89.7286C59.8133 89.7286 58.5452 89.4385 57.3846 88.8582C56.2455 88.2564 55.2998 87.4504 54.5476 86.4403C53.8168 85.4301 53.3547 84.291 53.1613 83.023L56.6753 82.4104C56.7613 83.0552 56.987 83.6892 57.3524 84.3125C57.7177 84.9143 58.2228 85.3979 58.8676 85.7633C59.5124 86.1286 60.2753 86.3113 61.1565 86.3113C62.1452 86.3113 62.9619 86.0856 63.6067 85.6343C64.2515 85.183 64.735 84.6027 65.0574 83.8934C65.3798 83.1627 65.541 82.4104 65.541 81.6367C65.541 80.8844 65.3798 80.1859 65.0574 79.5412C64.7565 78.8964 64.2944 78.3806 63.6712 77.9937C63.0479 77.6068 62.2419 77.4134 61.2533 77.4134C60.3506 77.4134 59.5661 77.6176 58.8998 78.0259C58.2336 78.4343 57.6747 78.9609 57.2234 79.6056L53.8383 78.7352L55.9983 66.968H68.3136V70.2886H57.3201L59.2222 68.8056L57.7392 76.7041L56.6431 76.4462C57.4813 75.4791 58.341 74.845 59.2222 74.5441C60.1249 74.2218 60.9739 74.0606 61.7691 74.0606C63.2521 74.0606 64.5631 74.4044 65.7022 75.0922C66.8413 75.78 67.7225 76.7041 68.3458 77.8647C68.9906 79.0253 69.313 80.2827 69.313 81.6367C69.313 82.7113 69.1195 83.7322 68.7327 84.6994C68.3458 85.6665 67.787 86.537 67.0562 87.3107C66.3255 88.063 65.455 88.654 64.4449 89.0838C63.4562 89.5137 62.3709 89.7286 61.1888 89.7286ZM71.1045 94.2743L73.5546 84.5059H77.5522L73.4579 94.2743H71.1045ZM87.1025 89.7286C85.7484 89.7286 84.6093 89.4922 83.6852 89.0194C82.7825 88.525 82.041 87.8695 81.4607 87.0528C80.9019 86.2361 80.472 85.3227 80.1711 84.3125C79.8702 83.3024 79.6661 82.26 79.5586 81.1853C79.4726 80.1107 79.4296 79.0791 79.4296 78.0904C79.4296 77.1447 79.4726 76.1453 79.5586 75.0922C79.6661 74.0391 79.8595 73.0182 80.1389 72.0295C80.4398 71.0194 80.8696 70.1167 81.4284 69.3215C81.9873 68.5047 82.7287 67.86 83.6529 67.3871C84.5771 66.8928 85.7055 66.6456 87.038 66.6456C88.3705 66.6456 89.4881 66.8821 90.3908 67.3549C91.315 67.8277 92.0565 68.4618 92.6153 69.257C93.1956 70.0522 93.6362 70.9441 93.9371 71.9328C94.238 72.9215 94.4422 73.9531 94.5496 75.0277C94.6571 76.1024 94.7108 77.134 94.7108 78.1227C94.7108 79.1543 94.6571 80.2182 94.5496 81.3143C94.4422 82.3889 94.2273 83.4313 93.9049 84.4415C93.604 85.4301 93.1741 86.3221 92.6153 87.1173C92.0565 87.9125 91.3258 88.5465 90.4231 89.0194C89.5204 89.4922 88.4135 89.7286 87.1025 89.7286ZM87.1025 86.2791C88.1556 86.2791 88.9616 85.9244 89.5204 85.2152C90.1007 84.4844 90.4983 83.5065 90.7132 82.2815C90.9496 81.0564 91.0679 79.7131 91.0679 78.2516C91.0679 76.6827 90.9496 75.2856 90.7132 74.0606C90.4983 72.8355 90.1007 71.8683 89.5204 71.1591C88.9401 70.4283 88.1126 70.063 87.038 70.063C86.2213 70.063 85.555 70.2779 85.0392 70.7077C84.5234 71.1376 84.1258 71.7394 83.8464 72.5131C83.567 73.2653 83.3628 74.1358 83.2338 75.1244C83.1264 76.0916 83.0726 77.1233 83.0726 78.2194C83.0726 79.2725 83.1264 80.2827 83.2338 81.2498C83.3628 82.217 83.567 83.0767 83.8464 83.8289C84.1258 84.5812 84.5234 85.183 85.0392 85.6343C85.5765 86.0641 86.2643 86.2791 87.1025 86.2791ZM105.013 89.7286C103.638 89.7286 102.37 89.4385 101.209 88.8582C100.07 88.2564 99.1244 87.4504 98.3722 86.4403C97.6415 85.4301 97.1794 84.291 96.9859 83.023L100.5 82.4104C100.586 83.0552 100.812 83.6892 101.177 84.3125C101.542 84.9143 102.047 85.3979 102.692 85.7633C103.337 86.1286 104.1 86.3113 104.981 86.3113C105.97 86.3113 106.787 86.0856 107.431 85.6343C108.076 85.183 108.56 84.6027 108.882 83.8934C109.204 83.1627 109.366 82.4104 109.366 81.6367C109.366 80.8844 109.204 80.1859 108.882 79.5412C108.581 78.8964 108.119 78.3806 107.496 77.9937C106.873 77.6068 106.067 77.4134 105.078 77.4134C104.175 77.4134 103.391 77.6176 102.724 78.0259C102.058 78.4343 101.499 78.9609 101.048 79.6056L97.6629 78.7352L99.8229 66.968H112.138V70.2886H101.145L103.047 68.8056L101.564 76.7041L100.468 76.4462C101.306 75.4791 102.166 74.845 103.047 74.5441C103.95 74.2218 104.798 74.0606 105.594 74.0606C107.077 74.0606 108.388 74.4044 109.527 75.0922C110.666 75.78 111.547 76.7041 112.17 77.8647C112.815 79.0253 113.138 80.2827 113.138 81.6367C113.138 82.7113 112.944 83.7322 112.557 84.6994C112.17 85.6665 111.612 86.537 110.881 87.3107C110.15 88.063 109.28 88.654 108.27 89.0838C107.281 89.5137 106.195 89.7286 105.013 89.7286ZM123.182 89.7286C121.828 89.7286 120.689 89.4922 119.765 89.0194C118.862 88.525 118.121 87.8695 117.54 87.0528C116.982 86.2361 116.552 85.3227 116.251 84.3125C115.95 83.3024 115.746 82.26 115.638 81.1853C115.552 80.1107 115.509 79.0791 115.509 78.0904C115.509 77.1447 115.552 76.1453 115.638 75.0922C115.746 74.0391 115.939 73.0182 116.219 72.0295C116.52 71.0194 116.949 70.1167 117.508 69.3215C118.067 68.5047 118.808 67.86 119.733 67.3871C120.657 66.8928 121.785 66.6456 123.118 66.6456C124.45 66.6456 125.568 66.8821 126.471 67.3549C127.395 67.8277 128.136 68.4618 128.695 69.257C129.275 70.0522 129.716 70.9441 130.017 71.9328C130.318 72.9215 130.522 73.9531 130.629 75.0277C130.737 76.1024 130.791 77.134 130.791 78.1227C130.791 79.1543 130.737 80.2182 130.629 81.3143C130.522 82.3889 130.307 83.4313 129.985 84.4415C129.684 85.4301 129.254 86.3221 128.695 87.1173C128.136 87.9125 127.406 88.5465 126.503 89.0194C125.6 89.4922 124.493 89.7286 123.182 89.7286ZM123.182 86.2791C124.235 86.2791 125.041 85.9244 125.6 85.2152C126.18 84.4844 126.578 83.5065 126.793 82.2815C127.029 81.0564 127.148 79.7131 127.148 78.2516C127.148 76.6827 127.029 75.2856 126.793 74.0606C126.578 72.8355 126.18 71.8683 125.6 71.1591C125.02 70.4283 124.192 70.063 123.118 70.063C122.301 70.063 121.635 70.2779 121.119 70.7077C120.603 71.1376 120.206 71.7394 119.926 72.5131C119.647 73.2653 119.443 74.1358 119.314 75.1244C119.206 76.0916 119.152 77.1233 119.152 78.2194C119.152 79.2725 119.206 80.2827 119.314 81.2498C119.443 82.217 119.647 83.0767 119.926 83.8289C120.206 84.5812 120.603 85.183 121.119 85.6343C121.656 86.0641 122.344 86.2791 123.182 86.2791ZM134.065 89.4385V85.3764H137.998V89.4385H134.065ZM148.967 89.7286C147.613 89.7286 146.474 89.4922 145.55 89.0194C144.647 88.525 143.905 87.8695 143.325 87.0528C142.766 86.2361 142.337 85.3227 142.036 84.3125C141.735 83.3024 141.531 82.26 141.423 81.1853C141.337 80.1107 141.294 79.0791 141.294 78.0904C141.294 77.1447 141.337 76.1453 141.423 75.0922C141.531 74.0391 141.724 73.0182 142.003 72.0295C142.304 71.0194 142.734 70.1167 143.293 69.3215C143.852 68.5047 144.593 67.86 145.517 67.3871C146.442 66.8928 147.57 66.6456 148.903 66.6456C150.235 66.6456 151.353 66.8821 152.255 67.3549C153.18 67.8277 153.921 68.4618 154.48 69.257C155.06 70.0522 155.501 70.9441 155.802 71.9328C156.103 72.9215 156.307 73.9531 156.414 75.0277C156.522 76.1024 156.575 77.134 156.575 78.1227C156.575 79.1543 156.522 80.2182 156.414 81.3143C156.307 82.3889 156.092 83.4313 155.769 84.4415C155.468 85.4301 155.039 86.3221 154.48 87.1173C153.921 87.9125 153.19 88.5465 152.288 89.0194C151.385 89.4922 150.278 89.7286 148.967 89.7286ZM148.967 86.2791C150.02 86.2791 150.826 85.9244 151.385 85.2152C151.965 84.4844 152.363 83.5065 152.578 82.2815C152.814 81.0564 152.932 79.7131 152.932 78.2516C152.932 76.6827 152.814 75.2856 152.578 74.0606C152.363 72.8355 151.965 71.8683 151.385 71.1591C150.805 70.4283 149.977 70.063 148.903 70.063C148.086 70.063 147.42 70.2779 146.904 70.7077C146.388 71.1376 145.99 71.7394 145.711 72.5131C145.431 73.2653 145.227 74.1358 145.098 75.1244C144.991 76.0916 144.937 77.1233 144.937 78.2194C144.937 79.2725 144.991 80.2827 145.098 81.2498C145.227 82.217 145.431 83.0767 145.711 83.8289C145.99 84.5812 146.388 85.183 146.904 85.6343C147.441 86.0641 148.129 86.2791 148.967 86.2791ZM167.007 89.7286C165.653 89.7286 164.514 89.4922 163.59 89.0194C162.687 88.525 161.945 87.8695 161.365 87.0528C160.806 86.2361 160.376 85.3227 160.076 84.3125C159.775 83.3024 159.57 82.26 159.463 81.1853C159.377 80.1107 159.334 79.0791 159.334 78.0904C159.334 77.1447 159.377 76.1453 159.463 75.0922C159.57 74.0391 159.764 73.0182 160.043 72.0295C160.344 71.0194 160.774 70.1167 161.333 69.3215C161.892 68.5047 162.633 67.86 163.557 67.3871C164.481 66.8928 165.61 66.6456 166.942 66.6456C168.275 66.6456 169.393 66.8821 170.295 67.3549C171.219 67.8277 171.961 68.4618 172.52 69.257C173.1 70.0522 173.541 70.9441 173.841 71.9328C174.142 72.9215 174.347 73.9531 174.454 75.0277C174.561 76.1024 174.615 77.134 174.615 78.1227C174.615 79.1543 174.561 80.2182 174.454 81.3143C174.347 82.3889 174.132 83.4313 173.809 84.4415C173.508 85.4301 173.078 86.3221 172.52 87.1173C171.961 87.9125 171.23 88.5465 170.327 89.0194C169.425 89.4922 168.318 89.7286 167.007 89.7286ZM167.007 86.2791C168.06 86.2791 168.866 85.9244 169.425 85.2152C170.005 84.4844 170.403 83.5065 170.618 82.2815C170.854 81.0564 170.972 79.7131 170.972 78.2516C170.972 76.6827 170.854 75.2856 170.618 74.0606C170.403 72.8355 170.005 71.8683 169.425 71.1591C168.844 70.4283 168.017 70.063 166.942 70.063C166.126 70.063 165.459 70.2779 164.944 70.7077C164.428 71.1376 164.03 71.7394 163.751 72.5131C163.471 73.2653 163.267 74.1358 163.138 75.1244C163.031 76.0916 162.977 77.1233 162.977 78.2194C162.977 79.2725 163.031 80.2827 163.138 81.2498C163.267 82.217 163.471 83.0767 163.751 83.8289C164.03 84.5812 164.428 85.183 164.944 85.6343C165.481 86.0641 166.169 86.2791 167.007 86.2791Z" fill="#18181B"/>
<path d="M38.6504 108.039V109.081H35.0121V108.039H38.6504ZM43.0881 112.799C42.455 112.797 41.9141 112.63 41.4653 112.298C41.0165 111.967 40.6733 111.485 40.4355 110.852C40.1978 110.219 40.0789 109.456 40.0789 108.564C40.0789 107.674 40.1978 106.914 40.4355 106.284C40.676 105.654 41.0206 105.173 41.4693 104.842C41.9208 104.51 42.4604 104.345 43.0881 104.345C43.7159 104.345 44.2542 104.512 44.7029 104.846C45.1517 105.177 45.495 105.658 45.7327 106.288C45.9731 106.916 46.0934 107.674 46.0934 108.564C46.0934 109.459 45.9745 110.223 45.7367 110.856C45.499 111.486 45.1557 111.969 44.707 112.302C44.2582 112.634 43.7186 112.799 43.0881 112.799ZM43.0881 111.729C43.6438 111.729 44.0779 111.458 44.3904 110.916C44.7056 110.374 44.8632 109.59 44.8632 108.564C44.8632 107.883 44.7911 107.307 44.6468 106.837C44.5053 106.364 44.3009 106.006 44.0338 105.763C43.7693 105.517 43.4541 105.394 43.0881 105.394C42.5352 105.394 42.1011 105.667 41.7859 106.212C41.4707 106.757 41.3117 107.541 41.3091 108.564C41.3091 109.248 41.3798 109.826 41.5214 110.299C41.6657 110.769 41.87 111.126 42.1345 111.369C42.3989 111.609 42.7168 111.729 43.0881 111.729ZM48.0227 112.739C47.8037 112.739 47.6153 112.662 47.4577 112.507C47.3001 112.349 47.2213 112.16 47.2213 111.938C47.2213 111.719 47.3001 111.532 47.4577 111.377C47.6153 111.219 47.8037 111.14 48.0227 111.14C48.2418 111.14 48.4301 111.219 48.5877 111.377C48.7453 111.532 48.8241 111.719 48.8241 111.938C48.8241 112.085 48.7867 112.22 48.7119 112.343C48.6398 112.463 48.5436 112.559 48.4234 112.631C48.3032 112.703 48.1696 112.739 48.0227 112.739ZM52.9723 112.799C52.3392 112.797 51.7983 112.63 51.3495 112.298C50.9007 111.967 50.5574 111.485 50.3197 110.852C50.0819 110.219 49.9631 109.456 49.9631 108.564C49.9631 107.674 50.0819 106.914 50.3197 106.284C50.5601 105.654 50.9047 105.173 51.3535 104.842C51.8049 104.51 52.3445 104.345 52.9723 104.345C53.6001 104.345 54.1383 104.512 54.5871 104.846C55.0359 105.177 55.3791 105.658 55.6169 106.288C55.8573 106.916 55.9775 107.674 55.9775 108.564C55.9775 109.459 55.8586 110.223 55.6209 110.856C55.3831 111.486 55.0399 111.969 54.5911 112.302C54.1423 112.634 53.6027 112.799 52.9723 112.799ZM52.9723 111.729C53.5279 111.729 53.962 111.458 54.2746 110.916C54.5898 110.374 54.7474 109.59 54.7474 108.564C54.7474 107.883 54.6753 107.307 54.531 106.837C54.3894 106.364 54.1851 106.006 53.9179 105.763C53.6535 105.517 53.3383 105.394 52.9723 105.394C52.4193 105.394 51.9852 105.667 51.67 106.212C51.3548 106.757 51.1959 107.541 51.1932 108.564C51.1932 109.248 51.264 109.826 51.4056 110.299C51.5498 110.769 51.7542 111.126 52.0186 111.369C52.2831 111.609 52.601 111.729 52.9723 111.729ZM60.2559 112.799C59.6228 112.797 59.0819 112.63 58.6331 112.298C58.1843 111.967 57.8411 111.485 57.6033 110.852C57.3656 110.219 57.2467 109.456 57.2467 108.564C57.2467 107.674 57.3656 106.914 57.6033 106.284C57.8437 105.654 58.1883 105.173 58.6371 104.842C59.0886 104.51 59.6282 104.345 60.2559 104.345C60.8837 104.345 61.422 104.512 61.8707 104.846C62.3195 105.177 62.6628 105.658 62.9005 106.288C63.1409 106.916 63.2612 107.674 63.2612 108.564C63.2612 109.459 63.1423 110.223 62.9045 110.856C62.6668 111.486 62.3235 111.969 61.8747 112.302C61.426 112.634 60.8864 112.799 60.2559 112.799ZM60.2559 111.729C60.8116 111.729 61.2457 111.458 61.5582 110.916C61.8734 110.374 62.031 109.59 62.031 108.564C62.031 107.883 61.9589 107.307 61.8146 106.837C61.6731 106.364 61.4687 106.006 61.2016 105.763C60.9371 105.517 60.6219 105.394 60.2559 105.394C59.703 105.394 59.2689 105.667 58.9537 106.212C58.6385 106.757 58.4795 107.541 58.4768 108.564C58.4768 109.248 58.5476 109.826 58.6892 110.299C58.8335 110.769 59.0378 111.126 59.3023 111.369C59.5667 111.609 59.8846 111.729 60.2559 111.729ZM67.3913 112.775C66.8891 112.775 66.4377 112.679 66.037 112.487C65.6389 112.292 65.3211 112.025 65.0833 111.685C64.8456 111.346 64.7187 110.959 64.7027 110.523H65.9047C65.9341 110.876 66.0904 111.166 66.3736 111.393C66.6567 111.62 66.996 111.733 67.3913 111.733C67.7065 111.733 67.9857 111.661 68.2288 111.517C68.4745 111.37 68.6669 111.168 68.8058 110.912C68.9474 110.656 69.0181 110.363 69.0181 110.035C69.0181 109.701 68.946 109.403 68.8018 109.141C68.6575 108.879 68.4585 108.673 68.2047 108.524C67.9536 108.374 67.6651 108.298 67.3392 108.296C67.0908 108.296 66.841 108.338 66.5899 108.424C66.3388 108.509 66.1358 108.621 65.9809 108.76L64.8469 108.592L65.3077 104.457H69.8195V105.519H66.3375L66.077 107.815H66.1251C66.2854 107.66 66.4978 107.53 66.7622 107.426C67.0294 107.322 67.3152 107.27 67.6197 107.27C68.1193 107.27 68.564 107.389 68.954 107.626C69.3467 107.864 69.6552 108.189 69.8796 108.6C70.1067 109.009 70.2189 109.479 70.2162 110.01C70.2189 110.542 70.0987 111.016 69.8556 111.433C69.6152 111.85 69.2813 112.178 68.8539 112.419C68.4291 112.656 67.9416 112.775 67.3913 112.775ZM74.7932 104.457V112.663H73.551V105.699H73.5029L71.5395 106.981V105.795L73.5871 104.457H74.7932ZM81.2965 111.124V110.692C81.2965 110.382 81.3606 110.099 81.4888 109.842C81.6197 109.583 81.8093 109.376 82.0578 109.221C82.3089 109.064 82.6121 108.985 82.9674 108.985C83.3306 108.985 83.6352 109.062 83.8809 109.217C84.1267 109.372 84.3124 109.579 84.4379 109.838C84.5661 110.097 84.6302 110.382 84.6302 110.692V111.124C84.6302 111.434 84.5661 111.719 84.4379 111.978C84.3097 112.234 84.1214 112.441 83.8729 112.599C83.6272 112.754 83.3253 112.831 82.9674 112.831C82.6067 112.831 82.3022 112.754 82.0538 112.599C81.8053 112.441 81.617 112.234 81.4888 111.978C81.3606 111.719 81.2965 111.434 81.2965 111.124ZM82.2301 110.692V111.124C82.2301 111.354 82.2848 111.563 82.3944 111.75C82.5039 111.936 82.6949 112.03 82.9674 112.03C83.2372 112.03 83.4255 111.936 83.5323 111.75C83.6392 111.563 83.6926 111.354 83.6926 111.124V110.692C83.6926 110.462 83.6405 110.254 83.5363 110.067C83.4348 109.88 83.2452 109.786 82.9674 109.786C82.7002 109.786 82.5106 109.88 82.3984 110.067C82.2862 110.254 82.2301 110.462 82.2301 110.692ZM77.1693 106.428V105.996C77.1693 105.686 77.2334 105.401 77.3616 105.142C77.4925 104.883 77.6822 104.676 77.9306 104.521C78.1817 104.366 78.4849 104.289 78.8402 104.289C79.2035 104.289 79.508 104.366 79.7538 104.521C79.9995 104.676 80.1852 104.883 80.3107 105.142C80.4363 105.401 80.4991 105.686 80.4991 105.996V106.428C80.4991 106.738 80.435 107.023 80.3067 107.282C80.1812 107.538 79.9942 107.745 79.7458 107.903C79.5 108.058 79.1981 108.135 78.8402 108.135C78.4769 108.135 78.171 108.058 77.9226 107.903C77.6768 107.745 77.4898 107.538 77.3616 107.282C77.2334 107.023 77.1693 106.738 77.1693 106.428ZM78.1069 105.996V106.428C78.1069 106.658 78.1603 106.866 78.2672 107.053C78.3767 107.24 78.5677 107.334 78.8402 107.334C79.1073 107.334 79.2943 107.24 79.4012 107.053C79.5107 106.866 79.5654 106.658 79.5654 106.428V105.996C79.5654 105.766 79.5134 105.557 79.4092 105.37C79.305 105.183 79.1153 105.09 78.8402 105.09C78.5731 105.09 78.3834 105.183 78.2712 105.37C78.1617 105.557 78.1069 105.766 78.1069 105.996ZM77.5499 112.663L83.1917 104.457H84.1494L78.5076 112.663H77.5499ZM89.708 108.56C89.708 107.556 89.8403 106.631 90.1047 105.787C90.3692 104.943 90.7552 104.164 91.2627 103.451H92.3607C92.163 103.716 91.9787 104.04 91.8077 104.425C91.6367 104.809 91.4871 105.232 91.3589 105.691C91.2307 106.148 91.1305 106.622 91.0584 107.113C90.9863 107.602 90.9502 108.084 90.9502 108.56C90.9502 109.196 91.013 109.84 91.1385 110.491C91.2641 111.143 91.4337 111.748 91.6474 112.306C91.8611 112.865 92.0989 113.32 92.3607 113.673H91.2627C90.7552 112.96 90.3692 112.181 90.1047 111.337C89.8403 110.493 89.708 109.567 89.708 108.56ZM96.1402 113.689V103.431H96.7974V113.689H96.1402ZM98.1958 106.613C98.153 106.233 97.9767 105.939 97.6669 105.731C97.357 105.52 96.967 105.415 96.4968 105.415C96.1602 105.415 95.8691 105.468 95.6233 105.575C95.3776 105.679 95.1866 105.823 95.0503 106.008C94.9168 106.189 94.85 106.396 94.85 106.629C94.85 106.824 94.8954 106.992 94.9862 107.133C95.0797 107.275 95.2012 107.394 95.3508 107.49C95.5031 107.584 95.6661 107.662 95.8397 107.727C96.0133 107.788 96.1803 107.839 96.3406 107.879L97.142 108.087C97.4037 108.151 97.6722 108.238 97.9473 108.348C98.2225 108.457 98.4776 108.601 98.7127 108.78C98.9478 108.959 99.1374 109.181 99.2817 109.446C99.4286 109.71 99.502 110.027 99.502 110.395C99.502 110.86 99.3818 111.273 99.1414 111.633C98.9037 111.994 98.5577 112.278 98.1036 112.487C97.6522 112.695 97.1059 112.799 96.4648 112.799C95.8504 112.799 95.3188 112.702 94.87 112.507C94.4212 112.312 94.07 112.035 93.8162 111.677C93.5624 111.317 93.4222 110.889 93.3954 110.395H94.6376C94.6616 110.692 94.7578 110.939 94.9261 111.136C95.0971 111.331 95.3148 111.477 95.5792 111.573C95.8464 111.667 96.1389 111.713 96.4568 111.713C96.8067 111.713 97.1179 111.659 97.3904 111.549C97.6655 111.437 97.8819 111.282 98.0395 111.084C98.1971 110.884 98.2759 110.65 98.2759 110.383C98.2759 110.14 98.2065 109.941 98.0676 109.786C97.9313 109.631 97.7457 109.503 97.5106 109.401C97.2782 109.3 97.0151 109.21 96.7212 109.133L95.7515 108.869C95.0944 108.69 94.5735 108.426 94.1888 108.079C93.8068 107.732 93.6158 107.272 93.6158 106.701C93.6158 106.228 93.7441 105.815 94.0005 105.463C94.2569 105.11 94.6042 104.836 95.0423 104.641C95.4804 104.443 95.9746 104.345 96.5249 104.345C97.0805 104.345 97.5707 104.442 97.9954 104.637C98.4228 104.832 98.7594 105.101 99.0052 105.443C99.2509 105.782 99.3792 106.172 99.3899 106.613H98.1958ZM103.726 112.799C103.093 112.797 102.552 112.63 102.104 112.298C101.655 111.967 101.312 111.485 101.074 110.852C100.836 110.219 100.717 109.456 100.717 108.564C100.717 107.674 100.836 106.914 101.074 106.284C101.314 105.654 101.659 105.173 102.108 104.842C102.559 104.51 103.099 104.345 103.726 104.345C104.354 104.345 104.892 104.512 105.341 104.846C105.79 105.177 106.133 105.658 106.371 106.288C106.611 106.916 106.732 107.674 106.732 108.564C106.732 109.459 106.613 110.223 106.375 110.856C106.137 111.486 105.794 111.969 105.345 112.302C104.896 112.634 104.357 112.799 103.726 112.799ZM103.726 111.729C104.282 111.729 104.716 111.458 105.029 110.916C105.344 110.374 105.501 109.59 105.501 108.564C105.501 107.883 105.429 107.307 105.285 106.837C105.144 106.364 104.939 106.006 104.672 105.763C104.408 105.517 104.092 105.394 103.726 105.394C103.173 105.394 102.739 105.667 102.424 106.212C102.109 106.757 101.95 107.541 101.947 108.564C101.947 109.248 102.018 109.826 102.16 110.299C102.304 110.769 102.508 111.126 102.773 111.369C103.037 111.609 103.355 111.729 103.726 111.729ZM108.661 112.739C108.442 112.739 108.254 112.662 108.096 112.507C107.938 112.349 107.86 112.16 107.86 111.938C107.86 111.719 107.938 111.532 108.096 111.377C108.254 111.219 108.442 111.14 108.661 111.14C108.88 111.14 109.068 111.219 109.226 111.377C109.384 111.532 109.462 111.719 109.462 111.938C109.462 112.085 109.425 112.22 109.35 112.343C109.278 112.463 109.182 112.559 109.062 112.631C108.941 112.703 108.808 112.739 108.661 112.739ZM113.681 104.345C114.047 104.347 114.407 104.414 114.763 104.545C115.118 104.676 115.438 104.89 115.724 105.186C116.013 105.483 116.242 105.883 116.413 106.388C116.587 106.89 116.675 107.515 116.678 108.263C116.678 108.982 116.606 109.622 116.461 110.183C116.317 110.741 116.11 111.213 115.84 111.597C115.573 111.982 115.249 112.274 114.867 112.475C114.485 112.675 114.055 112.775 113.576 112.775C113.088 112.775 112.654 112.679 112.274 112.487C111.895 112.294 111.586 112.029 111.349 111.689C111.111 111.347 110.963 110.955 110.904 110.511H112.126C112.206 110.864 112.369 111.15 112.615 111.369C112.863 111.585 113.184 111.693 113.576 111.693C114.178 111.693 114.646 111.432 114.983 110.908C115.319 110.382 115.489 109.647 115.492 108.704H115.428C115.289 108.934 115.115 109.132 114.907 109.297C114.701 109.463 114.47 109.591 114.214 109.682C113.957 109.773 113.683 109.818 113.392 109.818C112.919 109.818 112.489 109.702 112.102 109.47C111.715 109.237 111.406 108.918 111.176 108.512C110.947 108.106 110.832 107.642 110.832 107.121C110.832 106.603 110.949 106.133 111.184 105.711C111.422 105.289 111.753 104.955 112.178 104.709C112.605 104.461 113.106 104.339 113.681 104.345ZM113.685 105.386C113.372 105.386 113.09 105.464 112.839 105.619C112.591 105.771 112.394 105.978 112.25 106.24C112.106 106.499 112.034 106.788 112.034 107.105C112.034 107.423 112.103 107.712 112.242 107.971C112.384 108.227 112.576 108.432 112.819 108.584C113.065 108.734 113.345 108.808 113.661 108.808C113.896 108.808 114.115 108.763 114.318 108.672C114.521 108.581 114.698 108.456 114.851 108.296C115.003 108.133 115.122 107.948 115.207 107.743C115.293 107.537 115.336 107.32 115.336 107.093C115.336 106.792 115.263 106.511 115.119 106.252C114.978 105.993 114.783 105.784 114.534 105.627C114.286 105.467 114.003 105.386 113.685 105.386ZM120.854 104.345C121.22 104.347 121.581 104.414 121.936 104.545C122.291 104.676 122.612 104.89 122.898 105.186C123.186 105.483 123.416 105.883 123.587 106.388C123.76 106.89 123.849 107.515 123.851 108.263C123.851 108.982 123.779 109.622 123.635 110.183C123.491 110.741 123.284 111.213 123.014 111.597C122.747 111.982 122.422 112.274 122.04 112.475C121.658 112.675 121.228 112.775 120.75 112.775C120.261 112.775 119.827 112.679 119.448 112.487C119.068 112.294 118.76 112.029 118.522 111.689C118.284 111.347 118.136 110.955 118.077 110.511H119.299C119.38 110.864 119.542 111.15 119.788 111.369C120.037 111.585 120.357 111.693 120.75 111.693C121.351 111.693 121.82 111.432 122.156 110.908C122.493 110.382 122.663 109.647 122.665 108.704H122.601C122.462 108.934 122.289 109.132 122.08 109.297C121.875 109.463 121.643 109.591 121.387 109.682C121.131 109.773 120.857 109.818 120.566 109.818C120.093 109.818 119.663 109.702 119.275 109.47C118.888 109.237 118.579 108.918 118.35 108.512C118.12 108.106 118.005 107.642 118.005 107.121C118.005 106.603 118.123 106.133 118.358 105.711C118.596 105.289 118.927 104.955 119.351 104.709C119.779 104.461 120.28 104.339 120.854 104.345ZM120.858 105.386C120.546 105.386 120.264 105.464 120.013 105.619C119.764 105.771 119.568 105.978 119.424 106.24C119.279 106.499 119.207 106.788 119.207 107.105C119.207 107.423 119.277 107.712 119.416 107.971C119.557 108.227 119.75 108.432 119.993 108.584C120.238 108.734 120.519 108.808 120.834 108.808C121.069 108.808 121.288 108.763 121.491 108.672C121.694 108.581 121.872 108.456 122.024 108.296C122.176 108.133 122.295 107.948 122.381 107.743C122.466 107.537 122.509 107.32 122.509 107.093C122.509 106.792 122.437 106.511 122.293 106.252C122.151 105.993 121.956 105.784 121.708 105.627C121.459 105.467 121.176 105.386 120.858 105.386ZM127.619 108.56C127.619 109.567 127.487 110.493 127.222 111.337C126.958 112.181 126.572 112.96 126.064 113.673H124.966C125.164 113.408 125.348 113.084 125.519 112.699C125.69 112.314 125.84 111.894 125.968 111.437C126.096 110.977 126.196 110.502 126.268 110.01C126.341 109.519 126.377 109.035 126.377 108.56C126.377 107.927 126.314 107.284 126.188 106.633C126.063 105.981 125.893 105.376 125.679 104.817C125.466 104.259 125.228 103.804 124.966 103.451H126.064C126.572 104.164 126.958 104.943 127.222 105.787C127.487 106.631 127.619 107.556 127.619 108.56Z" fill="#DC2626"/>
<rect x="34.2188" y="133.782" width="114.769" height="32.2388" rx="6.44776" fill="#F3EBF9"/>
<path d="M66.875 143.353V150.405" stroke="#5E2A8C" stroke-width="1.20896" stroke-linecap="round" stroke-linejoin="round"/>
<path d="M69.3984 147.887L66.8798 150.405L64.3611 147.887" stroke="#5E2A8C" stroke-width="1.20896" stroke-linecap="round" stroke-linejoin="round"/>
<path d="M72.4219 150.405V154.435H61.3398V150.405" stroke="#5E2A8C" stroke-width="1.20896" stroke-linecap="round" stroke-linejoin="round"/>
<path d="M82.5638 153.401V145.195H85.4889C86.1247 145.195 86.6523 145.305 87.0717 145.524C87.4937 145.743 87.809 146.046 88.0173 146.433C88.2257 146.818 88.3299 147.263 88.3299 147.768C88.3299 148.27 88.2243 148.712 88.0133 149.094C87.8049 149.473 87.4897 149.768 87.0677 149.979C86.6483 150.19 86.1207 150.296 85.4849 150.296H83.2691V149.23H85.3727C85.7734 149.23 86.0993 149.173 86.3504 149.058C86.6042 148.943 86.7898 148.776 86.9074 148.557C87.0249 148.338 87.0837 148.075 87.0837 147.768C87.0837 147.458 87.0236 147.189 86.9034 146.962C86.7858 146.735 86.6002 146.561 86.3464 146.441C86.0953 146.318 85.7654 146.257 85.3567 146.257H83.802V153.401H82.5638ZM86.6149 149.699L88.6424 153.401H87.232L85.2445 149.699H86.6149ZM92.3158 153.526C91.7094 153.526 91.1871 153.396 90.7491 153.137C90.3136 152.875 89.977 152.508 89.7393 152.035C89.5042 151.56 89.3867 151.003 89.3867 150.364C89.3867 149.734 89.5042 149.178 89.7393 148.697C89.977 148.216 90.3083 147.841 90.733 147.571C91.1604 147.301 91.66 147.167 92.2316 147.167C92.5789 147.167 92.9155 147.224 93.2414 147.339C93.5673 147.454 93.8598 147.634 94.1189 147.88C94.378 148.126 94.5824 148.445 94.732 148.837C94.8816 149.227 94.9564 149.702 94.9564 150.26V150.685H90.0639V149.787H93.7823C93.7823 149.472 93.7182 149.193 93.59 148.95C93.4618 148.704 93.2814 148.51 93.049 148.369C92.8193 148.227 92.5495 148.156 92.2396 148.156C91.9031 148.156 91.6092 148.239 91.3581 148.405C91.1097 148.568 90.9173 148.781 90.7811 149.046C90.6475 149.308 90.5808 149.592 90.5808 149.899V150.601C90.5808 151.012 90.6529 151.362 90.7971 151.65C90.9441 151.939 91.1484 152.159 91.4102 152.311C91.672 152.461 91.9779 152.536 92.3278 152.536C92.5549 152.536 92.7619 152.504 92.9489 152.44C93.1359 152.373 93.2975 152.274 93.4337 152.143C93.5699 152.012 93.6741 151.851 93.7463 151.658L94.8802 151.863C94.7894 152.197 94.6264 152.489 94.3914 152.74C94.159 152.989 93.8665 153.182 93.5139 153.321C93.1639 153.457 92.7646 153.526 92.3158 153.526ZM98.8782 153.526C98.2825 153.526 97.7696 153.391 97.3395 153.121C96.9121 152.848 96.5835 152.473 96.3538 151.995C96.124 151.517 96.0092 150.969 96.0092 150.352C96.0092 149.727 96.1267 149.175 96.3618 148.697C96.5969 148.216 96.9281 147.841 97.3555 147.571C97.7829 147.301 98.2865 147.167 98.8661 147.167C99.3336 147.167 99.7503 147.253 100.116 147.427C100.482 147.598 100.777 147.838 101.002 148.148C101.229 148.458 101.364 148.82 101.407 149.234H100.241C100.176 148.946 100.029 148.697 99.7998 148.489C99.5727 148.28 99.2682 148.176 98.8862 148.176C98.5523 148.176 98.2598 148.264 98.0087 148.441C97.7602 148.614 97.5666 148.863 97.4276 149.186C97.2887 149.507 97.2193 149.886 97.2193 150.324C97.2193 150.773 97.2874 151.16 97.4236 151.486C97.5599 151.812 97.7522 152.064 98.0006 152.243C98.2517 152.422 98.5469 152.512 98.8862 152.512C99.1132 152.512 99.3189 152.47 99.5032 152.388C99.6902 152.302 99.8465 152.181 99.9721 152.023C100.1 151.865 100.19 151.676 100.241 151.454H101.407C101.364 151.852 101.234 152.207 101.018 152.52C100.801 152.832 100.512 153.078 100.148 153.257C99.7877 153.436 99.3643 153.526 98.8782 153.526ZM105.34 153.526C104.734 153.526 104.212 153.396 103.774 153.137C103.338 152.875 103.002 152.508 102.764 152.035C102.529 151.56 102.411 151.003 102.411 150.364C102.411 149.734 102.529 149.178 102.764 148.697C103.002 148.216 103.333 147.841 103.758 147.571C104.185 147.301 104.685 147.167 105.256 147.167C105.604 147.167 105.94 147.224 106.266 147.339C106.592 147.454 106.884 147.634 107.144 147.88C107.403 148.126 107.607 148.445 107.757 148.837C107.906 149.227 107.981 149.702 107.981 150.26V150.685H103.088V149.787H106.807C106.807 149.472 106.743 149.193 106.615 148.95C106.486 148.704 106.306 148.51 106.074 148.369C105.844 148.227 105.574 148.156 105.264 148.156C104.928 148.156 104.634 148.239 104.383 148.405C104.134 148.568 103.942 148.781 103.806 149.046C103.672 149.308 103.605 149.592 103.605 149.899V150.601C103.605 151.012 103.677 151.362 103.822 151.65C103.969 151.939 104.173 152.159 104.435 152.311C104.697 152.461 105.002 152.536 105.352 152.536C105.579 152.536 105.786 152.504 105.973 152.44C106.16 152.373 106.322 152.274 106.458 152.143C106.595 152.012 106.699 151.851 106.771 151.658L107.905 151.863C107.814 152.197 107.651 152.489 107.416 152.74C107.184 152.989 106.891 153.182 106.538 153.321C106.189 153.457 105.789 153.526 105.34 153.526ZM109.31 153.401V147.247H110.508V153.401H109.31ZM109.915 146.297C109.707 146.297 109.528 146.228 109.378 146.089C109.231 145.947 109.158 145.779 109.158 145.584C109.158 145.386 109.231 145.218 109.378 145.079C109.528 144.937 109.707 144.867 109.915 144.867C110.124 144.867 110.301 144.937 110.448 145.079C110.598 145.218 110.673 145.386 110.673 145.584C110.673 145.779 110.598 145.947 110.448 146.089C110.301 146.228 110.124 146.297 109.915 146.297ZM117.385 147.247L115.153 153.401H113.871L111.635 147.247H112.922L114.48 151.983H114.544L116.099 147.247H117.385ZM120.954 153.526C120.348 153.526 119.826 153.396 119.388 153.137C118.952 152.875 118.616 152.508 118.378 152.035C118.143 151.56 118.025 151.003 118.025 150.364C118.025 149.734 118.143 149.178 118.378 148.697C118.616 148.216 118.947 147.841 119.372 147.571C119.799 147.301 120.299 147.167 120.87 147.167C121.218 147.167 121.554 147.224 121.88 147.339C122.206 147.454 122.498 147.634 122.758 147.88C123.017 148.126 123.221 148.445 123.371 148.837C123.52 149.227 123.595 149.702 123.595 150.26V150.685H118.703V149.787H122.421C122.421 149.472 122.357 149.193 122.229 148.95C122.1 148.704 121.92 148.51 121.688 148.369C121.458 148.227 121.188 148.156 120.878 148.156C120.542 148.156 120.248 148.239 119.997 148.405C119.748 148.568 119.556 148.781 119.42 149.046C119.286 149.308 119.219 149.592 119.219 149.899V150.601C119.219 151.012 119.292 151.362 119.436 151.65C119.583 151.939 119.787 152.159 120.049 152.311C120.311 152.461 120.617 152.536 120.966 152.536C121.194 152.536 121.401 152.504 121.588 152.44C121.775 152.373 121.936 152.274 122.072 152.143C122.209 152.012 122.313 151.851 122.385 151.658L123.519 151.863C123.428 152.197 123.265 152.489 123.03 152.74C122.798 152.989 122.505 153.182 122.153 153.321C121.803 153.457 121.403 153.526 120.954 153.526Z" fill="#5E2A8C"/>
<rect x="158.656" y="133.782" width="114.769" height="32.2388" rx="6.44776" fill="#F3EBF9"/>
<path d="M180.773 150.909V154.938H191.856V150.909" stroke="#5E2A8C" stroke-width="1.20896" stroke-linecap="round" stroke-linejoin="round"/>
<path d="M186.32 150.909V143.857" stroke="#5E2A8C" stroke-width="1.20896" stroke-linecap="round" stroke-linejoin="round"/>
<path d="M183.797 146.375L186.316 143.856L188.834 146.375" stroke="#5E2A8C" stroke-width="1.20896" stroke-linecap="round" stroke-linejoin="round"/>
<path d="M203.82 153.401L201.544 145.195H202.847L204.445 151.55H204.522L206.184 145.195H207.475L209.138 151.554H209.214L210.808 145.195H212.115L209.835 153.401H208.589L206.862 147.255H206.797L205.07 153.401H203.82ZM213.148 153.401V147.247H214.346V153.401H213.148ZM213.753 146.297C213.544 146.297 213.365 146.228 213.216 146.089C213.069 145.947 212.995 145.779 212.995 145.584C212.995 145.386 213.069 145.218 213.216 145.079C213.365 144.937 213.544 144.867 213.753 144.867C213.961 144.867 214.139 144.937 214.285 145.079C214.435 145.218 214.51 145.386 214.51 145.584C214.51 145.779 214.435 145.947 214.285 146.089C214.139 146.228 213.961 146.297 213.753 146.297ZM218.83 147.247V148.208H215.469V147.247H218.83ZM216.37 145.772H217.568V151.594C217.568 151.827 217.603 152.002 217.672 152.119C217.742 152.234 217.831 152.313 217.941 152.356C218.053 152.396 218.175 152.416 218.305 152.416C218.402 152.416 218.486 152.409 218.558 152.396C218.63 152.382 218.686 152.372 218.726 152.364L218.943 153.353C218.873 153.38 218.774 153.407 218.646 153.433C218.518 153.463 218.358 153.479 218.165 153.482C217.85 153.487 217.556 153.431 217.284 153.313C217.011 153.196 216.791 153.014 216.623 152.768C216.454 152.523 216.37 152.214 216.37 151.843V145.772ZM221.486 149.747V153.401H220.288V145.195H221.47V148.248H221.546C221.69 147.917 221.911 147.654 222.207 147.459C222.504 147.264 222.891 147.167 223.369 147.167C223.791 147.167 224.16 147.253 224.475 147.427C224.793 147.601 225.039 147.86 225.212 148.204C225.389 148.546 225.477 148.974 225.477 149.487V153.401H224.279V149.631C224.279 149.179 224.163 148.829 223.93 148.581C223.698 148.33 223.375 148.204 222.961 148.204C222.677 148.204 222.424 148.264 222.199 148.385C221.978 148.505 221.803 148.681 221.674 148.914C221.549 149.143 221.486 149.421 221.486 149.747ZM229.38 153.522C228.883 153.522 228.439 153.395 228.049 153.141C227.662 152.884 227.358 152.52 227.136 152.047C226.917 151.572 226.807 151.001 226.807 150.336C226.807 149.671 226.918 149.102 227.14 148.629C227.364 148.156 227.671 147.794 228.061 147.543C228.451 147.292 228.894 147.167 229.388 147.167C229.77 147.167 230.077 147.231 230.309 147.359C230.544 147.484 230.726 147.631 230.854 147.8C230.985 147.968 231.087 148.116 231.159 148.244H231.231V145.195H232.429V153.401H231.259V152.444H231.159C231.087 152.575 230.982 152.724 230.846 152.892C230.713 153.061 230.528 153.208 230.293 153.333C230.058 153.459 229.754 153.522 229.38 153.522ZM229.644 152.5C229.989 152.5 230.28 152.409 230.518 152.227C230.758 152.043 230.94 151.788 231.063 151.462C231.188 151.136 231.251 150.757 231.251 150.324C231.251 149.897 231.189 149.523 231.067 149.202C230.944 148.882 230.763 148.632 230.526 148.453C230.288 148.274 229.994 148.184 229.644 148.184C229.284 148.184 228.983 148.278 228.743 148.465C228.502 148.652 228.321 148.907 228.198 149.23C228.077 149.553 228.017 149.918 228.017 150.324C228.017 150.735 228.079 151.105 228.202 151.434C228.325 151.763 228.506 152.023 228.747 152.215C228.99 152.405 229.289 152.5 229.644 152.5ZM234.139 153.401V147.247H235.297V148.224H235.361C235.473 147.893 235.671 147.633 235.954 147.443C236.24 147.251 236.563 147.155 236.924 147.155C236.999 147.155 237.087 147.157 237.188 147.163C237.292 147.168 237.374 147.175 237.433 147.183V148.329C237.385 148.315 237.299 148.301 237.176 148.284C237.053 148.266 236.93 148.256 236.808 148.256C236.524 148.256 236.272 148.317 236.05 148.437C235.831 148.554 235.658 148.719 235.529 148.93C235.401 149.138 235.337 149.376 235.337 149.643V153.401H234.139ZM240.205 153.538C239.815 153.538 239.463 153.465 239.148 153.321C238.832 153.174 238.583 152.962 238.398 152.684C238.217 152.406 238.126 152.066 238.126 151.662C238.126 151.315 238.193 151.029 238.326 150.805C238.46 150.58 238.64 150.403 238.867 150.272C239.094 150.141 239.348 150.042 239.628 149.975C239.909 149.909 240.195 149.858 240.486 149.823C240.855 149.78 241.154 149.746 241.384 149.719C241.613 149.69 241.78 149.643 241.884 149.579C241.989 149.515 242.041 149.41 242.041 149.266V149.238C242.041 148.888 241.942 148.617 241.744 148.425C241.549 148.232 241.258 148.136 240.871 148.136C240.467 148.136 240.149 148.226 239.917 148.405C239.687 148.581 239.528 148.777 239.44 148.994L238.314 148.737C238.448 148.363 238.643 148.061 238.899 147.832C239.158 147.599 239.456 147.431 239.793 147.327C240.129 147.22 240.483 147.167 240.855 147.167C241.1 147.167 241.361 147.196 241.636 147.255C241.914 147.311 242.173 147.415 242.413 147.567C242.656 147.72 242.855 147.937 243.01 148.22C243.165 148.501 243.243 148.865 243.243 149.314V153.401H242.073V152.56H242.025C241.947 152.715 241.831 152.867 241.676 153.017C241.521 153.166 241.322 153.291 241.079 153.389C240.836 153.488 240.545 153.538 240.205 153.538ZM240.466 152.576C240.797 152.576 241.08 152.51 241.315 152.38C241.553 152.249 241.733 152.078 241.856 151.867C241.982 151.653 242.045 151.425 242.045 151.182V150.388C242.002 150.431 241.919 150.471 241.796 150.508C241.676 150.543 241.538 150.574 241.384 150.601C241.229 150.625 241.078 150.647 240.931 150.669C240.784 150.687 240.661 150.703 240.562 150.717C240.33 150.746 240.117 150.796 239.925 150.865C239.735 150.934 239.583 151.035 239.468 151.165C239.356 151.294 239.3 151.465 239.3 151.678C239.3 151.975 239.409 152.199 239.628 152.352C239.848 152.501 240.127 152.576 240.466 152.576ZM246.173 153.401L244.362 147.247H245.6L246.806 151.767H246.866L248.076 147.247H249.314L250.516 151.746H250.576L251.775 147.247H253.013L251.206 153.401H249.983L248.733 148.958H248.641L247.391 153.401H246.173Z" fill="#5E2A8C"/>
</g>
<rect x="20.8203" y="28.8193" width="266" height="149.299" rx="10.1716" stroke="#E5E7EB"/>
</g>
<path d="M26.1179 213.198H27.7884L28.7777 214.48L29.4837 215.316L31.179 217.493H29.3892L28.2358 216.032L27.7436 215.335L26.1179 213.198ZM31.4226 211.527C31.4226 212.624 31.2171 213.564 30.8061 214.346C30.3984 215.125 29.8416 215.722 29.1357 216.136C28.433 216.55 27.6359 216.757 26.7443 216.757C25.8527 216.757 25.054 216.55 24.348 216.136C23.6454 215.718 23.0885 215.12 22.6776 214.341C22.2699 213.559 22.0661 212.621 22.0661 211.527C22.0661 210.43 22.2699 209.492 22.6776 208.713C23.0885 207.931 23.6454 207.333 24.348 206.919C25.054 206.504 25.8527 206.297 26.7443 206.297C27.6359 206.297 28.433 206.504 29.1357 206.919C29.8416 207.333 30.3984 207.931 30.8061 208.713C31.2171 209.492 31.4226 210.43 31.4226 211.527ZM29.5682 211.527C29.5682 210.755 29.4472 210.104 29.2053 209.573C28.9666 209.04 28.6352 208.637 28.2109 208.365C27.7867 208.09 27.2978 207.953 26.7443 207.953C26.1908 207.953 25.7019 208.09 25.2777 208.365C24.8535 208.637 24.5204 209.04 24.2784 209.573C24.0398 210.104 23.9205 210.755 23.9205 211.527C23.9205 212.3 24.0398 212.952 24.2784 213.486C24.5204 214.016 24.8535 214.419 25.2777 214.694C25.7019 214.966 26.1908 215.102 26.7443 215.102C27.2978 215.102 27.7867 214.966 28.2109 214.694C28.6352 214.419 28.9666 214.016 29.2053 213.486C29.4472 212.952 29.5682 212.3 29.5682 211.527ZM37.9677 213.407V208.982H39.7674V216.618H38.0224V215.261H37.9428C37.7705 215.688 37.4871 216.038 37.0927 216.31C36.7016 216.582 36.2193 216.718 35.646 216.718C35.1455 216.718 34.703 216.607 34.3185 216.384C33.9374 216.159 33.6391 215.833 33.4237 215.405C33.2082 214.974 33.1005 214.454 33.1005 213.844V208.982H34.9002V213.566C34.9002 214.05 35.0328 214.434 35.2979 214.719C35.5631 215.004 35.9111 215.147 36.342 215.147C36.6071 215.147 36.864 215.082 37.1126 214.953C37.3612 214.823 37.565 214.631 37.7241 214.376C37.8865 214.117 37.9677 213.794 37.9677 213.407ZM41.6181 216.618V208.982H43.4178V216.618H41.6181ZM42.5229 207.898C42.2379 207.898 41.9926 207.804 41.7871 207.615C41.5816 207.422 41.4789 207.192 41.4789 206.924C41.4789 206.652 41.5816 206.421 41.7871 206.233C41.9926 206.04 42.2379 205.944 42.5229 205.944C42.8113 205.944 43.0565 206.04 43.2587 206.233C43.4642 206.421 43.5669 206.652 43.5669 206.924C43.5669 207.192 43.4642 207.422 43.2587 207.615C43.0565 207.804 42.8113 207.898 42.5229 207.898ZM48.5994 216.767C47.8371 216.767 47.1825 216.6 46.6357 216.265C46.0921 215.93 45.6728 215.468 45.3778 214.878C45.0862 214.285 44.9403 213.602 44.9403 212.83C44.9403 212.054 45.0895 211.37 45.3878 210.777C45.6861 210.18 46.107 209.716 46.6506 209.384C47.1974 209.05 47.8438 208.882 48.5895 208.882C49.2093 208.882 49.7578 208.997 50.2351 209.225C50.7157 209.451 51.0985 209.771 51.3835 210.185C51.6686 210.596 51.831 211.076 51.8707 211.627H50.1506C50.081 211.259 49.9152 210.952 49.6534 210.707C49.3949 210.458 49.0485 210.334 48.6143 210.334C48.2464 210.334 47.9233 210.434 47.6449 210.632C47.3665 210.828 47.1494 211.11 46.9936 211.478C46.8411 211.845 46.7649 212.286 46.7649 212.8C46.7649 213.32 46.8411 213.768 46.9936 214.142C47.1461 214.514 47.3598 214.8 47.6349 215.002C47.9134 215.201 48.2398 215.301 48.6143 215.301C48.8795 215.301 49.1165 215.251 49.3253 215.152C49.5374 215.049 49.7147 214.901 49.8572 214.709C49.9998 214.517 50.0975 214.283 50.1506 214.008H51.8707C51.8277 214.548 51.6686 215.027 51.3935 215.445C51.1184 215.859 50.7438 216.184 50.2699 216.419C49.7959 216.651 49.2391 216.767 48.5994 216.767ZM54.9892 214.222L54.9842 212.049H55.2725L58.0169 208.982H60.1199L56.7441 212.74H56.3713L54.9892 214.222ZM53.3485 216.618V206.436H55.1483V216.618H53.3485ZM58.1412 216.618L55.6554 213.143L56.8684 211.875L60.2939 216.618H58.1412ZM66.9893 216.772C66.5054 216.772 66.0696 216.686 65.6818 216.514C65.2973 216.338 64.9924 216.08 64.767 215.738C64.545 215.397 64.4339 214.976 64.4339 214.475C64.4339 214.045 64.5135 213.688 64.6726 213.407C64.8317 213.125 65.0488 212.899 65.3239 212.73C65.599 212.561 65.9089 212.434 66.2536 212.348C66.6016 212.258 66.9612 212.193 67.3324 212.154C67.7798 212.107 68.1428 212.066 68.4212 212.029C68.6996 211.99 68.9018 211.93 69.0277 211.85C69.157 211.768 69.2216 211.64 69.2216 211.468V211.438C69.2216 211.063 69.1106 210.773 68.8885 210.568C68.6664 210.362 68.3466 210.259 67.929 210.259C67.4882 210.259 67.1385 210.356 66.88 210.548C66.6248 210.74 66.4524 210.967 66.3629 211.229L64.6825 210.99C64.8151 210.526 65.0339 210.139 65.3388 209.827C65.6437 209.512 66.0166 209.277 66.4574 209.121C66.8982 208.962 67.3854 208.882 67.919 208.882C68.2869 208.882 68.6532 208.925 69.0178 209.012C69.3823 209.098 69.7154 209.24 70.017 209.439C70.3187 209.635 70.5606 209.902 70.7429 210.24C70.9285 210.578 71.0213 211 71.0213 211.507V216.618H69.2912V215.569H69.2315C69.1222 215.781 68.968 215.98 68.7692 216.166C68.5736 216.348 68.3267 216.496 68.0284 216.608C67.7334 216.718 67.3871 216.772 66.9893 216.772ZM67.4567 215.45C67.8179 215.45 68.1312 215.379 68.3963 215.236C68.6615 215.09 68.8653 214.898 69.0078 214.659C69.1536 214.421 69.2266 214.161 69.2266 213.879V212.979C69.1702 213.025 69.0741 213.068 68.9382 213.108C68.8056 213.148 68.6565 213.183 68.4908 213.213C68.325 213.242 68.161 213.269 67.9986 213.292C67.8362 213.315 67.6953 213.335 67.576 213.352C67.3075 213.388 67.0672 213.448 66.8551 213.531C66.643 213.614 66.4756 213.73 66.353 213.879C66.2304 214.025 66.169 214.214 66.169 214.446C66.169 214.777 66.29 215.027 66.532 215.196C66.7739 215.365 67.0821 215.45 67.4567 215.45ZM76.1619 216.767C75.3996 216.767 74.745 216.6 74.1982 216.265C73.6546 215.93 73.2353 215.468 72.9403 214.878C72.6487 214.285 72.5028 213.602 72.5028 212.83C72.5028 212.054 72.652 211.37 72.9503 210.777C73.2486 210.18 73.6695 209.716 74.2131 209.384C74.7599 209.05 75.4063 208.882 76.152 208.882C76.7718 208.882 77.3203 208.997 77.7976 209.225C78.2782 209.451 78.661 209.771 78.946 210.185C79.2311 210.596 79.3935 211.076 79.4332 211.627H77.7131C77.6435 211.259 77.4777 210.952 77.2159 210.707C76.9574 210.458 76.611 210.334 76.1768 210.334C75.8089 210.334 75.4858 210.434 75.2074 210.632C74.929 210.828 74.7119 211.11 74.5561 211.478C74.4036 211.845 74.3274 212.286 74.3274 212.8C74.3274 213.32 74.4036 213.768 74.5561 214.142C74.7086 214.514 74.9223 214.8 75.1974 215.002C75.4759 215.201 75.8023 215.301 76.1768 215.301C76.442 215.301 76.679 215.251 76.8878 215.152C77.0999 215.049 77.2772 214.901 77.4197 214.709C77.5623 214.517 77.66 214.283 77.7131 214.008H79.4332C79.3902 214.548 79.2311 215.027 78.956 215.445C78.6809 215.859 78.3063 216.184 77.8324 216.419C77.3584 216.651 76.8016 216.767 76.1619 216.767ZM84.7243 208.982V210.374H80.3343V208.982H84.7243ZM81.4181 207.152H83.2179V214.321C83.2179 214.563 83.2543 214.749 83.3272 214.878C83.4035 215.004 83.5029 215.09 83.6255 215.137C83.7482 215.183 83.8841 215.206 84.0332 215.206C84.1459 215.206 84.2486 215.198 84.3414 215.181C84.4376 215.165 84.5105 215.15 84.5602 215.137L84.8635 216.544C84.7673 216.577 84.6298 216.613 84.4508 216.653C84.2752 216.693 84.0597 216.716 83.8045 216.723C83.3538 216.736 82.9477 216.668 82.5865 216.519C82.2252 216.366 81.9385 216.131 81.7264 215.813C81.5176 215.495 81.4148 215.097 81.4181 214.62V207.152ZM86.2294 216.618V208.982H88.0291V216.618H86.2294ZM87.1342 207.898C86.8492 207.898 86.6039 207.804 86.3984 207.615C86.1929 207.422 86.0902 207.192 86.0902 206.924C86.0902 206.652 86.1929 206.421 86.3984 206.233C86.6039 206.04 86.8492 205.944 87.1342 205.944C87.4226 205.944 87.6679 206.04 87.87 206.233C88.0755 206.421 88.1783 206.652 88.1783 206.924C88.1783 207.192 88.0755 207.422 87.87 207.615C87.6679 207.804 87.4226 207.898 87.1342 207.898ZM93.2108 216.767C92.465 216.767 91.8187 216.603 91.2718 216.275C90.725 215.947 90.3007 215.488 89.9991 214.898C89.7008 214.308 89.5517 213.619 89.5517 212.83C89.5517 212.041 89.7008 211.35 89.9991 210.757C90.3007 210.163 90.725 209.703 91.2718 209.375C91.8187 209.046 92.465 208.882 93.2108 208.882C93.9565 208.882 94.6028 209.046 95.1497 209.375C95.6966 209.703 96.1191 210.163 96.4174 210.757C96.719 211.35 96.8699 212.041 96.8699 212.83C96.8699 213.619 96.719 214.308 96.4174 214.898C96.1191 215.488 95.6966 215.947 95.1497 216.275C94.6028 216.603 93.9565 216.767 93.2108 216.767ZM93.2207 215.326C93.6251 215.326 93.9631 215.215 94.2349 214.992C94.5067 214.767 94.7089 214.465 94.8414 214.088C94.9773 213.71 95.0453 213.289 95.0453 212.825C95.0453 212.358 94.9773 211.935 94.8414 211.557C94.7089 211.176 94.5067 210.873 94.2349 210.647C93.9631 210.422 93.6251 210.309 93.2207 210.309C92.8064 210.309 92.4617 210.422 92.1866 210.647C91.9148 210.873 91.711 211.176 91.5751 211.557C91.4425 211.935 91.3762 212.358 91.3762 212.825C91.3762 213.289 91.4425 213.71 91.5751 214.088C91.711 214.465 91.9148 214.767 92.1866 214.992C92.4617 215.215 92.8064 215.326 93.2207 215.326ZM100.197 212.144V216.618H98.3974V208.982H100.118V210.279H100.207C100.383 209.852 100.663 209.512 101.047 209.26C101.435 209.008 101.914 208.882 102.484 208.882C103.011 208.882 103.47 208.995 103.861 209.22C104.256 209.446 104.56 209.772 104.776 210.2C104.995 210.627 105.102 211.146 105.099 211.756V216.618H103.299V212.034C103.299 211.524 103.167 211.125 102.902 210.836C102.64 210.548 102.277 210.404 101.813 210.404C101.498 210.404 101.218 210.473 100.973 210.612C100.731 210.748 100.54 210.946 100.401 211.204C100.265 211.463 100.197 211.776 100.197 212.144ZM112.964 211L111.324 211.179C111.277 211.014 111.196 210.858 111.08 210.712C110.967 210.566 110.815 210.448 110.623 210.359C110.43 210.269 110.195 210.225 109.917 210.225C109.542 210.225 109.227 210.306 108.972 210.468C108.72 210.631 108.596 210.841 108.599 211.1C108.596 211.322 108.677 211.502 108.843 211.642C109.012 211.781 109.29 211.895 109.678 211.985L110.98 212.263C111.703 212.419 112.24 212.666 112.591 213.004C112.946 213.342 113.125 213.784 113.128 214.331C113.125 214.812 112.984 215.236 112.706 215.604C112.431 215.969 112.048 216.254 111.557 216.459C111.067 216.665 110.503 216.767 109.867 216.767C108.932 216.767 108.18 216.572 107.61 216.181C107.04 215.786 106.7 215.238 106.591 214.535L108.346 214.366C108.425 214.711 108.594 214.971 108.853 215.147C109.111 215.322 109.448 215.41 109.862 215.41C110.289 215.41 110.632 215.322 110.891 215.147C111.153 214.971 111.284 214.754 111.284 214.495C111.284 214.277 111.199 214.096 111.03 213.953C110.864 213.811 110.606 213.701 110.255 213.625L108.952 213.352C108.22 213.199 107.678 212.943 107.326 212.581C106.975 212.217 106.801 211.756 106.804 211.199C106.801 210.728 106.929 210.321 107.187 209.976C107.449 209.628 107.812 209.36 108.276 209.171C108.743 208.978 109.282 208.882 109.892 208.882C110.787 208.882 111.491 209.073 112.005 209.454C112.522 209.835 112.842 210.351 112.964 211Z" fill="#18181B"/>
<g filter="url(#filter1_d_2792_155915)">
<rect x="21.3203" y="229.618" width="265" height="88" rx="12" fill="white"/>
<rect x="21.0703" y="229.368" width="265.5" height="88.5" rx="12.25" stroke="#18181B" stroke-opacity="0.06" stroke-width="0.5"/>
<path d="M73.5278 253.911L68.5278 248.911C68.4349 248.818 68.3246 248.744 68.2032 248.694C68.0818 248.644 67.9517 248.618 67.8203 248.618H57.8203C57.2899 248.618 56.7812 248.829 56.4061 249.204C56.031 249.579 55.8203 250.088 55.8203 250.618V252.618H53.8203C53.2899 252.618 52.7812 252.829 52.4061 253.204C52.031 253.579 51.8203 254.088 51.8203 254.618V272.618C51.8203 273.149 52.031 273.657 52.4061 274.032C52.7812 274.407 53.2899 274.618 53.8203 274.618H67.8203C68.3507 274.618 68.8595 274.407 69.2345 274.032C69.6096 273.657 69.8203 273.149 69.8203 272.618V270.618H71.8203C72.3507 270.618 72.8595 270.407 73.2345 270.032C73.6096 269.657 73.8203 269.149 73.8203 268.618V254.618C73.8204 254.487 73.7946 254.357 73.7444 254.235C73.6943 254.114 73.6206 254.004 73.5278 253.911ZM63.8203 269.618H57.8203C57.5551 269.618 57.3007 269.513 57.1132 269.325C56.9257 269.138 56.8203 268.883 56.8203 268.618C56.8203 268.353 56.9257 268.099 57.1132 267.911C57.3007 267.724 57.5551 267.618 57.8203 267.618H63.8203C64.0855 267.618 64.3399 267.724 64.5274 267.911C64.715 268.099 64.8203 268.353 64.8203 268.618C64.8203 268.883 64.715 269.138 64.5274 269.325C64.3399 269.513 64.0855 269.618 63.8203 269.618ZM63.8203 265.618H57.8203C57.5551 265.618 57.3007 265.513 57.1132 265.325C56.9257 265.138 56.8203 264.883 56.8203 264.618C56.8203 264.353 56.9257 264.099 57.1132 263.911C57.3007 263.724 57.5551 263.618 57.8203 263.618H63.8203C64.0855 263.618 64.3399 263.724 64.5274 263.911C64.715 264.099 64.8203 264.353 64.8203 264.618C64.8203 264.883 64.715 265.138 64.5274 265.325C64.3399 265.513 64.0855 265.618 63.8203 265.618ZM71.8203 268.618H69.8203V258.618C69.8204 258.487 69.7946 258.357 69.7444 258.235C69.6943 258.114 69.6206 258.004 69.5278 257.911L64.5278 252.911C64.4349 252.818 64.3246 252.744 64.2032 252.694C64.0818 252.644 63.9517 252.618 63.8203 252.618H57.8203V250.618H67.4066L71.8203 255.032V268.618Z" fill="#5E2A8C"/>
<path d="M45.5277 291.729H44.1982C44.147 291.445 44.0518 291.195 43.9126 290.979C43.7734 290.763 43.603 290.58 43.4013 290.429C43.1996 290.279 42.9737 290.165 42.7237 290.088C42.4766 290.012 42.2138 289.973 41.9354 289.973C41.4325 289.973 40.9822 290.1 40.5845 290.353C40.1896 290.605 39.8771 290.976 39.647 291.465C39.4197 291.953 39.3061 292.55 39.3061 293.255C39.3061 293.965 39.4197 294.564 39.647 295.053C39.8771 295.541 40.1911 295.911 40.5888 296.161C40.9865 296.411 41.4339 296.536 41.9311 296.536C42.2067 296.536 42.468 296.499 42.7152 296.425C42.9652 296.348 43.1911 296.236 43.3928 296.088C43.5945 295.941 43.7649 295.76 43.9041 295.547C44.0462 295.331 44.1442 295.084 44.1982 294.806L45.5277 294.81C45.4567 295.239 45.3189 295.634 45.1143 295.995C44.9126 296.353 44.6527 296.662 44.3345 296.924C44.0192 297.182 43.6584 297.382 43.2521 297.524C42.8459 297.666 42.4027 297.737 41.9226 297.737C41.1669 297.737 40.4936 297.559 39.9027 297.201C39.3118 296.84 38.8459 296.324 38.505 295.654C38.1669 294.983 37.9979 294.184 37.9979 293.255C37.9979 292.323 38.1683 291.523 38.5092 290.855C38.8501 290.185 39.3161 289.671 39.907 289.313C40.4979 288.952 41.1697 288.772 41.9226 288.772C42.3857 288.772 42.8175 288.838 43.218 288.972C43.6214 289.103 43.9837 289.296 44.3047 289.551C44.6257 289.804 44.8913 290.114 45.1016 290.48C45.3118 290.844 45.4538 291.26 45.5277 291.729ZM49.7582 297.75C49.1445 297.75 48.609 297.61 48.1516 297.328C47.6942 297.047 47.3391 296.654 47.0863 296.148C46.8335 295.642 46.707 295.051 46.707 294.375C46.707 293.696 46.8335 293.103 47.0863 292.594C47.3391 292.085 47.6942 291.691 48.1516 291.409C48.609 291.128 49.1445 290.987 49.7582 290.987C50.3718 290.987 50.9073 291.128 51.3647 291.409C51.8221 291.691 52.1772 292.085 52.43 292.594C52.6829 293.103 52.8093 293.696 52.8093 294.375C52.8093 295.051 52.6829 295.642 52.43 296.148C52.1772 296.654 51.8221 297.047 51.3647 297.328C50.9073 297.61 50.3718 297.75 49.7582 297.75ZM49.7624 296.681C50.1602 296.681 50.4897 296.576 50.7511 296.365C51.0124 296.155 51.2056 295.875 51.3306 295.526C51.4585 295.176 51.5224 294.791 51.5224 294.371C51.5224 293.953 51.4585 293.57 51.3306 293.22C51.2056 292.868 51.0124 292.585 50.7511 292.372C50.4897 292.159 50.1602 292.053 49.7624 292.053C49.3619 292.053 49.0295 292.159 48.7653 292.372C48.5039 292.585 48.3093 292.868 48.1815 293.22C48.0565 293.57 47.994 293.953 47.994 294.371C47.994 294.791 48.0565 295.176 48.1815 295.526C48.3093 295.875 48.5039 296.155 48.7653 296.365C49.0295 296.576 49.3619 296.681 49.7624 296.681ZM55.5057 293.732V297.618H54.2315V291.073H55.4545V292.138H55.5355C55.6861 291.791 55.9219 291.513 56.2429 291.303C56.5668 291.093 56.9744 290.987 57.4659 290.987C57.9119 290.987 58.3026 291.081 58.6378 291.269C58.973 291.453 59.233 291.729 59.4176 292.095C59.6023 292.462 59.6946 292.915 59.6946 293.455V297.618H58.4205V293.608C58.4205 293.134 58.2969 292.763 58.0497 292.496C57.8026 292.226 57.4631 292.091 57.0312 292.091C56.7358 292.091 56.473 292.155 56.2429 292.283C56.0156 292.411 55.8352 292.598 55.7017 292.845C55.571 293.09 55.5057 293.385 55.5057 293.732ZM64.4588 291.073V292.095H60.8835V291.073H64.4588ZM61.8423 289.505H63.1165V295.696C63.1165 295.943 63.1534 296.13 63.2273 296.255C63.3011 296.377 63.3963 296.46 63.5128 296.506C63.6321 296.549 63.7614 296.57 63.9006 296.57C64.0028 296.57 64.0923 296.563 64.169 296.549C64.2457 296.534 64.3054 296.523 64.348 296.514L64.5781 297.567C64.5043 297.595 64.3991 297.624 64.2628 297.652C64.1264 297.684 63.956 297.701 63.7514 297.703C63.4162 297.709 63.1037 297.649 62.8139 297.524C62.5241 297.399 62.2898 297.206 62.1108 296.945C61.9318 296.684 61.8423 296.355 61.8423 295.96V289.505ZM65.8683 297.618V291.073H67.0998V292.112H67.168C67.2873 291.76 67.4975 291.483 67.7987 291.282C68.1026 291.077 68.4464 290.975 68.8299 290.975C68.9094 290.975 69.0032 290.978 69.1112 290.983C69.2219 290.989 69.3086 290.996 69.3711 291.005V292.223C69.32 292.209 69.229 292.193 69.0984 292.176C68.9677 292.157 68.837 292.147 68.7063 292.147C68.4052 292.147 68.1367 292.21 67.9009 292.338C67.668 292.463 67.4833 292.638 67.3469 292.862C67.2106 293.084 67.1424 293.337 67.1424 293.621V297.618H65.8683ZM72.32 297.763C71.9052 297.763 71.5302 297.686 71.195 297.533C70.8597 297.377 70.5941 297.151 70.3981 296.855C70.2049 296.56 70.1083 296.198 70.1083 295.769C70.1083 295.399 70.1793 295.095 70.3214 294.857C70.4634 294.618 70.6552 294.429 70.8967 294.29C71.1381 294.151 71.408 294.046 71.7063 293.975C72.0046 293.904 72.3086 293.85 72.6183 293.813C73.0103 293.767 73.3285 293.73 73.5728 293.702C73.8171 293.671 73.9947 293.621 74.1055 293.553C74.2163 293.485 74.2717 293.374 74.2717 293.22V293.191C74.2717 292.818 74.1665 292.53 73.9563 292.326C73.7489 292.121 73.4393 292.019 73.0273 292.019C72.5984 292.019 72.2603 292.114 72.0131 292.304C71.7688 292.492 71.5998 292.701 71.506 292.931L70.3086 292.658C70.4506 292.26 70.658 291.939 70.9308 291.695C71.2063 291.448 71.5231 291.269 71.881 291.158C72.239 291.044 72.6154 290.987 73.0103 290.987C73.2717 290.987 73.5487 291.019 73.8413 291.081C74.1367 291.141 74.4123 291.252 74.668 291.414C74.9265 291.576 75.1381 291.807 75.3029 292.108C75.4677 292.407 75.5501 292.794 75.5501 293.272V297.618H74.3058V296.723H74.2546C74.1722 296.888 74.0487 297.05 73.8839 297.209C73.7191 297.368 73.5075 297.5 73.2489 297.605C72.9904 297.71 72.6808 297.763 72.32 297.763ZM72.5969 296.74C72.9492 296.74 73.2504 296.671 73.5004 296.532C73.7532 296.392 73.945 296.21 74.0756 295.986C74.2092 295.759 74.2759 295.516 74.2759 295.257V294.414C74.2305 294.459 74.1424 294.502 74.0117 294.541C73.8839 294.578 73.7376 294.611 73.5728 294.639C73.408 294.665 73.2475 294.689 73.0913 294.712C72.935 294.732 72.8043 294.749 72.6992 294.763C72.4521 294.794 72.2262 294.847 72.0217 294.921C71.82 294.995 71.658 295.101 71.5359 295.24C71.4165 295.377 71.3569 295.559 71.3569 295.786C71.3569 296.101 71.4734 296.34 71.7063 296.502C71.9393 296.661 72.2362 296.74 72.5969 296.74ZM80.0043 297.75C79.3707 297.75 78.8253 297.607 78.3679 297.32C77.9134 297.03 77.5639 296.631 77.3196 296.122C77.0753 295.614 76.9531 295.032 76.9531 294.375C76.9531 293.71 77.0781 293.124 77.3281 292.615C77.5781 292.104 77.9304 291.705 78.3849 291.418C78.8395 291.131 79.375 290.987 79.9915 290.987C80.4886 290.987 80.9318 291.08 81.321 291.264C81.7102 291.446 82.0241 291.702 82.2628 292.032C82.5043 292.361 82.6477 292.746 82.6932 293.186H81.4531C81.3849 292.88 81.2287 292.615 80.9844 292.394C80.7429 292.172 80.419 292.061 80.0128 292.061C79.6577 292.061 79.3466 292.155 79.0795 292.343C78.8153 292.527 78.6094 292.791 78.4616 293.135C78.3139 293.476 78.2401 293.88 78.2401 294.345C78.2401 294.823 78.3125 295.235 78.4574 295.581C78.6023 295.928 78.8068 296.196 79.071 296.387C79.3381 296.577 79.652 296.672 80.0128 296.672C80.2543 296.672 80.473 296.628 80.669 296.54C80.8679 296.449 81.0341 296.32 81.1676 296.152C81.304 295.985 81.3991 295.783 81.4531 295.547H82.6932C82.6477 295.97 82.5099 296.348 82.2798 296.681C82.0497 297.013 81.7415 297.274 81.3551 297.465C80.9716 297.655 80.5213 297.75 80.0043 297.75ZM87.1112 291.073V292.095H83.5359V291.073H87.1112ZM84.4947 289.505H85.7688V295.696C85.7688 295.943 85.8058 296.13 85.8796 296.255C85.9535 296.377 86.0487 296.46 86.1651 296.506C86.2844 296.549 86.4137 296.57 86.5529 296.57C86.6552 296.57 86.7447 296.563 86.8214 296.549C86.8981 296.534 86.9577 296.523 87.0004 296.514L87.2305 297.567C87.1566 297.595 87.0515 297.624 86.9151 297.652C86.7788 297.684 86.6083 297.701 86.4038 297.703C86.0685 297.709 85.756 297.649 85.4663 297.524C85.1765 297.399 84.9421 297.206 84.7631 296.945C84.5842 296.684 84.4947 296.355 84.4947 295.96V289.505Z" fill="#71717A"/>
<line x1="108.82" y1="253.618" x2="108.82" y2="293.618" stroke="#18181B" stroke-opacity="0.06"/>
<path d="M141.32 261.618C141.055 261.618 140.801 261.513 140.613 261.325C140.426 261.138 140.32 260.883 140.32 260.618C140.32 260.353 140.426 260.099 140.613 259.911C140.801 259.724 141.055 259.618 141.32 259.618H144.82C145.086 259.618 145.34 259.513 145.527 259.325C145.715 259.138 145.82 258.883 145.82 258.618C145.82 258.353 145.715 258.099 145.527 257.911C145.34 257.724 145.086 257.618 144.82 257.618H142.82C142.025 257.618 141.262 257.302 140.699 256.739C140.136 256.177 139.82 255.414 139.82 254.618C139.82 253.823 140.136 253.059 140.699 252.497C141.262 251.934 142.025 251.618 142.82 251.618C142.82 251.353 142.926 251.099 143.113 250.911C143.301 250.724 143.555 250.618 143.82 250.618C144.086 250.618 144.34 250.724 144.527 250.911C144.715 251.099 144.82 251.353 144.82 251.618H145.82C146.086 251.618 146.34 251.724 146.527 251.911C146.715 252.099 146.82 252.353 146.82 252.618C146.82 252.883 146.715 253.138 146.527 253.325C146.34 253.513 146.086 253.618 145.82 253.618H142.82C142.555 253.618 142.301 253.724 142.113 253.911C141.926 254.099 141.82 254.353 141.82 254.618C141.82 254.883 141.926 255.138 142.113 255.325C142.301 255.513 142.555 255.618 142.82 255.618H144.82C145.616 255.618 146.379 255.934 146.942 256.497C147.504 257.059 147.82 257.823 147.82 258.618C147.82 259.414 147.504 260.177 146.942 260.739C146.379 261.302 145.616 261.618 144.82 261.618C144.82 261.883 144.715 262.138 144.527 262.325C144.34 262.513 144.086 262.618 143.82 262.618C143.555 262.618 143.301 262.513 143.113 262.325C142.926 262.138 142.82 261.883 142.82 261.618H141.32ZM165.82 251.618H149.82C149.555 251.618 149.301 251.724 149.113 251.911C148.926 252.099 148.82 252.353 148.82 252.618C148.82 252.883 148.926 253.138 149.113 253.325C149.301 253.513 149.555 253.618 149.82 253.618H164.82V257.618H150.82C150.555 257.618 150.301 257.724 150.113 257.911C149.926 258.099 149.82 258.353 149.82 258.618C149.82 258.883 149.926 259.138 150.113 259.325C150.301 259.513 150.555 259.618 150.82 259.618H157.82V263.618H147.82C147.555 263.618 147.301 263.724 147.113 263.911C146.926 264.099 146.82 264.353 146.82 264.618C146.82 264.883 146.926 265.138 147.113 265.325C147.301 265.513 147.555 265.618 147.82 265.618H157.82V269.618H142.82V264.618C142.82 264.353 142.715 264.099 142.527 263.911C142.34 263.724 142.086 263.618 141.82 263.618C141.555 263.618 141.301 263.724 141.113 263.911C140.926 264.099 140.82 264.353 140.82 264.618V269.618C140.82 270.149 141.031 270.657 141.406 271.032C141.781 271.407 142.29 271.618 142.82 271.618H164.82C165.351 271.618 165.859 271.407 166.235 271.032C166.61 270.657 166.82 270.149 166.82 269.618V252.618C166.82 252.353 166.715 252.099 166.527 251.911C166.34 251.724 166.086 251.618 165.82 251.618Z" fill="#EA580C"/>
<path d="M135.596 288.891V297.618H134.279V288.891H135.596ZM138.685 293.732V297.618H137.411V291.073H138.634V292.138H138.715C138.866 291.791 139.102 291.513 139.423 291.303C139.746 291.093 140.154 290.987 140.646 290.987C141.092 290.987 141.482 291.081 141.817 291.269C142.153 291.453 142.413 291.729 142.597 292.095C142.782 292.462 142.874 292.915 142.874 293.455V297.618H141.6V293.608C141.6 293.134 141.477 292.763 141.229 292.496C140.982 292.226 140.643 292.091 140.211 292.091C139.915 292.091 139.653 292.155 139.423 292.283C139.195 292.411 139.015 292.598 138.881 292.845C138.751 293.09 138.685 293.385 138.685 293.732ZM149.948 291.073L147.575 297.618H146.211L143.833 291.073H145.201L146.859 296.11H146.927L148.58 291.073H149.948ZM153.68 297.75C153.066 297.75 152.531 297.61 152.074 297.328C151.616 297.047 151.261 296.654 151.008 296.148C150.755 295.642 150.629 295.051 150.629 294.375C150.629 293.696 150.755 293.103 151.008 292.594C151.261 292.085 151.616 291.691 152.074 291.409C152.531 291.128 153.066 290.987 153.68 290.987C154.294 290.987 154.829 291.128 155.287 291.409C155.744 291.691 156.099 292.085 156.352 292.594C156.605 293.103 156.731 293.696 156.731 294.375C156.731 295.051 156.605 295.642 156.352 296.148C156.099 296.654 155.744 297.047 155.287 297.328C154.829 297.61 154.294 297.75 153.68 297.75ZM153.684 296.681C154.082 296.681 154.412 296.576 154.673 296.365C154.934 296.155 155.127 295.875 155.252 295.526C155.38 295.176 155.444 294.791 155.444 294.371C155.444 293.953 155.38 293.57 155.252 293.22C155.127 292.868 154.934 292.585 154.673 292.372C154.412 292.159 154.082 292.053 153.684 292.053C153.284 292.053 152.951 292.159 152.687 292.372C152.426 292.585 152.231 292.868 152.103 293.22C151.978 293.57 151.916 293.953 151.916 294.371C151.916 294.791 151.978 295.176 152.103 295.526C152.231 295.875 152.426 296.155 152.687 296.365C152.951 296.576 153.284 296.681 153.684 296.681ZM158.153 297.618V291.073H159.428V297.618H158.153ZM158.797 290.063C158.575 290.063 158.385 289.989 158.226 289.841C158.07 289.691 157.991 289.512 157.991 289.304C157.991 289.094 158.07 288.915 158.226 288.767C158.385 288.617 158.575 288.541 158.797 288.541C159.018 288.541 159.207 288.617 159.364 288.767C159.523 288.915 159.602 289.094 159.602 289.304C159.602 289.512 159.523 289.691 159.364 289.841C159.207 289.989 159.018 290.063 158.797 290.063ZM163.899 297.75C163.265 297.75 162.72 297.607 162.262 297.32C161.808 297.03 161.458 296.631 161.214 296.122C160.97 295.614 160.848 295.032 160.848 294.375C160.848 293.71 160.973 293.124 161.223 292.615C161.473 292.104 161.825 291.705 162.279 291.418C162.734 291.131 163.27 290.987 163.886 290.987C164.383 290.987 164.826 291.08 165.216 291.264C165.605 291.446 165.919 291.702 166.157 292.032C166.399 292.361 166.542 292.746 166.588 293.186H165.348C165.279 292.88 165.123 292.615 164.879 292.394C164.637 292.172 164.314 292.061 163.907 292.061C163.552 292.061 163.241 292.155 162.974 292.343C162.71 292.527 162.504 292.791 162.356 293.135C162.208 293.476 162.135 293.88 162.135 294.345C162.135 294.823 162.207 295.235 162.352 295.581C162.497 295.928 162.701 296.196 162.966 296.387C163.233 296.577 163.547 296.672 163.907 296.672C164.149 296.672 164.368 296.628 164.564 296.54C164.762 296.449 164.929 296.32 165.062 296.152C165.199 295.985 165.294 295.783 165.348 295.547H166.588C166.542 295.97 166.404 296.348 166.174 296.681C165.944 297.013 165.636 297.274 165.25 297.465C164.866 297.655 164.416 297.75 163.899 297.75ZM170.771 297.75C170.126 297.75 169.571 297.612 169.105 297.337C168.642 297.059 168.284 296.668 168.031 296.165C167.781 295.659 167.656 295.067 167.656 294.388C167.656 293.718 167.781 293.127 168.031 292.615C168.284 292.104 168.636 291.705 169.088 291.418C169.543 291.131 170.074 290.987 170.682 290.987C171.051 290.987 171.409 291.049 171.756 291.171C172.102 291.293 172.413 291.485 172.689 291.746C172.964 292.007 173.182 292.347 173.341 292.764C173.5 293.179 173.58 293.684 173.58 294.277V294.729H168.376V293.774H172.331C172.331 293.439 172.263 293.142 172.126 292.884C171.99 292.622 171.798 292.416 171.551 292.266C171.307 292.115 171.02 292.04 170.69 292.04C170.332 292.04 170.02 292.128 169.753 292.304C169.489 292.478 169.284 292.705 169.139 292.986C168.997 293.264 168.926 293.567 168.926 293.894V294.639C168.926 295.077 169.003 295.449 169.156 295.756C169.312 296.063 169.53 296.297 169.808 296.459C170.087 296.618 170.412 296.698 170.784 296.698C171.026 296.698 171.246 296.664 171.445 296.595C171.643 296.524 171.815 296.419 171.96 296.28C172.105 296.141 172.216 295.969 172.293 295.764L173.499 295.982C173.402 296.337 173.229 296.648 172.979 296.915C172.732 297.179 172.42 297.385 172.045 297.533C171.673 297.678 171.249 297.75 170.771 297.75Z" fill="#71717A"/>
<line x1="199.82" y1="253.618" x2="199.82" y2="293.618" stroke="#18181B" stroke-opacity="0.06"/>
<path d="M244.832 252.79C244.888 252.014 245.144 251.266 245.575 250.618C246.007 249.971 246.599 249.447 247.294 249.096C247.988 248.746 248.762 248.582 249.539 248.62C250.316 248.658 251.071 248.896 251.728 249.313C251.803 249.362 251.863 249.43 251.903 249.511C251.943 249.592 251.96 249.681 251.952 249.771C251.945 249.86 251.914 249.946 251.862 250.02C251.81 250.093 251.74 250.151 251.658 250.188C250.515 250.702 249.545 251.535 248.864 252.587C248.184 253.639 247.821 254.865 247.82 256.118C247.82 256.264 247.82 256.41 247.835 256.554C247.842 256.645 247.824 256.736 247.783 256.817C247.742 256.898 247.679 256.967 247.602 257.015C247.525 257.064 247.436 257.09 247.345 257.092C247.254 257.093 247.164 257.07 247.085 257.024C246.349 256.603 245.746 255.981 245.347 255.232C244.949 254.483 244.77 253.637 244.832 252.79ZM258.82 265.694C258.822 266.265 258.664 266.826 258.363 267.312C258.063 267.798 257.632 268.19 257.12 268.444L257.065 268.469L252.212 270.536C252.164 270.558 252.114 270.574 252.063 270.586L244.063 272.586C243.984 272.607 243.902 272.617 243.82 272.618H230.82C230.29 272.618 229.781 272.407 229.406 272.032C229.031 271.657 228.82 271.148 228.82 270.618V265.618C228.82 265.087 229.031 264.579 229.406 264.203C229.781 263.828 230.29 263.618 230.82 263.618H234.407L237.234 260.789C237.605 260.417 238.046 260.121 238.531 259.92C239.017 259.719 239.537 259.616 240.063 259.618H246.32C246.849 259.618 247.37 259.737 247.845 259.967C248.321 260.197 248.738 260.532 249.066 260.946C249.393 261.361 249.623 261.844 249.738 262.359C249.852 262.875 249.848 263.41 249.727 263.924L254.957 262.721C255.412 262.601 255.889 262.586 256.351 262.679C256.812 262.772 257.247 262.97 257.62 263.257C257.993 263.544 258.296 263.913 258.504 264.336C258.712 264.758 258.82 265.223 258.82 265.694ZM256.82 265.694C256.82 265.529 256.782 265.366 256.709 265.217C256.635 265.069 256.529 264.94 256.397 264.84C256.266 264.739 256.113 264.671 255.951 264.639C255.789 264.607 255.621 264.613 255.462 264.656L255.423 264.666L247.048 266.593C246.974 266.609 246.899 266.617 246.824 266.618H242.82C242.555 266.618 242.301 266.512 242.113 266.325C241.926 266.137 241.82 265.883 241.82 265.618C241.82 265.352 241.926 265.098 242.113 264.911C242.301 264.723 242.555 264.618 242.82 264.618H246.32C246.718 264.618 247.1 264.46 247.381 264.178C247.662 263.897 247.82 263.516 247.82 263.118C247.82 262.72 247.662 262.338 247.381 262.057C247.1 261.776 246.718 261.618 246.32 261.618H240.063C239.8 261.617 239.54 261.668 239.297 261.769C239.054 261.87 238.834 262.017 238.649 262.204L235.82 265.031V270.618H243.695L251.499 268.666L256.249 266.644C256.422 266.553 256.567 266.416 256.667 266.249C256.768 266.081 256.821 265.889 256.82 265.694ZM249.82 256.118C249.82 257.008 250.084 257.878 250.579 258.618C251.073 259.358 251.776 259.935 252.598 260.275C253.421 260.616 254.325 260.705 255.198 260.531C256.071 260.358 256.873 259.929 257.502 259.3C258.132 258.67 258.56 257.869 258.734 256.996C258.907 256.123 258.818 255.218 258.478 254.396C258.137 253.573 257.56 252.871 256.82 252.376C256.08 251.882 255.21 251.618 254.32 251.618C253.127 251.618 251.982 252.092 251.138 252.936C250.294 253.78 249.82 254.924 249.82 256.118Z" fill="#DD2590"/>
<path d="M221.988 294.789H223.283L224.195 295.978L224.626 296.506L226.079 298.402H224.732L223.761 297.137L223.428 296.676L221.988 294.789ZM226.36 293.255C226.36 294.186 226.19 294.987 225.849 295.658C225.508 296.326 225.04 296.84 224.447 297.201C223.856 297.559 223.184 297.737 222.431 297.737C221.675 297.737 221.001 297.559 220.407 297.201C219.816 296.84 219.35 296.324 219.009 295.654C218.668 294.983 218.498 294.184 218.498 293.255C218.498 292.323 218.668 291.523 219.009 290.855C219.35 290.185 219.816 289.671 220.407 289.313C221.001 288.952 221.675 288.772 222.431 288.772C223.184 288.772 223.856 288.952 224.447 289.313C225.04 289.671 225.508 290.185 225.849 290.855C226.19 291.523 226.36 292.323 226.36 293.255ZM225.056 293.255C225.056 292.544 224.941 291.946 224.711 291.46C224.484 290.972 224.171 290.603 223.773 290.353C223.379 290.1 222.931 289.973 222.431 289.973C221.928 289.973 221.479 290.1 221.085 290.353C220.69 290.603 220.377 290.972 220.147 291.46C219.92 291.946 219.806 292.544 219.806 293.255C219.806 293.965 219.92 294.564 220.147 295.053C220.377 295.539 220.69 295.908 221.085 296.161C221.479 296.411 221.928 296.536 222.431 296.536C222.931 296.536 223.379 296.411 223.773 296.161C224.171 295.908 224.484 295.539 224.711 295.053C224.941 294.564 225.056 293.965 225.056 293.255ZM232.046 294.904V291.073H233.324V297.618H232.071V296.485H232.003C231.853 296.834 231.611 297.125 231.279 297.358C230.949 297.588 230.539 297.703 230.047 297.703C229.627 297.703 229.255 297.611 228.931 297.426C228.61 297.239 228.357 296.962 228.172 296.595C227.99 296.229 227.9 295.776 227.9 295.236V291.073H229.174V295.083C229.174 295.529 229.297 295.884 229.544 296.148C229.792 296.412 230.113 296.544 230.507 296.544C230.746 296.544 230.983 296.485 231.219 296.365C231.458 296.246 231.655 296.066 231.811 295.824C231.971 295.583 232.049 295.276 232.046 294.904ZM235.036 297.618V291.073H236.31V297.618H235.036ZM235.68 290.063C235.458 290.063 235.268 289.989 235.109 289.841C234.952 289.691 234.874 289.512 234.874 289.304C234.874 289.094 234.952 288.915 235.109 288.767C235.268 288.617 235.458 288.541 235.68 288.541C235.901 288.541 236.09 288.617 236.246 288.767C236.406 288.915 236.485 289.094 236.485 289.304C236.485 289.512 236.406 289.691 236.246 289.841C236.09 289.989 235.901 290.063 235.68 290.063ZM240.782 297.75C240.148 297.75 239.603 297.607 239.145 297.32C238.691 297.03 238.341 296.631 238.097 296.122C237.853 295.614 237.73 295.032 237.73 294.375C237.73 293.71 237.855 293.124 238.105 292.615C238.355 292.104 238.708 291.705 239.162 291.418C239.617 291.131 240.152 290.987 240.769 290.987C241.266 290.987 241.709 291.08 242.098 291.264C242.488 291.446 242.801 291.702 243.04 292.032C243.282 292.361 243.425 292.746 243.471 293.186H242.23C242.162 292.88 242.006 292.615 241.762 292.394C241.52 292.172 241.196 292.061 240.79 292.061C240.435 292.061 240.124 292.155 239.857 292.343C239.593 292.527 239.387 292.791 239.239 293.135C239.091 293.476 239.017 293.88 239.017 294.345C239.017 294.823 239.09 295.235 239.235 295.581C239.38 295.928 239.584 296.196 239.848 296.387C240.115 296.577 240.429 296.672 240.79 296.672C241.032 296.672 241.25 296.628 241.446 296.54C241.645 296.449 241.811 296.32 241.945 296.152C242.081 295.985 242.176 295.783 242.23 295.547H243.471C243.425 295.97 243.287 296.348 243.057 296.681C242.827 297.013 242.519 297.274 242.132 297.465C241.749 297.655 241.299 297.75 240.782 297.75ZM246.005 295.398L245.996 293.843H246.218L248.826 291.073H250.352L247.377 294.226H247.177L246.005 295.398ZM244.833 297.618V288.891H246.107V297.618H244.833ZM248.967 297.618L246.623 294.507L247.501 293.617L250.531 297.618H248.967ZM251.513 300.073V291.073H252.757V292.134H252.864C252.938 291.997 253.044 291.84 253.183 291.661C253.322 291.482 253.516 291.326 253.763 291.192C254.01 291.056 254.337 290.987 254.743 290.987C255.271 290.987 255.743 291.121 256.158 291.388C256.572 291.655 256.898 292.04 257.134 292.543C257.372 293.046 257.491 293.651 257.491 294.358C257.491 295.066 257.374 295.672 257.138 296.178C256.902 296.681 256.578 297.068 256.166 297.341C255.754 297.611 255.284 297.746 254.756 297.746C254.358 297.746 254.033 297.679 253.78 297.546C253.53 297.412 253.334 297.256 253.192 297.077C253.05 296.898 252.94 296.739 252.864 296.6H252.787V300.073H251.513ZM252.761 294.345C252.761 294.806 252.828 295.209 252.962 295.556C253.095 295.902 253.288 296.174 253.541 296.37C253.794 296.563 254.104 296.659 254.47 296.659C254.851 296.659 255.169 296.559 255.425 296.357C255.68 296.152 255.874 295.875 256.004 295.526C256.138 295.176 256.205 294.783 256.205 294.345C256.205 293.914 256.139 293.526 256.009 293.182C255.881 292.838 255.688 292.567 255.429 292.368C255.173 292.169 254.854 292.07 254.47 292.07C254.101 292.07 253.788 292.165 253.533 292.355C253.28 292.546 253.088 292.811 252.957 293.152C252.827 293.493 252.761 293.891 252.761 294.345ZM260.824 297.763C260.409 297.763 260.034 297.686 259.699 297.533C259.364 297.377 259.098 297.151 258.902 296.855C258.709 296.56 258.612 296.198 258.612 295.769C258.612 295.399 258.683 295.095 258.825 294.857C258.967 294.618 259.159 294.429 259.401 294.29C259.642 294.151 259.912 294.046 260.21 293.975C260.509 293.904 260.813 293.85 261.122 293.813C261.514 293.767 261.832 293.73 262.077 293.702C262.321 293.671 262.499 293.621 262.609 293.553C262.72 293.485 262.776 293.374 262.776 293.22V293.191C262.776 292.818 262.67 292.53 262.46 292.326C262.253 292.121 261.943 292.019 261.531 292.019C261.102 292.019 260.764 292.114 260.517 292.304C260.273 292.492 260.104 292.701 260.01 292.931L258.812 292.658C258.955 292.26 259.162 291.939 259.435 291.695C259.71 291.448 260.027 291.269 260.385 291.158C260.743 291.044 261.119 290.987 261.514 290.987C261.776 290.987 262.053 291.019 262.345 291.081C262.641 291.141 262.916 291.252 263.172 291.414C263.43 291.576 263.642 291.807 263.807 292.108C263.972 292.407 264.054 292.794 264.054 293.272V297.618H262.81V296.723H262.759C262.676 296.888 262.553 297.05 262.388 297.209C262.223 297.368 262.011 297.5 261.753 297.605C261.494 297.71 261.185 297.763 260.824 297.763ZM261.101 296.74C261.453 296.74 261.754 296.671 262.004 296.532C262.257 296.392 262.449 296.21 262.58 295.986C262.713 295.759 262.78 295.516 262.78 295.257V294.414C262.734 294.459 262.646 294.502 262.516 294.541C262.388 294.578 262.241 294.611 262.077 294.639C261.912 294.665 261.751 294.689 261.595 294.712C261.439 294.732 261.308 294.749 261.203 294.763C260.956 294.794 260.73 294.847 260.526 294.921C260.324 294.995 260.162 295.101 260.04 295.24C259.92 295.377 259.861 295.559 259.861 295.786C259.861 296.101 259.977 296.34 260.21 296.502C260.443 296.661 260.74 296.74 261.101 296.74ZM266.322 300.073C266.132 300.073 265.958 300.057 265.802 300.026C265.646 299.997 265.529 299.966 265.453 299.932L265.76 298.888C265.993 298.951 266.2 298.978 266.382 298.969C266.564 298.96 266.724 298.892 266.863 298.764C267.005 298.637 267.13 298.428 267.238 298.138L267.396 297.703L265.001 291.073H266.365L268.022 296.152H268.091L269.748 291.073H271.116L268.419 298.492C268.294 298.833 268.135 299.121 267.941 299.357C267.748 299.595 267.518 299.774 267.251 299.894C266.984 300.013 266.674 300.073 266.322 300.073Z" fill="#71717A"/>
</g>
<defs>
<filter id="filter0_d_2792_155915" x="20.3203" y="28.3193" width="267" height="150.299" filterUnits="userSpaceOnUse" color-interpolation-filters="sRGB">
<feFlood flood-opacity="0" result="BackgroundImageFix"/>
<feColorMatrix in="SourceAlpha" type="matrix" values="0 0 0 0 0 0 0 0 0 0 0 0 0 0 0 0 0 0 127 0" result="hardAlpha"/>
<feMorphology radius="4.02985" operator="erode" in="SourceAlpha" result="effect1_dropShadow_2792_155915"/>
<feOffset dy="0.80597"/>
<feGaussianBlur stdDeviation="0.402985"/>
<feColorMatrix type="matrix" values="0 0 0 0 0 0 0 0 0 0 0 0 0 0 0 0 0 0 0.03 0"/>
<feBlend mode="normal" in2="BackgroundImageFix" result="effect1_dropShadow_2792_155915"/>
<feBlend mode="normal" in="SourceGraphic" in2="effect1_dropShadow_2792_155915" result="shape"/>
</filter>
<filter id="filter1_d_2792_155915" x="20.8203" y="229.118" width="266" height="89" filterUnits="userSpaceOnUse" color-interpolation-filters="sRGB">
<feFlood flood-opacity="0" result="BackgroundImageFix"/>
<feColorMatrix in="SourceAlpha" type="matrix" values="0 0 0 0 0 0 0 0 0 0 0 0 0 0 0 0 0 0 127 0" result="hardAlpha"/>
<feMorphology radius="5" operator="erode" in="SourceAlpha" result="effect1_dropShadow_2792_155915"/>
<feOffset dy="1"/>
<feGaussianBlur stdDeviation="0.5"/>
<feColorMatrix type="matrix" values="0 0 0 0 0 0 0 0 0 0 0 0 0 0 0 0 0 0 0.03 0"/>
<feBlend mode="normal" in2="BackgroundImageFix" result="effect1_dropShadow_2792_155915"/>
<feBlend mode="normal" in="SourceGraphic" in2="effect1_dropShadow_2792_155915" result="shape"/>
</filter>
<clipPath id="clip0_2792_155915">
<rect x="21.3203" y="29.3193" width="265" height="148.299" rx="9.67164" fill="white"/>
</clipPath>
</defs>
</svg>
