<svg width="308" height="263" viewBox="0 0 308 263" fill="none" xmlns="http://www.w3.org/2000/svg">
<rect x="2.66061" y="2.65963" width="302.319" height="329.382" rx="34.6597" fill="white"/>
<rect x="2.66061" y="2.65963" width="302.319" height="329.382" rx="34.6597" stroke="#EDD9FF" stroke-width="5.3194"/>
<path fill-rule="evenodd" clip-rule="evenodd" d="M132.156 14.6285C132.156 13.4044 133.149 12.4121 134.373 12.4121H172.495C173.719 12.4121 174.711 13.4044 174.711 14.6285C174.711 15.8526 173.719 16.8449 172.495 16.8449H134.373C133.149 16.8449 132.156 15.8526 132.156 14.6285Z" fill="#18181B" fill-opacity="0.16"/>
<path d="M29.3741 70.1506C27.7996 70.1506 26.5017 69.7393 25.4803 68.9165C24.4732 68.0938 23.8632 67.0015 23.6505 65.6398L26.3314 64.9802C26.4875 65.888 26.8421 66.5689 27.3953 67.0228C27.9627 67.4767 28.6578 67.7037 29.4805 67.7037C29.9203 67.7037 30.3104 67.6328 30.6508 67.4909C31.0054 67.3349 31.282 67.115 31.4806 66.8313C31.6934 66.5334 31.7998 66.1859 31.7998 65.7887C31.7998 65.4199 31.6934 65.1007 31.4806 64.8312C31.2678 64.5617 30.9416 64.3135 30.5019 64.0865C30.0763 63.8596 29.5373 63.6255 28.8848 63.3844C27.9485 63.0155 27.1613 62.6254 26.5229 62.2141C25.8988 61.7885 25.4307 61.2991 25.1186 60.7459C24.8065 60.1927 24.6505 59.5402 24.6505 58.7884C24.6505 57.994 24.842 57.2919 25.225 56.6819C25.6222 56.0719 26.1683 55.5897 26.8634 55.235C27.5726 54.8804 28.3954 54.7031 29.3316 54.7031C30.3245 54.7031 31.204 54.9371 31.97 55.4052C32.7502 55.8592 33.3743 56.5401 33.8424 57.4479L31.6508 58.7884C31.353 58.2494 30.9983 57.8451 30.587 57.5756C30.1898 57.2919 29.743 57.15 29.2465 57.15C28.8918 57.15 28.5727 57.2209 28.289 57.3628C28.0195 57.4905 27.7996 57.6749 27.6294 57.916C27.4733 58.143 27.3953 58.4125 27.3953 58.7246C27.3953 59.0508 27.4875 59.3416 27.6719 59.5969C27.8705 59.8523 28.1826 60.1005 28.6081 60.3417C29.0479 60.5686 29.6153 60.8098 30.3104 61.0651C31.2324 61.4055 31.9984 61.7814 32.6083 62.1928C33.2325 62.6042 33.7077 63.0865 34.0339 63.6397C34.3602 64.1787 34.5233 64.8383 34.5233 65.6185C34.5233 66.498 34.3035 67.2852 33.8637 67.9803C33.4382 68.6612 32.8424 69.1931 32.0764 69.5761C31.3104 69.9591 30.4096 70.1506 29.3741 70.1506ZM41.2725 70.0868C40.3646 70.0868 39.5845 69.9379 38.9319 69.64C38.2794 69.3421 37.7404 68.9449 37.3148 68.4484C36.9035 67.9378 36.5985 67.3633 36.3999 66.7249C36.2013 66.0724 36.102 65.3915 36.102 64.6823C36.102 64.0014 36.2013 63.3347 36.3999 62.6822C36.5985 62.0297 36.8964 61.441 37.2936 60.9161C37.6907 60.3913 38.2014 59.9728 38.8256 59.6608C39.4639 59.3345 40.2228 59.1714 41.1023 59.1714C41.925 59.1714 42.6413 59.3132 43.2513 59.5969C43.8613 59.8665 44.3648 60.2494 44.762 60.7459C45.1592 61.2282 45.4571 61.7956 45.6557 62.4481C45.8684 63.1006 45.9748 63.7957 45.9748 64.5333C45.9748 64.6326 45.9677 64.7745 45.9536 64.9589C45.9536 65.1291 45.9394 65.3135 45.911 65.5121H38.7404C38.8114 66.2639 39.088 66.8313 39.5703 67.2143C40.0667 67.5973 40.6838 67.7888 41.4214 67.7888C41.9605 67.7888 42.4853 67.6966 42.996 67.5122C43.5066 67.3136 43.9606 67.037 44.3577 66.6824L45.6769 68.4697C45.1805 68.8527 44.7124 69.1648 44.2726 69.4059C43.8329 69.6471 43.3719 69.8173 42.8896 69.9166C42.4215 70.0301 41.8824 70.0868 41.2725 70.0868ZM43.3577 64.1929C43.3861 64.0794 43.4073 63.9659 43.4215 63.8525C43.4499 63.739 43.4641 63.6326 43.4641 63.5333C43.4641 63.2354 43.4073 62.9588 43.2939 62.7035C43.1804 62.434 43.0243 62.1999 42.8257 62.0013C42.6272 61.8027 42.386 61.6538 42.1023 61.5545C41.8328 61.441 41.5207 61.3843 41.1661 61.3843C40.6412 61.3843 40.2015 61.4906 39.8469 61.7034C39.4923 61.9162 39.2227 62.1928 39.0383 62.5332C38.8681 62.8595 38.7617 63.1999 38.7192 63.5546H44.2513L43.3577 64.1929ZM50.5499 70.0868C49.8264 70.0868 49.2306 69.8669 48.7625 69.4272C48.2944 68.9875 48.0604 68.2924 48.0604 67.342V55.0435H50.6775V66.8313C50.6775 67.1292 50.7484 67.342 50.8903 67.4697C51.0321 67.5831 51.2166 67.6399 51.4435 67.6399C51.557 67.6399 51.6776 67.6328 51.8052 67.6186C51.9329 67.5902 52.0677 67.5548 52.2095 67.5122V69.7676C51.9116 69.8811 51.6137 69.9591 51.3158 70.0017C51.0321 70.0584 50.7768 70.0868 50.5499 70.0868ZM58.706 70.0868C57.7981 70.0868 57.018 69.9379 56.3655 69.64C55.7129 69.3421 55.1739 68.9449 54.7484 68.4484C54.337 67.9378 54.032 67.3633 53.8334 66.7249C53.6348 66.0724 53.5355 65.3915 53.5355 64.6823C53.5355 64.0014 53.6348 63.3347 53.8334 62.6822C54.032 62.0297 54.3299 61.441 54.7271 60.9161C55.1243 60.3913 55.6349 59.9728 56.2591 59.6608C56.8974 59.3345 57.6563 59.1714 58.5358 59.1714C59.3585 59.1714 60.0749 59.3132 60.6848 59.5969C61.2948 59.8665 61.7983 60.2494 62.1955 60.7459C62.5927 61.2282 62.8906 61.7956 63.0892 62.4481C63.302 63.1006 63.4083 63.7957 63.4083 64.5333C63.4083 64.6326 63.4013 64.7745 63.3871 64.9589C63.3871 65.1291 63.3729 65.3135 63.3445 65.5121H56.174C56.2449 66.2639 56.5215 66.8313 57.0038 67.2143C57.5003 67.5973 58.1173 67.7888 58.8549 67.7888C59.394 67.7888 59.9188 67.6966 60.4295 67.5122C60.9401 67.3136 61.3941 67.037 61.7912 66.6824L63.1105 68.4697C62.614 68.8527 62.1459 69.1648 61.7061 69.4059C61.2664 69.6471 60.8054 69.8173 60.3231 69.9166C59.855 70.0301 59.316 70.0868 58.706 70.0868ZM60.7912 64.1929C60.8196 64.0794 60.8408 63.9659 60.855 63.8525C60.8834 63.739 60.8976 63.6326 60.8976 63.5333C60.8976 63.2354 60.8408 62.9588 60.7274 62.7035C60.6139 62.434 60.4579 62.1999 60.2593 62.0013C60.0607 61.8027 59.8195 61.6538 59.5358 61.5545C59.2663 61.441 58.9542 61.3843 58.5996 61.3843C58.0748 61.3843 57.635 61.4906 57.2804 61.7034C56.9258 61.9162 56.6563 62.1928 56.4718 62.5332C56.3016 62.8595 56.1952 63.1999 56.1527 63.5546H61.6849L60.7912 64.1929ZM70.1537 70.0868C69.3026 70.0868 68.5579 69.9379 67.9195 69.64C67.2954 69.3279 66.7634 68.9165 66.3237 68.4059C65.8982 67.8952 65.579 67.3136 65.3662 66.6611C65.1534 66.0086 65.0471 65.3277 65.0471 64.6185C65.0471 63.9234 65.1534 63.2496 65.3662 62.5971C65.579 61.9446 65.8982 61.363 66.3237 60.8523C66.7634 60.3417 67.2954 59.9374 67.9195 59.6395C68.5579 59.3274 69.3026 59.1714 70.1537 59.1714C71.2176 59.1714 72.1396 59.4267 72.9198 59.9374C73.7 60.448 74.2815 61.2211 74.6645 62.2566L72.3666 63.1716C72.1963 62.6751 71.9339 62.2708 71.5793 61.9588C71.2388 61.6325 70.7636 61.4694 70.1537 61.4694C69.5863 61.4694 69.1182 61.6254 68.7494 61.9375C68.3805 62.2354 68.111 62.6254 67.9408 63.1077C67.7706 63.59 67.6855 64.0936 67.6855 64.6185C67.6855 65.1433 67.7706 65.654 67.9408 66.1504C68.111 66.6327 68.3805 67.0299 68.7494 67.342C69.1182 67.6399 69.5863 67.7888 70.1537 67.7888C70.7636 67.7888 71.2388 67.6328 71.5793 67.3207C71.9339 66.9945 72.1963 66.576 72.3666 66.0653L74.6645 66.9803C74.2815 68.03 73.7 68.8101 72.9198 69.3208C72.1396 69.8315 71.2176 70.0868 70.1537 70.0868ZM80.6534 70.0868C80.0859 70.0868 79.5611 69.9804 79.0788 69.7676C78.5965 69.5549 78.2064 69.2073 77.9085 68.725C77.6248 68.2427 77.483 67.5973 77.483 66.7888V56.9372L80.164 55.5116V66.0653C80.164 66.6753 80.242 67.1363 80.398 67.4484C80.5682 67.7604 80.8945 67.9165 81.3768 67.9165C81.5186 67.9165 81.6747 67.9023 81.8449 67.8739C82.0293 67.8456 82.2279 67.803 82.4407 67.7463V69.7676C82.1428 69.8811 81.8449 69.9591 81.547 70.0017C81.2491 70.0584 80.9512 70.0868 80.6534 70.0868ZM75.568 61.4481V59.3842H82.4407V61.4481H75.568ZM90.1209 69.874V55.0435H95.0147C96.6886 55.0435 97.9511 55.4052 98.8022 56.1287C99.6533 56.8379 100.079 57.9089 100.079 59.3416C100.079 60.7743 99.6462 61.8665 98.7809 62.6184C97.9156 63.3702 96.6602 63.7461 95.0147 63.7461H92.8444V69.874H90.1209ZM92.8444 61.2991H94.7381C95.5609 61.2991 96.1992 61.1573 96.6531 60.8736C97.107 60.5757 97.334 60.0721 97.334 59.3629C97.334 58.682 97.1141 58.2068 96.6744 57.9373C96.2488 57.6536 95.6034 57.5117 94.7381 57.5117H92.8444V61.2991ZM108.54 69.874L108.327 68.2995V63.2567C108.327 62.6325 108.129 62.1715 107.732 61.8736C107.349 61.5616 106.824 61.4055 106.157 61.4055C105.604 61.4055 105.036 61.519 104.455 61.746C103.887 61.9588 103.384 62.2637 102.944 62.6609L101.604 60.8523C102.341 60.2565 103.093 59.831 103.859 59.5757C104.639 59.3061 105.476 59.1714 106.37 59.1714C107.817 59.1714 108.944 59.5331 109.753 60.2565C110.562 60.98 110.966 61.98 110.966 63.2567V69.874H108.54ZM105.37 70.0868C104.604 70.0868 103.916 69.9449 103.306 69.6612C102.71 69.3775 102.235 68.9733 101.88 68.4484C101.54 67.9236 101.37 67.3207 101.37 66.6398C101.37 66.0299 101.49 65.5121 101.731 65.0866C101.987 64.6468 102.32 64.3135 102.731 64.0865C103.086 63.8737 103.476 63.7248 103.902 63.6397C104.341 63.5546 104.809 63.512 105.306 63.512H108.561V65.4696H105.689C105.462 65.4696 105.235 65.4908 105.008 65.5334C104.795 65.5618 104.611 65.6398 104.455 65.7674C104.313 65.8667 104.207 65.9944 104.136 66.1504C104.065 66.2923 104.029 66.4554 104.029 66.6398C104.029 67.037 104.185 67.3562 104.497 67.5973C104.809 67.8385 105.228 67.959 105.753 67.959C106.221 67.959 106.646 67.8597 107.029 67.6612C107.427 67.4484 107.739 67.1647 107.966 66.81C108.207 66.4412 108.327 66.0228 108.327 65.5547L109.03 66.959C108.845 67.6966 108.561 68.2995 108.178 68.7676C107.81 69.2215 107.384 69.5549 106.902 69.7676C106.419 69.9804 105.909 70.0868 105.37 70.0868ZM113.992 74.2147L116.12 69.0655L112.162 59.3842H115.056L117.524 66.4271L120.035 59.3842H122.886L116.865 74.2147H113.992ZM124.528 69.874V59.3842H127.187V62.1077L126.613 62.5545C126.712 61.8878 126.883 61.3346 127.124 60.8949C127.365 60.4551 127.649 60.1147 127.975 59.8735C128.315 59.6182 128.663 59.4409 129.017 59.3416C129.386 59.2281 129.748 59.1714 130.103 59.1714C130.656 59.1714 131.181 59.2778 131.677 59.4905C132.174 59.6891 132.606 60.0367 132.975 60.5332C133.344 61.0296 133.599 61.7105 133.741 62.5758L132.166 63.1503C132.379 62.1573 132.684 61.3701 133.081 60.7885C133.493 60.2069 133.961 59.7955 134.486 59.5544C135.025 59.299 135.592 59.1714 136.188 59.1714C137.082 59.1714 137.805 59.37 138.358 59.7672C138.911 60.1643 139.316 60.675 139.571 61.2991C139.841 61.9091 139.975 62.5616 139.975 63.2567V69.874H137.337V63.895C137.337 63.3702 137.266 62.9304 137.124 62.5758C136.996 62.207 136.805 61.9304 136.55 61.746C136.294 61.5616 135.961 61.4694 135.55 61.4694C135.124 61.4694 134.762 61.5828 134.464 61.8098C134.167 62.0368 133.94 62.3772 133.784 62.8311C133.642 63.2851 133.571 63.8666 133.571 64.5759V69.874H130.932V63.8525C130.932 63.0581 130.783 62.4623 130.486 62.0651C130.202 61.668 129.783 61.4694 129.23 61.4694C128.79 61.4694 128.415 61.5828 128.102 61.8098C127.805 62.0368 127.578 62.3772 127.422 62.8311C127.266 63.2851 127.187 63.8666 127.187 64.5759V69.874H124.528ZM147.141 70.0868C146.233 70.0868 145.453 69.9379 144.801 69.64C144.148 69.3421 143.609 68.9449 143.183 68.4484C142.772 67.9378 142.467 67.3633 142.268 66.7249C142.07 66.0724 141.971 65.3915 141.971 64.6823C141.971 64.0014 142.07 63.3347 142.268 62.6822C142.467 62.0297 142.765 61.441 143.162 60.9161C143.559 60.3913 144.07 59.9728 144.694 59.6608C145.332 59.3345 146.091 59.1714 146.971 59.1714C147.794 59.1714 148.51 59.3132 149.12 59.5969C149.73 59.8665 150.233 60.2494 150.631 60.7459C151.028 61.2282 151.326 61.7956 151.524 62.4481C151.737 63.1006 151.843 63.7957 151.843 64.5333C151.843 64.6326 151.836 64.7745 151.822 64.9589C151.822 65.1291 151.808 65.3135 151.78 65.5121H144.609C144.68 66.2639 144.957 66.8313 145.439 67.2143C145.935 67.5973 146.552 67.7888 147.29 67.7888C147.829 67.7888 148.354 67.6966 148.865 67.5122C149.375 67.3136 149.829 67.037 150.226 66.6824L151.546 68.4697C151.049 68.8527 150.581 69.1648 150.141 69.4059C149.701 69.6471 149.24 69.8173 148.758 69.9166C148.29 70.0301 147.751 70.0868 147.141 70.0868ZM149.226 64.1929C149.255 64.0794 149.276 63.9659 149.29 63.8525C149.318 63.739 149.333 63.6326 149.333 63.5333C149.333 63.2354 149.276 62.9588 149.162 62.7035C149.049 62.434 148.893 62.1999 148.694 62.0013C148.496 61.8027 148.255 61.6538 147.971 61.5545C147.701 61.441 147.389 61.3843 147.035 61.3843C146.51 61.3843 146.07 61.4906 145.715 61.7034C145.361 61.9162 145.091 62.1928 144.907 62.5332C144.737 62.8595 144.63 63.1999 144.588 63.5546H150.12L149.226 64.1929ZM153.972 69.874V59.3842H156.631V61.7673L156.206 61.8098C156.39 61.1715 156.66 60.6608 157.014 60.2778C157.369 59.8948 157.78 59.6182 158.248 59.448C158.716 59.2636 159.199 59.1714 159.695 59.1714C160.887 59.1714 161.816 59.5118 162.483 60.1927C163.163 60.8594 163.504 61.8027 163.504 63.0226V69.874H160.844V64.0014C160.844 63.1219 160.688 62.4836 160.376 62.0864C160.064 61.675 159.575 61.4694 158.908 61.4694C158.397 61.4694 157.972 61.5899 157.631 61.8311C157.305 62.058 157.057 62.4198 156.887 62.9162C156.716 63.4127 156.631 64.0581 156.631 64.8525V69.874H153.972ZM169.982 70.0868C169.415 70.0868 168.89 69.9804 168.407 69.7676C167.925 69.5549 167.535 69.2073 167.237 68.725C166.953 68.2427 166.812 67.5973 166.812 66.7888V56.9372L169.493 55.5116V66.0653C169.493 66.6753 169.571 67.1363 169.727 67.4484C169.897 67.7604 170.223 67.9165 170.705 67.9165C170.847 67.9165 171.003 67.9023 171.173 67.8739C171.358 67.8456 171.556 67.803 171.769 67.7463V69.7676C171.471 69.8811 171.173 69.9591 170.876 70.0017C170.578 70.0584 170.28 70.0868 169.982 70.0868ZM164.897 61.4481V59.3842H171.769V61.4481H164.897ZM182.854 69.874V57.5117H178.258V55.0435H190.216V57.5117H185.641V69.874H182.854ZM191.726 74.2147L193.854 69.0655L189.896 59.3842H192.79L195.258 66.4271L197.769 59.3842H200.62L194.598 74.2147H191.726ZM202.262 74.2147V59.3842H204.9V62.1928L204.262 62.4056C204.446 61.5687 204.723 60.9161 205.092 60.448C205.475 59.9799 205.907 59.6537 206.39 59.4693C206.872 59.2707 207.375 59.1714 207.9 59.1714C208.822 59.1714 209.617 59.4125 210.283 59.8948C210.964 60.3629 211.482 61.0084 211.837 61.8311C212.191 62.6538 212.369 63.59 212.369 64.6397C212.369 65.7745 212.17 66.7533 211.773 67.576C211.376 68.3846 210.837 69.0087 210.156 69.4485C209.475 69.874 208.723 70.0868 207.9 70.0868C207.347 70.0868 206.822 69.9733 206.326 69.7464C205.829 69.5194 205.404 69.179 205.049 68.725C204.709 68.2569 204.475 67.6682 204.347 66.959L204.9 67.0441V74.2147H202.262ZM207.177 67.6612C207.702 67.6612 208.149 67.5406 208.517 67.2994C208.9 67.0441 209.198 66.6895 209.411 66.2356C209.624 65.7816 209.73 65.2497 209.73 64.6397C209.73 64.0156 209.624 63.4766 209.411 63.0226C209.198 62.5687 208.9 62.2212 208.517 61.98C208.149 61.7247 207.702 61.597 207.177 61.597C206.666 61.597 206.219 61.7247 205.836 61.98C205.468 62.2354 205.177 62.59 204.964 63.0439C204.765 63.4836 204.666 64.0156 204.666 64.6397C204.666 65.2497 204.765 65.7816 204.964 66.2356C205.177 66.6895 205.468 67.0441 205.836 67.2994C206.219 67.5406 206.666 67.6612 207.177 67.6612ZM219.161 70.0868C218.253 70.0868 217.473 69.9379 216.82 69.64C216.168 69.3421 215.629 68.9449 215.203 68.4484C214.792 67.9378 214.487 67.3633 214.288 66.7249C214.09 66.0724 213.99 65.3915 213.99 64.6823C213.99 64.0014 214.09 63.3347 214.288 62.6822C214.487 62.0297 214.785 61.441 215.182 60.9161C215.579 60.3913 216.09 59.9728 216.714 59.6608C217.352 59.3345 218.111 59.1714 218.991 59.1714C219.813 59.1714 220.53 59.3132 221.14 59.5969C221.75 59.8665 222.253 60.2494 222.65 60.7459C223.048 61.2282 223.345 61.7956 223.544 62.4481C223.757 63.1006 223.863 63.7957 223.863 64.5333C223.863 64.6326 223.856 64.7745 223.842 64.9589C223.842 65.1291 223.828 65.3135 223.799 65.5121H216.629C216.7 66.2639 216.976 66.8313 217.459 67.2143C217.955 67.5973 218.572 67.7888 219.31 67.7888C219.849 67.7888 220.374 67.6966 220.884 67.5122C221.395 67.3136 221.849 67.037 222.246 66.6824L223.565 68.4697C223.069 68.8527 222.601 69.1648 222.161 69.4059C221.721 69.6471 221.26 69.8173 220.778 69.9166C220.31 70.0301 219.771 70.0868 219.161 70.0868ZM221.246 64.1929C221.274 64.0794 221.296 63.9659 221.31 63.8525C221.338 63.739 221.352 63.6326 221.352 63.5333C221.352 63.2354 221.296 62.9588 221.182 62.7035C221.069 62.434 220.913 62.1999 220.714 62.0013C220.515 61.8027 220.274 61.6538 219.991 61.5545C219.721 61.441 219.409 61.3843 219.054 61.3843C218.53 61.3843 218.09 61.4906 217.735 61.7034C217.381 61.9162 217.111 62.1928 216.927 62.5332C216.756 62.8595 216.65 63.1999 216.607 63.5546H222.14L221.246 64.1929Z" fill="#18181B"/>
<rect x="23.498" y="91.5029" width="260.651" height="41.6687" rx="8.42239" fill="white"/>
<rect x="23.498" y="91.5029" width="260.651" height="41.6687" rx="8.42239" stroke="#F9FAFB" stroke-width="0.886567"/>
<path d="M34.8 116.337V107.649H40.0626V108.766H36.0163V111.496H39.5413V112.613H36.0163V116.337H34.8ZM41.3646 116.337V110.131H42.5438V116.337H41.3646ZM41.9604 108.815C41.7701 108.815 41.6046 108.745 41.4639 108.604C41.3233 108.455 41.2529 108.286 41.2529 108.095C41.2529 107.897 41.3233 107.731 41.4639 107.599C41.6046 107.458 41.7701 107.388 41.9604 107.388C42.159 107.388 42.3245 107.458 42.4569 107.599C42.5976 107.731 42.6679 107.897 42.6679 108.095C42.6679 108.286 42.5976 108.455 42.4569 108.604C42.3245 108.745 42.159 108.815 41.9604 108.815ZM43.5769 116.337L46.1213 112.775L47.8962 110.131H49.2864L46.8909 113.519L44.9918 116.337H43.5769ZM48.0328 116.337L46.1585 113.519L43.7382 110.131H45.1284L46.9157 112.775L49.4353 116.337H48.0328ZM53.0149 116.486C52.4108 116.486 51.8771 116.349 51.4137 116.076C50.9504 115.795 50.5863 115.41 50.3215 114.922C50.0567 114.434 49.9243 113.871 49.9243 113.234C49.9243 112.597 50.0567 112.034 50.3215 111.546C50.5863 111.058 50.9504 110.677 51.4137 110.404C51.8854 110.123 52.4233 109.982 53.0273 109.982C53.5982 109.982 54.0989 110.127 54.5291 110.416C54.9594 110.698 55.2945 111.103 55.5345 111.633C55.7827 112.154 55.9069 112.771 55.9069 113.482H50.8924L51.1159 113.296C51.1159 113.735 51.2027 114.115 51.3765 114.438C51.5503 114.761 51.7861 115.009 52.084 115.183C52.3819 115.348 52.7211 115.431 53.1018 115.431C53.5155 115.431 53.8589 115.336 54.132 115.145C54.4133 114.947 54.6326 114.699 54.7898 114.401L55.8076 114.872C55.6421 115.195 55.4269 115.48 55.1622 115.729C54.8974 115.969 54.5829 116.155 54.2188 116.287C53.863 116.42 53.4617 116.486 53.0149 116.486ZM51.1903 112.737L50.9545 112.551H54.8767L54.6533 112.737C54.6533 112.373 54.5788 112.063 54.4298 111.807C54.2809 111.542 54.0823 111.343 53.8341 111.211C53.5858 111.07 53.3086 111 53.0025 111C52.7046 111 52.415 111.07 52.1336 111.211C51.8606 111.343 51.633 111.538 51.451 111.794C51.2772 112.051 51.1903 112.365 51.1903 112.737ZM61.6145 116.337L61.5649 115.183V107.649H62.7316V116.337H61.6145ZM59.5293 116.486C58.9666 116.486 58.4743 116.349 58.0523 116.076C57.6386 115.803 57.3117 115.423 57.0717 114.934C56.8401 114.446 56.7242 113.879 56.7242 113.234C56.7242 112.58 56.8401 112.013 57.0717 111.533C57.3117 111.045 57.6386 110.665 58.0523 110.392C58.4743 110.119 58.9666 109.982 59.5293 109.982C60.0506 109.982 60.5016 110.119 60.8822 110.392C61.2711 110.665 61.569 111.045 61.7759 111.533C61.9827 112.013 62.0862 112.58 62.0862 113.234C62.0862 113.879 61.9827 114.446 61.7759 114.934C61.569 115.423 61.2711 115.803 60.8822 116.076C60.5016 116.349 60.0506 116.486 59.5293 116.486ZM59.8024 115.418C60.1499 115.418 60.4561 115.327 60.7209 115.145C60.9856 114.955 61.1925 114.699 61.3415 114.376C61.4904 114.045 61.5649 113.664 61.5649 113.234C61.5649 112.804 61.4904 112.427 61.3415 112.104C61.1925 111.773 60.9856 111.517 60.7209 111.335C60.4561 111.145 60.1458 111.049 59.79 111.049C59.4259 111.049 59.1032 111.145 58.8218 111.335C58.5405 111.517 58.3212 111.773 58.164 112.104C58.0068 112.427 57.9282 112.804 57.9282 113.234C57.9282 113.664 58.0068 114.045 58.164 114.376C58.3295 114.699 58.5529 114.955 58.8342 115.145C59.1156 115.327 59.4383 115.418 59.8024 115.418ZM67.6843 116.337V107.649H70.6136C71.1928 107.649 71.7017 107.764 72.1402 107.996C72.5871 108.22 72.9346 108.534 73.1828 108.939C73.4393 109.337 73.5676 109.8 73.5676 110.33C73.5676 110.851 73.4311 111.314 73.158 111.72C72.8932 112.125 72.5291 112.444 72.0658 112.675C71.6024 112.899 71.0811 113.011 70.5019 113.011H68.9007V116.337H67.6843ZM72.5374 116.337L70.477 112.787L71.4452 112.142L73.9151 116.337H72.5374ZM68.9007 111.893H70.7253C71.0232 111.893 71.2879 111.827 71.5196 111.695C71.7596 111.554 71.9499 111.368 72.0906 111.136C72.2395 110.896 72.314 110.627 72.314 110.33C72.314 109.866 72.1526 109.49 71.8299 109.2C71.5072 108.91 71.0894 108.766 70.5763 108.766H68.9007V111.893ZM79.0395 116.337L78.9899 115.257V113.097C78.9899 112.642 78.9361 112.262 78.8285 111.955C78.7292 111.649 78.572 111.418 78.3569 111.26C78.15 111.103 77.8728 111.025 77.5253 111.025C77.2026 111.025 76.9212 111.091 76.6813 111.223C76.4496 111.356 76.2551 111.562 76.0979 111.844L75.0553 111.447C75.2042 111.165 75.3904 110.917 75.6138 110.702C75.8372 110.478 76.1062 110.305 76.4206 110.181C76.735 110.048 77.1033 109.982 77.5253 109.982C78.1128 109.982 78.601 110.098 78.9899 110.33C79.3788 110.561 79.6684 110.896 79.8587 111.335C80.0573 111.773 80.1525 112.315 80.1442 112.961L80.1318 116.337H79.0395ZM77.215 116.486C76.4785 116.486 75.9034 116.32 75.4897 115.989C75.0843 115.65 74.8815 115.183 74.8815 114.587C74.8815 113.95 75.0925 113.466 75.5145 113.135C75.9448 112.795 76.5406 112.626 77.3019 112.626H79.0271V113.557H77.6246C77.0536 113.557 76.6523 113.648 76.4206 113.83C76.1889 114.003 76.0731 114.248 76.0731 114.562C76.0731 114.852 76.1806 115.079 76.3958 115.245C76.6192 115.402 76.9254 115.48 77.3143 115.48C77.6535 115.48 77.9473 115.41 78.1955 115.269C78.4438 115.121 78.6382 114.914 78.7789 114.649C78.9195 114.384 78.9899 114.082 78.9899 113.743H79.3995C79.3995 114.587 79.2174 115.257 78.8533 115.754C78.4975 116.242 77.9514 116.486 77.215 116.486ZM84.0245 116.486C83.4039 116.486 82.9239 116.329 82.5847 116.014C82.2454 115.691 82.0758 115.232 82.0758 114.636V108.195H83.2549V114.463C83.2549 114.769 83.3294 115.005 83.4783 115.17C83.6356 115.327 83.859 115.406 84.1486 115.406C84.2313 115.406 84.3224 115.389 84.4217 115.356C84.521 115.323 84.6409 115.257 84.7816 115.158L85.2284 116.076C85.0133 116.217 84.8064 116.32 84.6078 116.387C84.4175 116.453 84.2231 116.486 84.0245 116.486ZM81.0208 111.149V110.131H85.0174V111.149H81.0208ZM89.0871 116.486C88.483 116.486 87.9493 116.349 87.4859 116.076C87.0226 115.795 86.6585 115.41 86.3937 114.922C86.1289 114.434 85.9965 113.871 85.9965 113.234C85.9965 112.597 86.1289 112.034 86.3937 111.546C86.6585 111.058 87.0226 110.677 87.4859 110.404C87.9576 110.123 88.4955 109.982 89.0995 109.982C89.6704 109.982 90.1711 110.127 90.6013 110.416C91.0316 110.698 91.3667 111.103 91.6067 111.633C91.855 112.154 91.9791 112.771 91.9791 113.482H86.9646L87.1881 113.296C87.1881 113.735 87.2749 114.115 87.4487 114.438C87.6225 114.761 87.8583 115.009 88.1562 115.183C88.4541 115.348 88.7933 115.431 89.174 115.431C89.5877 115.431 89.9311 115.336 90.2042 115.145C90.4855 114.947 90.7048 114.699 90.862 114.401L91.8798 114.872C91.7143 115.195 91.4991 115.48 91.2344 115.729C90.9696 115.969 90.6551 116.155 90.291 116.287C89.9352 116.42 89.5339 116.486 89.0871 116.486ZM87.2625 112.737L87.0267 112.551H90.9489L90.7255 112.737C90.7255 112.373 90.651 112.063 90.502 111.807C90.3531 111.542 90.1545 111.343 89.9063 111.211C89.658 111.07 89.3808 111 89.0747 111C88.7768 111 88.4872 111.07 88.2058 111.211C87.9328 111.343 87.7052 111.538 87.5232 111.794C87.3494 112.051 87.2625 112.365 87.2625 112.737Z" fill="#4B5563"/>
<path opacity="0.5" d="M265.083 105.393C268.918 105.393 272.028 108.501 272.028 112.337C272.028 116.173 268.919 119.282 265.083 119.282C261.248 119.282 258.139 116.172 258.139 112.337C258.139 108.502 261.248 105.393 265.083 105.393Z" fill="white" stroke="#E5E7EB" stroke-width="0.886567"/>
<rect x="23.498" y="148.243" width="260.651" height="41.6687" rx="8.42239" fill="white"/>
<rect x="23.498" y="148.243" width="260.651" height="41.6687" rx="8.42239" stroke="#F9FAFB" stroke-width="0.886567"/>
<path d="M34.8 173.077V164.389H36.0908L38.9704 168.646L41.8375 164.389H43.1284V173.077H41.912V166.35L38.958 170.706L36.0163 166.362V173.077H34.8ZM45.1222 173.077V166.871H46.3013V173.077H45.1222ZM45.7179 165.556C45.5276 165.556 45.3621 165.485 45.2214 165.345C45.0808 165.196 45.0104 165.026 45.0104 164.836C45.0104 164.637 45.0808 164.472 45.2214 164.339C45.3621 164.198 45.5276 164.128 45.7179 164.128C45.9165 164.128 46.082 164.198 46.2144 164.339C46.3551 164.472 46.4254 164.637 46.4254 164.836C46.4254 165.026 46.3551 165.196 46.2144 165.345C46.082 165.485 45.9165 165.556 45.7179 165.556ZM48.0295 173.077V164.389H49.2086V173.077H48.0295ZM53.5846 173.226C52.9805 173.226 52.4468 173.09 51.9834 172.816C51.5201 172.535 51.156 172.15 50.8912 171.662C50.6264 171.174 50.494 170.611 50.494 169.974C50.494 169.337 50.6264 168.774 50.8912 168.286C51.156 167.798 51.5201 167.417 51.9834 167.144C52.4551 166.863 52.9929 166.722 53.597 166.722C54.1679 166.722 54.6686 166.867 55.0988 167.157C55.5291 167.438 55.8642 167.843 56.1042 168.373C56.3524 168.894 56.4766 169.511 56.4766 170.222H51.4621L51.6855 170.036C51.6855 170.475 51.7724 170.855 51.9462 171.178C52.12 171.501 52.3558 171.749 52.6537 171.923C52.9516 172.088 53.2908 172.171 53.6715 172.171C54.0852 172.171 54.4286 172.076 54.7017 171.886C54.983 171.687 55.2023 171.439 55.3595 171.141L56.3773 171.613C56.2118 171.935 55.9966 172.221 55.7318 172.469C55.4671 172.709 55.1526 172.895 54.7885 173.028C54.4327 173.16 54.0314 173.226 53.5846 173.226ZM51.76 169.478L51.5242 169.292H55.4464L55.223 169.478C55.223 169.114 55.1485 168.803 54.9995 168.547C54.8506 168.282 54.652 168.083 54.4038 167.951C54.1555 167.81 53.8783 167.74 53.5722 167.74C53.2743 167.74 52.9847 167.81 52.7033 167.951C52.4303 168.083 52.2027 168.278 52.0207 168.534C51.8469 168.791 51.76 169.105 51.76 169.478ZM59.8632 173.226C59.4246 173.226 59.0316 173.16 58.684 173.028C58.3448 172.895 58.0552 172.717 57.8152 172.494C57.5835 172.27 57.4097 172.018 57.2939 171.737L58.3117 171.29C58.4441 171.546 58.6427 171.757 58.9075 171.923C59.1722 172.088 59.466 172.171 59.7887 172.171C60.1445 172.171 60.4383 172.105 60.67 171.972C60.9016 171.84 61.0175 171.654 61.0175 171.414C61.0175 171.182 60.9306 171 60.7568 170.868C60.5831 170.735 60.3307 170.628 59.9997 170.545L59.4163 170.396C58.8371 170.239 58.3862 170.003 58.0634 169.689C57.749 169.374 57.5918 169.018 57.5918 168.621C57.5918 168.017 57.7862 167.55 58.1752 167.219C58.5641 166.888 59.1391 166.722 59.9004 166.722C60.2728 166.722 60.612 166.776 60.9182 166.884C61.2326 166.991 61.4974 167.144 61.7126 167.343C61.936 167.541 62.0932 167.777 62.1842 168.05L61.1913 168.497C61.092 168.249 60.9223 168.067 60.6824 167.951C60.4424 167.827 60.1611 167.765 59.8384 167.765C59.5074 167.765 59.2467 167.839 59.0564 167.988C58.8661 168.129 58.7709 168.328 58.7709 168.584C58.7709 168.725 58.8495 168.861 59.0068 168.994C59.1722 169.118 59.4122 169.221 59.7266 169.304L60.3969 169.465C60.8023 169.565 61.1375 169.718 61.4023 169.925C61.667 170.123 61.8656 170.351 61.998 170.607C62.1304 170.855 62.1966 171.116 62.1966 171.389C62.1966 171.761 62.0932 172.088 61.8863 172.37C61.6877 172.643 61.4105 172.854 61.0547 173.003C60.7072 173.152 60.31 173.226 59.8632 173.226ZM65.8187 173.226C65.1981 173.226 64.7182 173.069 64.3789 172.754C64.0396 172.432 63.87 171.972 63.87 171.377V164.935H65.0491V171.203C65.0491 171.509 65.1236 171.745 65.2726 171.91C65.4298 172.068 65.6532 172.146 65.9428 172.146C66.0255 172.146 66.1166 172.13 66.2159 172.097C66.3152 172.064 66.4351 171.997 66.5758 171.898L67.0226 172.816C66.8075 172.957 66.6006 173.061 66.402 173.127C66.2117 173.193 66.0173 173.226 65.8187 173.226ZM62.815 167.889V166.871H66.8116V167.889H62.815ZM70.9434 173.226C70.3228 173.226 69.7766 173.09 69.305 172.816C68.8333 172.535 68.461 172.15 68.1879 171.662C67.9231 171.174 67.7907 170.611 67.7907 169.974C67.7907 169.337 67.9231 168.774 68.1879 168.286C68.4527 167.798 68.8209 167.417 69.2926 167.144C69.7642 166.863 70.3062 166.722 70.9185 166.722C71.5309 166.722 72.0728 166.863 72.5445 167.144C73.0161 167.417 73.3844 167.798 73.6492 168.286C73.9139 168.774 74.0463 169.337 74.0463 169.974C74.0463 170.611 73.9139 171.174 73.6492 171.662C73.3844 172.15 73.0161 172.535 72.5445 172.816C72.0811 173.09 71.5474 173.226 70.9434 173.226ZM70.9434 172.146C71.3157 172.146 71.6467 172.055 71.9363 171.873C72.2259 171.683 72.4493 171.426 72.6066 171.104C72.772 170.781 72.8548 170.404 72.8548 169.974C72.8548 169.544 72.772 169.167 72.6066 168.845C72.4493 168.522 72.2218 168.27 71.9239 168.088C71.626 167.897 71.2909 167.802 70.9185 167.802C70.5379 167.802 70.2028 167.897 69.9132 168.088C69.6235 168.27 69.396 168.522 69.2305 168.845C69.065 169.167 68.9823 169.544 68.9823 169.974C68.9823 170.404 69.065 170.781 69.2305 171.104C69.396 171.426 69.6277 171.683 69.9256 171.873C70.2235 172.055 70.5627 172.146 70.9434 172.146ZM75.3382 173.077V166.871H76.4428L76.5173 168.013V173.077H75.3382ZM79.6327 173.077V169.9H80.8118V173.077H79.6327ZM79.6327 169.9C79.6327 169.337 79.5665 168.911 79.4341 168.621C79.31 168.323 79.1321 168.117 78.9004 168.001C78.677 167.885 78.4163 167.823 78.1184 167.814C77.6137 167.814 77.2206 167.992 76.9393 168.348C76.658 168.704 76.5173 169.205 76.5173 169.85H76.0084C76.0084 169.196 76.1036 168.638 76.2939 168.174C76.4925 167.703 76.7697 167.343 77.1255 167.095C77.4896 166.846 77.9198 166.722 78.4163 166.722C78.9045 166.722 79.3265 166.822 79.6823 167.02C80.0464 167.219 80.3236 167.529 80.5139 167.951C80.7125 168.365 80.8118 168.911 80.8118 169.589V169.9H79.6327ZM85.0387 173.226C84.4346 173.226 83.9009 173.09 83.4375 172.816C82.9741 172.535 82.6101 172.15 82.3453 171.662C82.0805 171.174 81.9481 170.611 81.9481 169.974C81.9481 169.337 82.0805 168.774 82.3453 168.286C82.6101 167.798 82.9741 167.417 83.4375 167.144C83.9092 166.863 84.447 166.722 85.0511 166.722C85.622 166.722 86.1226 166.867 86.5529 167.157C86.9832 167.438 87.3183 167.843 87.5583 168.373C87.8065 168.894 87.9306 169.511 87.9306 170.222H82.9162L83.1396 170.036C83.1396 170.475 83.2265 170.855 83.4003 171.178C83.5741 171.501 83.8099 171.749 84.1078 171.923C84.4057 172.088 84.7449 172.171 85.1255 172.171C85.5393 172.171 85.8827 172.076 86.1557 171.886C86.4371 171.687 86.6564 171.439 86.8136 171.141L87.8314 171.613C87.6659 171.935 87.4507 172.221 87.1859 172.469C86.9211 172.709 86.6067 172.895 86.2426 173.028C85.8868 173.16 85.4855 173.226 85.0387 173.226ZM83.2141 169.478L82.9783 169.292H86.9005L86.677 169.478C86.677 169.114 86.6026 168.803 86.4536 168.547C86.3047 168.282 86.1061 168.083 85.8579 167.951C85.6096 167.81 85.3324 167.74 85.0263 167.74C84.7284 167.74 84.4388 167.81 84.1574 167.951C83.8844 168.083 83.6568 168.278 83.4748 168.534C83.301 168.791 83.2141 169.105 83.2141 169.478ZM92.4113 173.077V164.389H95.3405C95.9197 164.389 96.4286 164.509 96.8671 164.749C97.314 164.98 97.6615 165.307 97.9097 165.729C98.1663 166.143 98.2945 166.627 98.2945 167.181C98.2945 167.719 98.1787 168.199 97.947 168.621C97.7153 169.043 97.3926 169.374 96.9789 169.614C96.5734 169.854 96.1059 169.974 95.5763 169.974H93.6276V173.077H92.4113ZM93.6276 168.845H95.5639C96.0024 168.845 96.3624 168.692 96.6437 168.385C96.9251 168.071 97.0657 167.67 97.0657 167.181C97.0657 166.677 96.9002 166.271 96.5693 165.965C96.2465 165.659 95.8328 165.506 95.3281 165.506H93.6276V168.845ZM103.088 173.077L103.038 171.997V169.838C103.038 169.383 102.984 169.002 102.877 168.696C102.777 168.39 102.62 168.158 102.405 168.001C102.198 167.843 101.921 167.765 101.573 167.765C101.251 167.765 100.969 167.831 100.729 167.963C100.498 168.096 100.303 168.303 100.146 168.584L99.1034 168.187C99.2524 167.906 99.4386 167.657 99.662 167.442C99.8854 167.219 100.154 167.045 100.469 166.921C100.783 166.788 101.151 166.722 101.573 166.722C102.161 166.722 102.649 166.838 103.038 167.07C103.427 167.301 103.717 167.637 103.907 168.075C104.105 168.514 104.201 169.056 104.192 169.701L104.18 173.077H103.088ZM101.263 173.226C100.527 173.226 99.9516 173.061 99.5378 172.73C99.1324 172.39 98.9297 171.923 98.9297 171.327C98.9297 170.69 99.1407 170.206 99.5627 169.875C99.993 169.536 100.589 169.366 101.35 169.366H103.075V170.297H101.673C101.102 170.297 100.7 170.388 100.469 170.57C100.237 170.744 100.121 170.988 100.121 171.302C100.121 171.592 100.229 171.819 100.444 171.985C100.667 172.142 100.973 172.221 101.362 172.221C101.702 172.221 101.995 172.15 102.244 172.01C102.492 171.861 102.686 171.654 102.827 171.389C102.968 171.124 103.038 170.822 103.038 170.483H103.448C103.448 171.327 103.266 171.997 102.901 172.494C102.546 172.982 102 173.226 101.263 173.226ZM106.325 175.708C106.143 175.708 105.94 175.675 105.717 175.609C105.502 175.543 105.278 175.456 105.047 175.349L105.481 174.38C105.663 174.463 105.82 174.525 105.953 174.567C106.093 174.608 106.205 174.629 106.288 174.629C106.495 174.629 106.669 174.571 106.809 174.455C106.958 174.339 107.078 174.178 107.169 173.971L107.889 172.27L110.098 166.871H111.364L108.423 173.847C108.266 174.227 108.1 174.558 107.926 174.84C107.753 175.121 107.537 175.336 107.281 175.485C107.033 175.634 106.714 175.708 106.325 175.708ZM107.566 173.077L104.848 166.871H106.102L108.348 172.258L108.708 173.077H107.566ZM112.271 173.077V166.871H113.376L113.425 167.728C113.624 167.397 113.872 167.148 114.17 166.983C114.468 166.809 114.811 166.722 115.2 166.722C115.697 166.722 116.119 166.838 116.466 167.07C116.814 167.293 117.066 167.637 117.223 168.1C117.405 167.653 117.662 167.314 117.993 167.082C118.324 166.842 118.717 166.722 119.172 166.722C119.875 166.722 120.426 166.954 120.823 167.417C121.22 167.872 121.414 168.576 121.406 169.527V173.077H120.239V169.9C120.239 169.337 120.177 168.911 120.053 168.621C119.937 168.323 119.78 168.117 119.582 168.001C119.383 167.885 119.151 167.823 118.887 167.814C118.423 167.814 118.063 167.992 117.807 168.348C117.558 168.704 117.434 169.205 117.434 169.85V173.077H116.255V169.9C116.255 169.337 116.197 168.911 116.081 168.621C115.966 168.323 115.804 168.117 115.597 168.001C115.399 167.885 115.167 167.823 114.902 167.814C114.439 167.814 114.079 167.992 113.822 168.348C113.574 168.704 113.45 169.205 113.45 169.85V173.077H112.271ZM125.656 173.226C125.052 173.226 124.518 173.09 124.055 172.816C123.592 172.535 123.228 172.15 122.963 171.662C122.698 171.174 122.566 170.611 122.566 169.974C122.566 169.337 122.698 168.774 122.963 168.286C123.228 167.798 123.592 167.417 124.055 167.144C124.527 166.863 125.065 166.722 125.669 166.722C126.24 166.722 126.74 166.867 127.171 167.157C127.601 167.438 127.936 167.843 128.176 168.373C128.424 168.894 128.548 169.511 128.548 170.222H123.534L123.757 170.036C123.757 170.475 123.844 170.855 124.018 171.178C124.192 171.501 124.427 171.749 124.725 171.923C125.023 172.088 125.363 172.171 125.743 172.171C126.157 172.171 126.5 172.076 126.773 171.886C127.055 171.687 127.274 171.439 127.431 171.141L128.449 171.613C128.283 171.935 128.068 172.221 127.804 172.469C127.539 172.709 127.224 172.895 126.86 173.028C126.504 173.16 126.103 173.226 125.656 173.226ZM123.832 169.478L123.596 169.292H127.518L127.295 169.478C127.295 169.114 127.22 168.803 127.071 168.547C126.922 168.282 126.724 168.083 126.475 167.951C126.227 167.81 125.95 167.74 125.644 167.74C125.346 167.74 125.056 167.81 124.775 167.951C124.502 168.083 124.274 168.278 124.092 168.534C123.919 168.791 123.832 169.105 123.832 169.478ZM129.713 173.077V166.871H130.818L130.892 168.013V173.077H129.713ZM134.008 173.077V169.9H135.187V173.077H134.008ZM134.008 169.9C134.008 169.337 133.941 168.911 133.809 168.621C133.685 168.323 133.507 168.117 133.275 168.001C133.052 167.885 132.791 167.823 132.493 167.814C131.989 167.814 131.596 167.992 131.314 168.348C131.033 168.704 130.892 169.205 130.892 169.85H130.383C130.383 169.196 130.479 168.638 130.669 168.174C130.867 167.703 131.145 167.343 131.5 167.095C131.865 166.846 132.295 166.722 132.791 166.722C133.279 166.722 133.701 166.822 134.057 167.02C134.421 167.219 134.699 167.529 134.889 167.951C135.087 168.365 135.187 168.911 135.187 169.589V169.9H134.008ZM139.066 173.226C138.445 173.226 137.966 173.069 137.626 172.754C137.287 172.432 137.117 171.972 137.117 171.377V164.935H138.297V171.203C138.297 171.509 138.371 171.745 138.52 171.91C138.677 172.068 138.901 172.146 139.19 172.146C139.273 172.146 139.364 172.13 139.463 172.097C139.563 172.064 139.683 171.997 139.823 171.898L140.27 172.816C140.055 172.957 139.848 173.061 139.649 173.127C139.459 173.193 139.265 173.226 139.066 173.226ZM136.062 167.889V166.871H140.059V167.889H136.062ZM143.656 173.226C143.217 173.226 142.824 173.16 142.477 173.028C142.137 172.895 141.848 172.717 141.608 172.494C141.376 172.27 141.202 172.018 141.087 171.737L142.104 171.29C142.237 171.546 142.435 171.757 142.7 171.923C142.965 172.088 143.259 172.171 143.581 172.171C143.937 172.171 144.231 172.105 144.463 171.972C144.694 171.84 144.81 171.654 144.81 171.414C144.81 171.182 144.723 171 144.55 170.868C144.376 170.735 144.123 170.628 143.792 170.545L143.209 170.396C142.63 170.239 142.179 170.003 141.856 169.689C141.542 169.374 141.385 169.018 141.385 168.621C141.385 168.017 141.579 167.55 141.968 167.219C142.357 166.888 142.932 166.722 143.693 166.722C144.065 166.722 144.405 166.776 144.711 166.884C145.025 166.991 145.29 167.144 145.505 167.343C145.729 167.541 145.886 167.777 145.977 168.05L144.984 168.497C144.885 168.249 144.715 168.067 144.475 167.951C144.235 167.827 143.954 167.765 143.631 167.765C143.3 167.765 143.039 167.839 142.849 167.988C142.659 168.129 142.564 168.328 142.564 168.584C142.564 168.725 142.642 168.861 142.799 168.994C142.965 169.118 143.205 169.221 143.519 169.304L144.19 169.465C144.595 169.565 144.93 169.718 145.195 169.925C145.46 170.123 145.658 170.351 145.791 170.607C145.923 170.855 145.989 171.116 145.989 171.389C145.989 171.761 145.886 172.088 145.679 172.37C145.48 172.643 145.203 172.854 144.847 173.003C144.5 173.152 144.103 173.226 143.656 173.226Z" fill="#4B5563"/>
<path opacity="0.5" d="M265.083 162.059C268.959 162.059 272.101 165.201 272.102 169.077C272.102 172.954 268.959 176.096 265.083 176.096C261.207 176.096 258.064 172.953 258.064 169.077C258.065 165.201 261.207 162.059 265.083 162.059Z" fill="white" stroke="#E5E7EB" stroke-width="0.738806"/>
<rect x="23.498" y="204.983" width="260.651" height="41.6687" rx="8.42239" fill="white"/>
<rect x="23.498" y="204.983" width="260.651" height="41.6687" rx="8.42239" stroke="#F9FAFB" stroke-width="0.886567"/>
<path d="M34.8 229.817V221.129H37.7292C38.3084 221.129 38.8173 221.249 39.2559 221.489C39.7027 221.721 40.0502 222.048 40.2985 222.47C40.555 222.883 40.6832 223.367 40.6832 223.922C40.6832 224.46 40.5674 224.939 40.3357 225.361C40.104 225.784 39.7813 226.114 39.3676 226.354C38.9621 226.594 38.4946 226.714 37.965 226.714H36.0163V229.817H34.8ZM36.0163 225.585H37.9526C38.3912 225.585 38.7511 225.432 39.0324 225.126C39.3138 224.811 39.4545 224.41 39.4545 223.922C39.4545 223.417 39.289 223.012 38.958 222.705C38.6353 222.399 38.2215 222.246 37.7168 222.246H36.0163V225.585ZM45.4764 229.817L45.4267 228.738V226.578C45.4267 226.123 45.3729 225.742 45.2654 225.436C45.1661 225.13 45.0089 224.898 44.7937 224.741C44.5869 224.584 44.3097 224.505 43.9621 224.505C43.6394 224.505 43.3581 224.571 43.1181 224.704C42.8864 224.836 42.692 225.043 42.5347 225.324L41.4921 224.927C41.6411 224.646 41.8273 224.398 42.0507 224.182C42.2741 223.959 42.543 223.785 42.8575 223.661C43.1719 223.529 43.5401 223.462 43.9621 223.462C44.5496 223.462 45.0378 223.578 45.4267 223.81C45.8156 224.042 46.1052 224.377 46.2956 224.815C46.4942 225.254 46.5893 225.796 46.581 226.441L46.5686 229.817H45.4764ZM43.6518 229.966C42.9154 229.966 42.3403 229.801 41.9266 229.47C41.5211 229.131 41.3184 228.663 41.3184 228.067C41.3184 227.43 41.5294 226.946 41.9514 226.615C42.3817 226.276 42.9774 226.106 43.7387 226.106H45.464V227.037H44.0614C43.4905 227.037 43.0891 227.128 42.8575 227.31C42.6258 227.484 42.5099 227.728 42.5099 228.042C42.5099 228.332 42.6175 228.56 42.8326 228.725C43.056 228.882 43.3622 228.961 43.7511 228.961C44.0904 228.961 44.3841 228.891 44.6324 228.75C44.8806 228.601 45.0751 228.394 45.2157 228.129C45.3564 227.865 45.4267 227.563 45.4267 227.223H45.8363C45.8363 228.067 45.6543 228.738 45.2902 229.234C44.9344 229.722 44.3883 229.966 43.6518 229.966ZM48.7139 232.449C48.5318 232.449 48.3291 232.416 48.1057 232.349C47.8905 232.283 47.6671 232.196 47.4354 232.089L47.8698 231.121C48.0519 231.203 48.2091 231.265 48.3415 231.307C48.4822 231.348 48.5939 231.369 48.6766 231.369C48.8835 231.369 49.0573 231.311 49.1979 231.195C49.3469 231.079 49.4668 230.918 49.5579 230.711L50.2778 229.011L52.4871 223.611H53.7531L50.8115 230.587C50.6543 230.968 50.4888 231.299 50.315 231.58C50.1412 231.861 49.9261 232.076 49.6696 232.225C49.4213 232.374 49.1028 232.449 48.7139 232.449ZM49.9551 229.817L47.2368 223.611H48.4904L50.737 228.998L51.0969 229.817H49.9551ZM54.548 226.64V225.61H58.2715V226.64H54.548ZM66.0918 229.817L62.6537 221.129H63.8949L67.3951 229.817H66.0918ZM59.0915 229.817L62.5917 221.129H63.8329L60.3948 229.817H59.0915ZM60.7423 227.496V226.404H65.7443V227.496H60.7423ZM70.5418 229.966C70.1033 229.966 69.7102 229.9 69.3627 229.768C69.0234 229.635 68.7338 229.457 68.4938 229.234C68.2621 229.011 68.0884 228.758 67.9725 228.477L68.9903 228.03C69.1227 228.287 69.3213 228.498 69.5861 228.663C69.8509 228.829 70.1446 228.911 70.4673 228.911C70.8231 228.911 71.1169 228.845 71.3486 228.713C71.5803 228.58 71.6961 228.394 71.6961 228.154C71.6961 227.922 71.6092 227.74 71.4355 227.608C71.2617 227.476 71.0093 227.368 70.6783 227.285L70.095 227.136C69.5158 226.979 69.0648 226.743 68.7421 226.429C68.4276 226.114 68.2704 225.759 68.2704 225.361C68.2704 224.757 68.4649 224.29 68.8538 223.959C69.2427 223.628 69.8178 223.462 70.579 223.462C70.9514 223.462 71.2907 223.516 71.5968 223.624C71.9113 223.731 72.176 223.884 72.3912 224.083C72.6146 224.282 72.7718 224.517 72.8628 224.791L71.8699 225.237C71.7706 224.989 71.601 224.807 71.361 224.691C71.121 224.567 70.8397 224.505 70.517 224.505C70.186 224.505 69.9253 224.58 69.735 224.728C69.5447 224.869 69.4496 225.068 69.4496 225.324C69.4496 225.465 69.5282 225.601 69.6854 225.734C69.8509 225.858 70.0908 225.961 70.4053 226.044L71.0755 226.206C71.481 226.305 71.8161 226.458 72.0809 226.665C72.3457 226.863 72.5443 227.091 72.6767 227.347C72.8091 227.596 72.8753 227.856 72.8753 228.129C72.8753 228.502 72.7718 228.829 72.565 229.11C72.3664 229.383 72.0892 229.594 71.7334 229.743C71.3858 229.892 70.9886 229.966 70.5418 229.966ZM73.9901 226.64V225.61H77.7137V226.64H73.9901ZM82.8406 226.206L81.7359 225.784L84.5534 221.129H85.9684L82.8406 226.206ZM81.6366 229.817V225.647H82.8654V229.817H81.6366ZM81.6614 226.206L78.5336 221.129H79.9362L82.7537 225.784L81.6614 226.206ZM88.8582 229.966C88.2376 229.966 87.6915 229.83 87.2199 229.557C86.7482 229.275 86.3759 228.891 86.1028 228.402C85.838 227.914 85.7056 227.352 85.7056 226.714C85.7056 226.077 85.838 225.515 86.1028 225.026C86.3676 224.538 86.7358 224.158 87.2075 223.884C87.6791 223.603 88.2211 223.462 88.8334 223.462C89.4457 223.462 89.9877 223.603 90.4594 223.884C90.931 224.158 91.2993 224.538 91.564 225.026C91.8288 225.515 91.9612 226.077 91.9612 226.714C91.9612 227.352 91.8288 227.914 91.564 228.402C91.2993 228.891 90.931 229.275 90.4594 229.557C89.996 229.83 89.4623 229.966 88.8582 229.966ZM88.8582 228.886C89.2306 228.886 89.5616 228.795 89.8512 228.613C90.1408 228.423 90.3642 228.167 90.5214 227.844C90.6869 227.521 90.7697 227.145 90.7697 226.714C90.7697 226.284 90.6869 225.908 90.5214 225.585C90.3642 225.262 90.1367 225.01 89.8388 224.828C89.5409 224.637 89.2058 224.542 88.8334 224.542C88.4528 224.542 88.1177 224.637 87.8281 224.828C87.5384 225.01 87.3109 225.262 87.1454 225.585C86.9799 225.908 86.8972 226.284 86.8972 226.714C86.8972 227.145 86.9799 227.521 87.1454 227.844C87.3109 228.167 87.5426 228.423 87.8405 228.613C88.1383 228.795 88.4776 228.886 88.8582 228.886ZM97.4731 229.817L97.3986 228.675V223.611H98.5654V229.817H97.4731ZM93.1041 226.789V223.611H94.2832V226.789H93.1041ZM94.2832 226.789C94.2832 227.343 94.3453 227.769 94.4694 228.067C94.6018 228.365 94.7838 228.572 95.0155 228.688C95.2472 228.804 95.5079 228.866 95.7975 228.874C96.3022 228.874 96.6953 228.696 96.9766 228.34C97.258 227.985 97.3986 227.484 97.3986 226.839H97.9075C97.9075 227.492 97.8082 228.055 97.6096 228.527C97.4193 228.99 97.1463 229.346 96.7904 229.594C96.4346 229.842 96.0002 229.966 95.4872 229.966C95.0073 229.966 94.5853 229.867 94.2212 229.668C93.8654 229.47 93.5882 229.16 93.3896 228.738C93.1993 228.316 93.1041 227.769 93.1041 227.099V226.789H94.2832ZM100.099 226.64V225.61H103.822V226.64H100.099ZM109.582 229.966C108.705 229.966 107.923 229.776 107.236 229.395C106.558 229.006 106.024 228.477 105.635 227.807C105.255 227.128 105.064 226.354 105.064 225.486C105.064 224.6 105.255 223.822 105.635 223.152C106.024 222.474 106.558 221.944 107.236 221.563C107.923 221.175 108.705 220.98 109.582 220.98C110.062 220.98 110.521 221.059 110.96 221.216C111.407 221.365 111.808 221.576 112.164 221.849C112.528 222.114 112.822 222.42 113.045 222.767L112.065 223.413C111.899 223.156 111.684 222.929 111.419 222.73C111.154 222.532 110.861 222.378 110.538 222.271C110.224 222.155 109.905 222.097 109.582 222.097C108.945 222.097 108.378 222.242 107.882 222.532C107.394 222.821 107.009 223.218 106.728 223.723C106.446 224.228 106.306 224.815 106.306 225.486C106.306 226.139 106.442 226.719 106.715 227.223C106.996 227.728 107.385 228.125 107.882 228.415C108.387 228.704 108.962 228.849 109.607 228.849C110.128 228.849 110.592 228.742 110.997 228.527C111.411 228.311 111.734 228.009 111.965 227.62C112.205 227.232 112.325 226.781 112.325 226.268L113.504 226.156C113.504 226.925 113.335 227.596 112.996 228.167C112.665 228.738 112.205 229.18 111.618 229.495C111.03 229.809 110.352 229.966 109.582 229.966ZM110.215 226.342V225.324H113.504V226.218L112.884 226.342H110.215ZM117.537 229.966C116.916 229.966 116.37 229.83 115.898 229.557C115.427 229.275 115.054 228.891 114.781 228.402C114.516 227.914 114.384 227.352 114.384 226.714C114.384 226.077 114.516 225.515 114.781 225.026C115.046 224.538 115.414 224.158 115.886 223.884C116.357 223.603 116.899 223.462 117.512 223.462C118.124 223.462 118.666 223.603 119.138 223.884C119.609 224.158 119.978 224.538 120.242 225.026C120.507 225.515 120.64 226.077 120.64 226.714C120.64 227.352 120.507 227.914 120.242 228.402C119.978 228.891 119.609 229.275 119.138 229.557C118.674 229.83 118.141 229.966 117.537 229.966ZM117.537 228.886C117.909 228.886 118.24 228.795 118.53 228.613C118.819 228.423 119.043 228.167 119.2 227.844C119.365 227.521 119.448 227.145 119.448 226.714C119.448 226.284 119.365 225.908 119.2 225.585C119.043 225.262 118.815 225.01 118.517 224.828C118.219 224.637 117.884 224.542 117.512 224.542C117.131 224.542 116.796 224.637 116.506 224.828C116.217 225.01 115.989 225.262 115.824 225.585C115.658 225.908 115.576 226.284 115.576 226.714C115.576 227.145 115.658 227.521 115.824 227.844C115.989 228.167 116.221 228.423 116.519 228.613C116.817 228.795 117.156 228.886 117.537 228.886Z" fill="#4B5563"/>
<path opacity="0.5" d="M272.471 225.818C272.471 229.898 269.164 233.206 265.083 233.206C261.003 233.206 257.695 229.898 257.695 225.818C257.695 221.737 261.003 218.43 265.083 218.43C269.164 218.43 272.471 221.737 272.471 225.818Z" fill="#5E2A8C"/>
<path d="M268.061 223.579C268.165 223.683 268.223 223.824 268.223 223.971C268.223 224.117 268.165 224.258 268.061 224.362L264.367 228.056C264.263 228.16 264.122 228.218 263.975 228.218C263.828 228.218 263.688 228.16 263.584 228.056L262.106 226.579C262.052 226.528 262.008 226.467 261.978 226.399C261.947 226.331 261.931 226.257 261.93 226.183C261.928 226.109 261.942 226.035 261.97 225.966C261.998 225.897 262.039 225.834 262.092 225.781C262.145 225.729 262.207 225.687 262.276 225.659C262.345 225.632 262.419 225.618 262.494 225.619C262.568 225.62 262.641 225.637 262.709 225.667C262.777 225.697 262.838 225.741 262.889 225.795L263.975 226.882L265.626 225.23L267.278 223.579C267.382 223.475 267.522 223.417 267.669 223.417C267.816 223.417 267.957 223.475 268.061 223.579Z" fill="#5E2A8C"/>
</svg>
