<svg width="297" height="268" viewBox="0 0 297 268" fill="none" xmlns="http://www.w3.org/2000/svg">
<rect width="297" height="405.744" rx="32" fill="white"/>
<rect x="2.232" y="2.232" width="292.536" height="401.28" rx="29.768" stroke="#EDD9FF" stroke-opacity="0.623529" stroke-width="4.464"/>
<mask id="path-3-inside-1_2792_155689" fill="white">
<path d="M0 0H297V65.592H0V0Z"/>
</mask>
<path d="M297 65.592V64.848H0V65.592V66.336H297V65.592Z" fill="#E5E7EB" mask="url(#path-3-inside-1_2792_155689)"/>
<rect x="14.8828" y="17.8564" width="249.24" height="29.88" rx="5.952" fill="white"/>
<rect x="14.6968" y="17.6704" width="249.612" height="30.252" rx="6.138" stroke="#18181B" stroke-opacity="0.06" stroke-width="0.372"/>
<path d="M31.8491 30.6154C31.8047 30.2406 31.6247 29.9496 31.3091 29.7425C30.9934 29.5354 30.6063 29.4318 30.1476 29.4318C29.8123 29.4318 29.5188 29.486 29.2673 29.5945C29.0182 29.703 28.8234 29.8522 28.6829 30.0421C28.5448 30.232 28.4757 30.4477 28.4757 30.6894C28.4757 30.8916 28.5238 31.0654 28.62 31.2109C28.7186 31.354 28.8444 31.4736 28.9973 31.5697C29.1502 31.6634 29.3105 31.7411 29.4781 31.8028C29.6458 31.8619 29.7999 31.91 29.9405 31.947L30.7099 32.1541C30.9071 32.2059 31.1266 32.2774 31.3683 32.3687C31.6124 32.4599 31.8454 32.5844 32.0673 32.7423C32.2917 32.8976 32.4767 33.0974 32.6222 33.3415C32.7677 33.5856 32.8404 33.8852 32.8404 34.2403C32.8404 34.6496 32.7331 35.0195 32.5186 35.35C32.3065 35.6804 31.9958 35.943 31.5865 36.1378C31.1796 36.3326 30.6852 36.43 30.1032 36.43C29.5607 36.43 29.091 36.3425 28.694 36.1674C28.2994 35.9923 27.9887 35.7482 27.7619 35.435C27.5375 35.1219 27.4105 34.7581 27.3809 34.3439H28.3278C28.3524 34.6299 28.4486 34.8666 28.6163 35.0541C28.7864 35.239 29.001 35.3771 29.2599 35.4683C29.5213 35.5571 29.8024 35.6015 30.1032 35.6015C30.4534 35.6015 30.7678 35.5448 31.0465 35.4313C31.3251 35.3154 31.5458 35.1552 31.7086 34.9505C31.8713 34.7434 31.9527 34.5017 31.9527 34.2255C31.9527 33.974 31.8824 33.7693 31.7418 33.6115C31.6013 33.4537 31.4163 33.3255 31.187 33.2268C30.9577 33.1282 30.7099 33.0419 30.4435 32.9679L29.5114 32.7016C28.9196 32.5314 28.4511 32.2885 28.1059 31.9729C27.7606 31.6573 27.588 31.2442 27.588 30.7338C27.588 30.3096 27.7027 29.9398 27.932 29.6241C28.1638 29.306 28.4745 29.0594 28.8641 28.8844C29.2562 28.7068 29.6939 28.618 30.1772 28.618C30.6655 28.618 31.0995 28.7056 31.4792 28.8807C31.859 29.0533 32.1598 29.29 32.3817 29.5908C32.6061 29.8917 32.7245 30.2332 32.7368 30.6154H31.8491ZM35.1032 32.8791V36.2969H34.2303V28.7216H35.1032V31.5031H35.1772C35.3103 31.2097 35.5101 30.9767 35.7764 30.8041C36.0452 30.629 36.4027 30.5414 36.849 30.5414C37.2362 30.5414 37.5753 30.6191 37.8662 30.7745C38.1572 30.9274 38.3828 31.1629 38.5431 31.481C38.7059 31.7966 38.7873 32.1985 38.7873 32.6868V36.2969H37.9143V32.746C37.9143 32.2947 37.7972 31.9458 37.5629 31.6992C37.3311 31.4501 37.0093 31.3256 36.5975 31.3256C36.3115 31.3256 36.055 31.386 35.8282 31.5068C35.6038 31.6277 35.4262 31.804 35.2955 32.0358C35.1673 32.2676 35.1032 32.5487 35.1032 32.8791ZM42.6923 36.4152C42.1794 36.4152 41.7294 36.2932 41.3422 36.0491C40.9576 35.8049 40.6567 35.4634 40.4397 35.0245C40.2252 34.5855 40.1179 34.0726 40.1179 33.4857C40.1179 32.8939 40.2252 32.3773 40.4397 31.9359C40.6567 31.4945 40.9576 31.1518 41.3422 30.9076C41.7294 30.6635 42.1794 30.5414 42.6923 30.5414C43.2052 30.5414 43.654 30.6635 44.0387 30.9076C44.4259 31.1518 44.7267 31.4945 44.9412 31.9359C45.1582 32.3773 45.2667 32.8939 45.2667 33.4857C45.2667 34.0726 45.1582 34.5855 44.9412 35.0245C44.7267 35.4634 44.4259 35.8049 44.0387 36.0491C43.654 36.2932 43.2052 36.4152 42.6923 36.4152ZM42.6923 35.6311C43.0819 35.6311 43.4025 35.5312 43.654 35.3315C43.9056 35.1317 44.0917 34.8691 44.2126 34.5436C44.3334 34.2181 44.3938 33.8655 44.3938 33.4857C44.3938 33.106 44.3334 32.7521 44.2126 32.4242C44.0917 32.0962 43.9056 31.8311 43.654 31.6289C43.4025 31.4267 43.0819 31.3256 42.6923 31.3256C42.3027 31.3256 41.9821 31.4267 41.7306 31.6289C41.4791 31.8311 41.2929 32.0962 41.1721 32.4242C41.0513 32.7521 40.9908 33.106 40.9908 33.4857C40.9908 33.8655 41.0513 34.2181 41.1721 34.5436C41.2929 34.8691 41.4791 35.1317 41.7306 35.3315C41.9821 35.5312 42.3027 35.6311 42.6923 35.6311ZM47.6932 36.2969L45.9621 30.6154H46.8794L48.1075 34.9653H48.1666L49.3799 30.6154H50.312L51.5104 34.9505H51.5696L52.7976 30.6154H53.7149L51.9839 36.2969H51.1257L49.8829 31.9322H49.7941L48.5513 36.2969H47.6932ZM54.869 36.2969V30.6154H55.7419V36.2969H54.869ZM55.3129 29.6685C55.1427 29.6685 54.996 29.6106 54.8727 29.4947C54.7519 29.3788 54.6914 29.2394 54.6914 29.0767C54.6914 28.9139 54.7519 28.7746 54.8727 28.6587C54.996 28.5428 55.1427 28.4849 55.3129 28.4849C55.483 28.4849 55.6285 28.5428 55.7493 28.6587C55.8726 28.7746 55.9343 28.9139 55.9343 29.0767C55.9343 29.2394 55.8726 29.3788 55.7493 29.4947C55.6285 29.6106 55.483 29.6685 55.3129 29.6685ZM58.2137 32.8791V36.2969H57.3408V30.6154H58.1841V31.5031H58.2581C58.3912 31.2146 58.5934 30.9828 58.8647 30.8078C59.1359 30.6302 59.4861 30.5414 59.9152 30.5414C60.2998 30.5414 60.6364 30.6204 60.925 30.7782C61.2135 30.9335 61.4379 31.1702 61.5981 31.4884C61.7584 31.804 61.8386 32.2035 61.8386 32.6868V36.2969H60.9656V32.746C60.9656 32.2996 60.8497 31.9519 60.6179 31.7029C60.3862 31.4514 60.068 31.3256 59.6636 31.3256C59.385 31.3256 59.1359 31.386 58.9165 31.5068C58.6995 31.6277 58.5281 31.804 58.4023 32.0358C58.2766 32.2676 58.2137 32.5487 58.2137 32.8791ZM65.727 38.5458C65.3053 38.5458 64.9428 38.4915 64.6395 38.383C64.3362 38.277 64.0835 38.1364 63.8813 37.9614C63.6815 37.7888 63.5225 37.6038 63.4041 37.4065L64.0995 36.9183C64.1784 37.0219 64.2783 37.1402 64.3991 37.2734C64.5199 37.409 64.6852 37.5261 64.8948 37.6248C65.1068 37.7259 65.3842 37.7764 65.727 37.7764C66.1857 37.7764 66.5642 37.6655 66.8626 37.4435C67.1609 37.2216 67.3101 36.8739 67.3101 36.4004V35.2464H67.2361C67.172 35.35 67.0808 35.4782 66.9624 35.6311C66.8465 35.7815 66.6788 35.9159 66.4594 36.0343C66.2424 36.1502 65.9489 36.2081 65.579 36.2081C65.1204 36.2081 64.7086 36.0996 64.3436 35.8826C63.9811 35.6656 63.6939 35.35 63.4818 34.9357C63.2722 34.5214 63.1674 34.0184 63.1674 33.4266C63.1674 32.8446 63.2697 32.3379 63.4744 31.9063C63.6791 31.4723 63.9639 31.137 64.3288 30.9002C64.6938 30.661 65.1155 30.5414 65.5938 30.5414C65.9637 30.5414 66.2572 30.6031 66.4742 30.7264C66.6936 30.8472 66.8613 30.9853 66.9772 31.1407C67.0956 31.2935 67.1868 31.4193 67.2509 31.5179H67.3397V30.6154H68.183V36.4596C68.183 36.9479 68.0721 37.3449 67.8501 37.6507C67.6307 37.9589 67.3348 38.1845 66.9624 38.3276C66.5925 38.473 66.1807 38.5458 65.727 38.5458ZM65.6974 35.4239C66.0476 35.4239 66.3435 35.3438 66.5851 35.1835C66.8268 35.0232 67.0105 34.7927 67.1363 34.4918C67.262 34.191 67.3249 33.831 67.3249 33.4118C67.3249 33.0024 67.2633 32.6412 67.14 32.328C67.0167 32.0148 66.8342 31.7695 66.5925 31.5919C66.3509 31.4144 66.0525 31.3256 65.6974 31.3256C65.3275 31.3256 65.0193 31.4193 64.7727 31.6067C64.5286 31.7941 64.3449 32.0456 64.2216 32.3613C64.1007 32.6769 64.0403 33.0271 64.0403 33.4118C64.0403 33.8063 64.102 34.1552 64.2253 34.4585C64.351 34.7594 64.536 34.9961 64.7801 35.1687C65.0267 35.3389 65.3325 35.4239 65.6974 35.4239ZM75.2405 30.6154V31.3552H72.1778V30.6154H75.2405ZM73.0951 36.2969V29.8313C73.0951 29.5058 73.1716 29.2345 73.3245 29.0175C73.4774 28.8005 73.6759 28.6378 73.92 28.5293C74.1641 28.4208 74.4218 28.3665 74.693 28.3665C74.9076 28.3665 75.0827 28.3838 75.2183 28.4183C75.3539 28.4528 75.455 28.4849 75.5216 28.5145L75.2701 29.269C75.2257 29.2542 75.164 29.2357 75.0851 29.2136C75.0087 29.1914 74.9076 29.1803 74.7818 29.1803C74.4933 29.1803 74.2849 29.253 74.1567 29.3985C74.031 29.544 73.9681 29.7573 73.9681 30.0384V36.2969H73.0951ZM78.538 36.4152C78.0251 36.4152 77.5751 36.2932 77.1879 36.0491C76.8032 35.8049 76.5024 35.4634 76.2854 35.0245C76.0709 34.5855 75.9636 34.0726 75.9636 33.4857C75.9636 32.8939 76.0709 32.3773 76.2854 31.9359C76.5024 31.4945 76.8032 31.1518 77.1879 30.9076C77.5751 30.6635 78.0251 30.5414 78.538 30.5414C79.0509 30.5414 79.4997 30.6635 79.8844 30.9076C80.2715 31.1518 80.5724 31.4945 80.7869 31.9359C81.0039 32.3773 81.1124 32.8939 81.1124 33.4857C81.1124 34.0726 81.0039 34.5855 80.7869 35.0245C80.5724 35.4634 80.2715 35.8049 79.8844 36.0491C79.4997 36.2932 79.0509 36.4152 78.538 36.4152ZM78.538 35.6311C78.9276 35.6311 79.2482 35.5312 79.4997 35.3315C79.7512 35.1317 79.9374 34.8691 80.0582 34.5436C80.1791 34.2181 80.2395 33.8655 80.2395 33.4857C80.2395 33.106 80.1791 32.7521 80.0582 32.4242C79.9374 32.0962 79.7512 31.8311 79.4997 31.6289C79.2482 31.4267 78.9276 31.3256 78.538 31.3256C78.1484 31.3256 77.8278 31.4267 77.5763 31.6289C77.3248 31.8311 77.1386 32.0962 77.0178 32.4242C76.897 32.7521 76.8365 33.106 76.8365 33.4857C76.8365 33.8655 76.897 34.2181 77.0178 34.5436C77.1386 34.8691 77.3248 35.1317 77.5763 35.3315C77.8278 35.5312 78.1484 35.6311 78.538 35.6311ZM82.4449 36.2969V30.6154H83.2883V31.4736H83.3475C83.451 31.1924 83.6384 30.9643 83.9097 30.7893C84.1809 30.6142 84.4867 30.5266 84.827 30.5266C84.8911 30.5266 84.9713 30.5279 85.0674 30.5303C85.1636 30.5328 85.2363 30.5365 85.2857 30.5414V31.4292C85.2561 31.4218 85.1883 31.4107 85.0822 31.3959C84.9787 31.3786 84.8689 31.37 84.753 31.37C84.4768 31.37 84.2303 31.4279 84.0133 31.5438C83.7987 31.6573 83.6286 31.8151 83.5028 32.0173C83.3795 32.217 83.3179 32.4451 83.3179 32.7016V36.2969H82.4449ZM86.9566 36.3561C86.7742 36.3561 86.6176 36.2907 86.4869 36.16C86.3562 36.0293 86.2908 35.8727 86.2908 35.6903C86.2908 35.5078 86.3562 35.3512 86.4869 35.2205C86.6176 35.0898 86.7742 35.0245 86.9566 35.0245C87.1391 35.0245 87.2957 35.0898 87.4264 35.2205C87.5571 35.3512 87.6224 35.5078 87.6224 35.6903C87.6224 35.8111 87.5916 35.9221 87.53 36.0232C87.4708 36.1243 87.3906 36.2056 87.2895 36.2673C87.1909 36.3265 87.0799 36.3561 86.9566 36.3561ZM86.9566 32.1394C86.7742 32.1394 86.6176 32.074 86.4869 31.9433C86.3562 31.8126 86.2908 31.656 86.2908 31.4736C86.2908 31.2911 86.3562 31.1345 86.4869 31.0038C86.6176 30.8731 86.7742 30.8078 86.9566 30.8078C87.1391 30.8078 87.2957 30.8731 87.4264 31.0038C87.5571 31.1345 87.6224 31.2911 87.6224 31.4736C87.6224 31.5944 87.5916 31.7054 87.53 31.8065C87.4708 31.9076 87.3906 31.9889 87.2895 32.0506C87.1909 32.1098 87.0799 32.1394 86.9566 32.1394Z" fill="#71717A"/>
<path d="M98.5187 28.7216H99.658V34.0924C99.658 34.5781 99.5618 34.9936 99.3695 35.3389C99.1796 35.6841 98.912 35.9479 98.5668 36.1304C98.2216 36.3104 97.8172 36.4004 97.3536 36.4004C96.927 36.4004 96.5435 36.3228 96.2032 36.1674C95.8654 36.0121 95.5979 35.7864 95.4006 35.4905C95.2058 35.1921 95.1084 34.8297 95.1084 34.4031H96.2439C96.2439 34.6127 96.292 34.7939 96.3882 34.9468C96.4868 35.0997 96.6212 35.2193 96.7914 35.3056C96.964 35.3894 97.1612 35.4313 97.3832 35.4313C97.6248 35.4313 97.8295 35.3808 97.9972 35.2797C98.1673 35.1761 98.2968 35.0245 98.3856 34.8247C98.4743 34.625 98.5187 34.3809 98.5187 34.0924V28.7216ZM102.886 36.4226C102.526 36.4226 102.201 36.3561 101.91 36.2229C101.619 36.0873 101.388 35.8912 101.218 35.6348C101.05 35.3783 100.966 35.0639 100.966 34.6916C100.966 34.371 101.028 34.1071 101.151 33.9C101.275 33.6929 101.441 33.5289 101.651 33.4081C101.86 33.2872 102.095 33.196 102.354 33.1343C102.612 33.0727 102.876 33.0258 103.145 32.9938C103.485 32.9543 103.762 32.9223 103.974 32.8976C104.186 32.8705 104.34 32.8273 104.436 32.7682C104.532 32.709 104.58 32.6128 104.58 32.4796V32.4538C104.58 32.1307 104.489 31.8804 104.307 31.7029C104.127 31.5253 103.858 31.4366 103.5 31.4366C103.128 31.4366 102.834 31.5192 102.62 31.6844C102.408 31.8471 102.261 32.0284 102.18 32.2281L101.14 31.9914C101.264 31.6462 101.444 31.3675 101.68 31.1555C101.92 30.9409 102.194 30.7856 102.505 30.6894C102.816 30.5908 103.143 30.5414 103.485 30.5414C103.712 30.5414 103.953 30.5686 104.207 30.6228C104.463 30.6746 104.702 30.7708 104.924 30.9113C105.149 31.0519 105.332 31.2529 105.475 31.5142C105.618 31.7732 105.69 32.1098 105.69 32.524V36.2969H104.61V35.5201H104.565C104.494 35.6631 104.387 35.8037 104.244 35.9418C104.101 36.0799 103.917 36.1945 103.693 36.2858C103.468 36.377 103.199 36.4226 102.886 36.4226ZM103.127 35.5349C103.432 35.5349 103.694 35.4745 103.911 35.3537C104.13 35.2328 104.297 35.075 104.41 34.8802C104.526 34.6829 104.584 34.4721 104.584 34.2477V33.5153C104.544 33.5548 104.468 33.5918 104.355 33.6263C104.244 33.6584 104.117 33.6867 103.974 33.7114C103.831 33.7336 103.691 33.7545 103.556 33.7742C103.42 33.7915 103.307 33.8063 103.215 33.8186C103.001 33.8458 102.805 33.8914 102.627 33.9555C102.452 34.0196 102.312 34.1121 102.206 34.2329C102.102 34.3513 102.05 34.5091 102.05 34.7064C102.05 34.9801 102.151 35.1872 102.354 35.3278C102.556 35.4659 102.813 35.5349 103.127 35.5349ZM108.269 32.9235V36.2969H107.163V30.6154H108.225V31.5401H108.295C108.426 31.2393 108.63 30.9976 108.909 30.8152C109.19 30.6327 109.544 30.5414 109.97 30.5414C110.358 30.5414 110.697 30.6228 110.988 30.7856C111.279 30.9459 111.504 31.185 111.664 31.5031C111.825 31.8212 111.905 32.2146 111.905 32.6831V36.2969H110.799V32.8162C110.799 32.4044 110.692 32.0826 110.477 31.8508C110.263 31.6166 109.968 31.4994 109.593 31.4994C109.337 31.4994 109.109 31.5549 108.909 31.6659C108.712 31.7769 108.555 31.9396 108.439 32.1541C108.326 32.3662 108.269 32.6227 108.269 32.9235ZM118.767 36.4226C118.183 36.4202 117.683 36.2661 117.269 35.9603C116.855 35.6545 116.538 35.2094 116.319 34.625C116.099 34.0406 115.989 33.3366 115.989 32.5129C115.989 31.6918 116.099 30.9902 116.319 30.4083C116.541 29.8263 116.859 29.3825 117.273 29.0767C117.69 28.7709 118.188 28.618 118.767 28.618C119.347 28.618 119.844 28.7722 120.258 29.0804C120.672 29.3862 120.989 29.83 121.208 30.412C121.43 30.9915 121.541 31.6918 121.541 32.5129C121.541 33.339 121.432 34.0443 121.212 34.6287C120.993 35.2106 120.676 35.6557 120.262 35.964C119.847 36.2698 119.349 36.4226 118.767 36.4226ZM118.767 35.435C119.28 35.435 119.681 35.1847 119.969 34.6842C120.26 34.1836 120.406 33.4598 120.406 32.5129C120.406 31.8841 120.339 31.3527 120.206 30.9187C120.075 30.4823 119.887 30.1518 119.64 29.9274C119.396 29.7006 119.105 29.5871 118.767 29.5871C118.257 29.5871 117.856 29.8387 117.565 30.3417C117.274 30.8447 117.127 31.5685 117.125 32.5129C117.125 33.1442 117.19 33.6781 117.321 34.1145C117.454 34.5485 117.643 34.8777 117.887 35.1021C118.131 35.3241 118.424 35.435 118.767 35.435ZM125.413 36.4004C124.883 36.4004 124.414 36.3092 124.008 36.1267C123.603 35.9442 123.286 35.6927 123.057 35.3722C122.828 35.0516 122.714 34.6866 122.717 34.2773C122.714 33.9567 122.78 33.6621 122.913 33.3933C123.048 33.122 123.232 32.8964 123.464 32.7164C123.696 32.5339 123.955 32.418 124.241 32.3687V32.3243C123.863 32.2331 123.561 32.0309 123.334 31.7177C123.108 31.4045 122.995 31.0445 122.998 30.6376C122.995 30.2505 123.098 29.9052 123.305 29.6019C123.514 29.2962 123.802 29.0557 124.167 28.8807C124.532 28.7056 124.947 28.618 125.413 28.618C125.874 28.618 126.286 28.7068 126.649 28.8844C127.014 29.0594 127.301 29.2999 127.51 29.6056C127.72 29.9089 127.826 30.2529 127.829 30.6376C127.826 31.0445 127.71 31.4045 127.481 31.7177C127.252 32.0309 126.953 32.2331 126.586 32.3243V32.3687C126.869 32.418 127.125 32.5339 127.351 32.7164C127.581 32.8964 127.763 33.122 127.899 33.3933C128.037 33.6621 128.107 33.9567 128.11 34.2773C128.107 34.6866 127.991 35.0516 127.762 35.3722C127.533 35.6927 127.215 35.9442 126.808 36.1267C126.403 36.3092 125.938 36.4004 125.413 36.4004ZM125.413 35.4646C125.726 35.4646 125.998 35.4128 126.227 35.3093C126.456 35.2032 126.634 35.0565 126.76 34.8691C126.885 34.6792 126.949 34.4573 126.952 34.2033C126.949 33.9395 126.88 33.7064 126.745 33.5042C126.612 33.302 126.43 33.143 126.201 33.0271C125.972 32.9112 125.709 32.8532 125.413 32.8532C125.115 32.8532 124.85 32.9112 124.618 33.0271C124.386 33.143 124.204 33.302 124.07 33.5042C123.937 33.7064 123.872 33.9395 123.874 34.2033C123.872 34.4573 123.932 34.6792 124.056 34.8691C124.181 35.0565 124.36 35.2032 124.592 35.3093C124.824 35.4128 125.098 35.4646 125.413 35.4646ZM125.413 31.9396C125.665 31.9396 125.888 31.8891 126.083 31.788C126.277 31.6869 126.43 31.5463 126.541 31.3663C126.655 31.1863 126.713 30.9754 126.715 30.7338C126.713 30.4971 126.656 30.2899 126.545 30.1124C126.437 29.9348 126.285 29.798 126.09 29.7018C125.895 29.6032 125.67 29.5538 125.413 29.5538C125.152 29.5538 124.922 29.6032 124.725 29.7018C124.53 29.798 124.379 29.9348 124.27 30.1124C124.162 30.2899 124.109 30.4971 124.111 30.7338C124.109 30.9754 124.163 31.1863 124.274 31.3663C124.385 31.5463 124.538 31.6869 124.733 31.788C124.93 31.8891 125.157 31.9396 125.413 31.9396ZM130.665 35.2612L130.609 35.6644C130.572 35.9603 130.509 36.2685 130.421 36.5891C130.334 36.9121 130.244 37.2117 130.15 37.4879C130.059 37.7641 129.984 37.9836 129.925 38.1463H129.141C129.173 37.9934 129.217 37.7863 129.274 37.5249C129.331 37.266 129.386 36.9762 129.44 36.6557C129.495 36.3351 129.535 36.0084 129.562 35.6755L129.599 35.2612H130.665ZM134.846 36.2969V35.4683L137.41 32.8125C137.683 32.524 137.909 32.2713 138.086 32.0543C138.266 31.8348 138.401 31.6264 138.49 31.4292C138.578 31.2319 138.623 31.0223 138.623 30.8004C138.623 30.5488 138.564 30.3318 138.445 30.1494C138.327 29.9644 138.165 29.8226 137.961 29.724C137.756 29.6229 137.525 29.5723 137.269 29.5723C136.998 29.5723 136.761 29.6278 136.559 29.7388C136.357 29.8498 136.201 30.0063 136.093 30.2085C135.984 30.4107 135.93 30.6475 135.93 30.9187H134.839C134.839 30.4576 134.945 30.0544 135.157 29.7092C135.369 29.364 135.66 29.0964 136.03 28.9065C136.4 28.7142 136.82 28.618 137.291 28.618C137.767 28.618 138.186 28.713 138.549 28.9028C138.914 29.0903 139.199 29.3467 139.403 29.6722C139.608 29.9952 139.71 30.3602 139.71 30.7671C139.71 31.0482 139.657 31.3231 139.551 31.5919C139.448 31.8607 139.266 32.1603 139.007 32.4907C138.748 32.8187 138.388 33.217 137.927 33.6855L136.422 35.2612V35.3167H139.832V36.2969H134.846ZM143.871 36.4226C143.287 36.4202 142.788 36.2661 142.373 35.9603C141.959 35.6545 141.642 35.2094 141.423 34.625C141.203 34.0406 141.094 33.3366 141.094 32.5129C141.094 31.6918 141.203 30.9902 141.423 30.4083C141.645 29.8263 141.963 29.3825 142.377 29.0767C142.794 28.7709 143.292 28.618 143.871 28.618C144.451 28.618 144.948 28.7722 145.362 29.0804C145.776 29.3862 146.093 29.83 146.313 30.412C146.535 30.9915 146.646 31.6918 146.646 32.5129C146.646 33.339 146.536 34.0443 146.316 34.6287C146.097 35.2106 145.78 35.6557 145.366 35.964C144.951 36.2698 144.453 36.4226 143.871 36.4226ZM143.871 35.435C144.384 35.435 144.785 35.1847 145.074 34.6842C145.365 34.1836 145.51 33.4598 145.51 32.5129C145.51 31.8841 145.443 31.3527 145.31 30.9187C145.18 30.4823 144.991 30.1518 144.744 29.9274C144.5 29.7006 144.209 29.5871 143.871 29.5871C143.361 29.5871 142.96 29.8387 142.669 30.3417C142.378 30.8447 142.232 31.5685 142.229 32.5129C142.229 33.1442 142.294 33.6781 142.425 34.1145C142.558 34.5485 142.747 34.8777 142.991 35.1021C143.235 35.3241 143.529 35.435 143.871 35.435ZM147.958 36.2969V35.4683L150.521 32.8125C150.795 32.524 151.02 32.2713 151.198 32.0543C151.378 31.8348 151.512 31.6264 151.601 31.4292C151.69 31.2319 151.734 31.0223 151.734 30.8004C151.734 30.5488 151.675 30.3318 151.557 30.1494C151.438 29.9644 151.277 29.8226 151.072 29.724C150.868 29.6229 150.637 29.5723 150.38 29.5723C150.109 29.5723 149.873 29.6278 149.67 29.7388C149.468 29.8498 149.313 30.0063 149.204 30.2085C149.096 30.4107 149.042 30.6475 149.042 30.9187H147.95C147.95 30.4576 148.056 30.0544 148.268 29.7092C148.481 29.364 148.771 29.0964 149.141 28.9065C149.511 28.7142 149.932 28.618 150.403 28.618C150.879 28.618 151.298 28.713 151.66 28.9028C152.025 29.0903 152.31 29.3467 152.515 29.6722C152.719 29.9952 152.822 30.3602 152.822 30.7671C152.822 31.0482 152.769 31.3231 152.663 31.5919C152.559 31.8607 152.378 32.1603 152.119 32.4907C151.86 32.8187 151.5 33.217 151.039 33.6855L149.533 35.2612V35.3167H152.944V36.2969H147.958ZM156.846 36.4004C156.383 36.4004 155.966 36.3117 155.596 36.1341C155.228 35.9541 154.935 35.7075 154.716 35.3944C154.496 35.0812 154.379 34.7236 154.364 34.3217H155.474C155.501 34.6472 155.645 34.9147 155.907 35.1243C156.168 35.3339 156.481 35.4387 156.846 35.4387C157.137 35.4387 157.395 35.3722 157.619 35.239C157.846 35.1034 158.024 34.9172 158.152 34.6805C158.283 34.4437 158.348 34.1737 158.348 33.8704C158.348 33.5622 158.281 33.2872 158.148 33.0456C158.015 32.8039 157.831 32.614 157.597 32.4759C157.365 32.3379 157.099 32.2676 156.798 32.2651C156.569 32.2651 156.338 32.3046 156.106 32.3835C155.875 32.4624 155.687 32.566 155.544 32.6942L154.497 32.5388L154.923 28.7216H159.088V29.7018H155.873L155.633 31.8212H155.677C155.825 31.6782 156.021 31.5586 156.265 31.4625C156.512 31.3663 156.776 31.3182 157.057 31.3182C157.518 31.3182 157.929 31.4279 158.289 31.6474C158.651 31.8669 158.936 32.1665 159.143 32.5462C159.353 32.9235 159.456 33.3575 159.454 33.8482C159.456 34.3389 159.345 34.7766 159.121 35.1613C158.899 35.546 158.591 35.8493 158.196 36.0712C157.804 36.2907 157.354 36.4004 156.846 36.4004ZM168.041 32.0321V32.9901H162.833V32.0321H168.041ZM174.574 28.7216H175.713V34.0924C175.713 34.5781 175.617 34.9936 175.425 35.3389C175.235 35.6841 174.967 35.9479 174.622 36.1304C174.277 36.3104 173.872 36.4004 173.409 36.4004C172.982 36.4004 172.599 36.3228 172.258 36.1674C171.921 36.0121 171.653 35.7864 171.456 35.4905C171.261 35.1921 171.163 34.8297 171.163 34.4031H172.299C172.299 34.6127 172.347 34.7939 172.443 34.9468C172.542 35.0997 172.676 35.2193 172.846 35.3056C173.019 35.3894 173.216 35.4313 173.438 35.4313C173.68 35.4313 173.885 35.3808 174.052 35.2797C174.222 35.1761 174.352 35.0245 174.441 34.8247C174.529 34.625 174.574 34.3809 174.574 34.0924V28.7216ZM178.941 36.4226C178.581 36.4226 178.256 36.3561 177.965 36.2229C177.674 36.0873 177.443 35.8912 177.273 35.6348C177.105 35.3783 177.022 35.0639 177.022 34.6916C177.022 34.371 177.083 34.1071 177.207 33.9C177.33 33.6929 177.496 33.5289 177.706 33.4081C177.915 33.2872 178.15 33.196 178.409 33.1343C178.668 33.0727 178.931 33.0258 179.2 32.9938C179.54 32.9543 179.817 32.9223 180.029 32.8976C180.241 32.8705 180.395 32.8273 180.491 32.7682C180.587 32.709 180.635 32.6128 180.635 32.4796V32.4538C180.635 32.1307 180.544 31.8804 180.362 31.7029C180.182 31.5253 179.913 31.4366 179.555 31.4366C179.183 31.4366 178.889 31.5192 178.675 31.6844C178.463 31.8471 178.316 32.0284 178.235 32.2281L177.195 31.9914C177.319 31.6462 177.499 31.3675 177.735 31.1555C177.975 30.9409 178.25 30.7856 178.56 30.6894C178.871 30.5908 179.198 30.5414 179.54 30.5414C179.767 30.5414 180.008 30.5686 180.262 30.6228C180.518 30.6746 180.757 30.7708 180.979 30.9113C181.204 31.0519 181.387 31.2529 181.53 31.5142C181.674 31.7732 181.745 32.1098 181.745 32.524V36.2969H180.665V35.5201H180.621C180.549 35.6631 180.442 35.8037 180.299 35.9418C180.156 36.0799 179.972 36.1945 179.748 36.2858C179.523 36.377 179.254 36.4226 178.941 36.4226ZM179.182 35.5349C179.487 35.5349 179.749 35.4745 179.966 35.3537C180.185 35.2328 180.352 35.075 180.465 34.8802C180.581 34.6829 180.639 34.4721 180.639 34.2477V33.5153C180.6 33.5548 180.523 33.5918 180.41 33.6263C180.299 33.6584 180.172 33.6867 180.029 33.7114C179.886 33.7336 179.746 33.7545 179.611 33.7742C179.475 33.7915 179.362 33.8063 179.27 33.8186C179.056 33.8458 178.86 33.8914 178.682 33.9555C178.507 34.0196 178.367 34.1121 178.261 34.2329C178.157 34.3513 178.105 34.5091 178.105 34.7064C178.105 34.9801 178.206 35.1872 178.409 35.3278C178.611 35.4659 178.869 35.5349 179.182 35.5349ZM184.324 32.9235V36.2969H183.218V30.6154H184.28V31.5401H184.35C184.481 31.2393 184.685 30.9976 184.964 30.8152C185.245 30.6327 185.599 30.5414 186.026 30.5414C186.413 30.5414 186.752 30.6228 187.043 30.7856C187.334 30.9459 187.559 31.185 187.72 31.5031C187.88 31.8212 187.96 32.2146 187.96 32.6831V36.2969H186.854V32.8162C186.854 32.4044 186.747 32.0826 186.532 31.8508C186.318 31.6166 186.023 31.4994 185.648 31.4994C185.392 31.4994 185.164 31.5549 184.964 31.6659C184.767 31.7769 184.61 31.9396 184.494 32.1541C184.381 32.3662 184.324 32.6227 184.324 32.9235ZM195.059 28.7216V36.2969H193.912V29.8682H193.868L192.056 31.0519V29.957L193.946 28.7216H195.059ZM196.949 34.8173V33.8926L200.223 28.7216H200.951V30.0828H200.489L198.148 33.789V33.8482H202.634V34.8173H196.949ZM200.541 36.2969V34.5362L200.548 34.1145V28.7216H201.632V36.2969H200.541ZM205.092 35.2612L205.037 35.6644C205 35.9603 204.937 36.2685 204.848 36.5891C204.762 36.9121 204.672 37.2117 204.578 37.4879C204.487 37.7641 204.412 37.9836 204.352 38.1463H203.568C203.6 37.9934 203.645 37.7863 203.701 37.5249C203.758 37.266 203.814 36.9762 203.868 36.6557C203.922 36.3351 203.963 36.0084 203.99 35.6755L204.027 35.2612H205.092ZM209.274 36.2969V35.4683L211.837 32.8125C212.111 32.524 212.336 32.2713 212.514 32.0543C212.694 31.8348 212.828 31.6264 212.917 31.4292C213.006 31.2319 213.05 31.0223 213.05 30.8004C213.05 30.5488 212.991 30.3318 212.873 30.1494C212.754 29.9644 212.593 29.8226 212.388 29.724C212.184 29.6229 211.953 29.5723 211.697 29.5723C211.425 29.5723 211.189 29.6278 210.986 29.7388C210.784 29.8498 210.629 30.0063 210.52 30.2085C210.412 30.4107 210.358 30.6475 210.358 30.9187H209.266C209.266 30.4576 209.372 30.0544 209.585 29.7092C209.797 29.364 210.088 29.0964 210.457 28.9065C210.827 28.7142 211.248 28.618 211.719 28.618C212.195 28.618 212.614 28.713 212.976 28.9028C213.341 29.0903 213.626 29.3467 213.831 29.6722C214.035 29.9952 214.138 30.3602 214.138 30.7671C214.138 31.0482 214.085 31.3231 213.979 31.5919C213.875 31.8607 213.694 32.1603 213.435 32.4907C213.176 32.8187 212.816 33.217 212.355 33.6855L210.85 35.2612V35.3167H214.26V36.2969H209.274ZM218.299 36.4226C217.715 36.4202 217.215 36.2661 216.801 35.9603C216.387 35.6545 216.07 35.2094 215.85 34.625C215.631 34.0406 215.521 33.3366 215.521 32.5129C215.521 31.6918 215.631 30.9902 215.85 30.4083C216.072 29.8263 216.39 29.3825 216.805 29.0767C217.221 28.7709 217.72 28.618 218.299 28.618C218.879 28.618 219.375 28.7722 219.79 29.0804C220.204 29.3862 220.521 29.83 220.74 30.412C220.962 30.9915 221.073 31.6918 221.073 32.5129C221.073 33.339 220.963 34.0443 220.744 34.6287C220.525 35.2106 220.208 35.6557 219.793 35.964C219.379 36.2698 218.881 36.4226 218.299 36.4226ZM218.299 35.435C218.812 35.435 219.213 35.1847 219.501 34.6842C219.792 34.1836 219.938 33.4598 219.938 32.5129C219.938 31.8841 219.871 31.3527 219.738 30.9187C219.607 30.4823 219.419 30.1518 219.172 29.9274C218.928 29.7006 218.637 29.5871 218.299 29.5871C217.789 29.5871 217.388 29.8387 217.097 30.3417C216.806 30.8447 216.659 31.5685 216.657 32.5129C216.657 33.1442 216.722 33.6781 216.853 34.1145C216.986 34.5485 217.175 34.8777 217.419 35.1021C217.663 35.3241 217.956 35.435 218.299 35.435ZM222.385 36.2969V35.4683L224.949 32.8125C225.222 32.524 225.448 32.2713 225.626 32.0543C225.806 31.8348 225.94 31.6264 226.029 31.4292C226.118 31.2319 226.162 31.0223 226.162 30.8004C226.162 30.5488 226.103 30.3318 225.984 30.1494C225.866 29.9644 225.704 29.8226 225.5 29.724C225.295 29.6229 225.065 29.5723 224.808 29.5723C224.537 29.5723 224.3 29.6278 224.098 29.7388C223.896 29.8498 223.74 30.0063 223.632 30.2085C223.523 30.4107 223.469 30.6475 223.469 30.9187H222.378C222.378 30.4576 222.484 30.0544 222.696 29.7092C222.908 29.364 223.199 29.0964 223.569 28.9065C223.939 28.7142 224.359 28.618 224.83 28.618C225.306 28.618 225.725 28.713 226.088 28.9028C226.453 29.0903 226.738 29.3467 226.942 29.6722C227.147 29.9952 227.249 30.3602 227.249 30.7671C227.249 31.0482 227.196 31.3231 227.09 31.5919C226.987 31.8607 226.805 32.1603 226.547 32.4907C226.288 32.8187 225.928 33.217 225.467 33.6855L223.961 35.2612V35.3167H227.371V36.2969H222.385ZM231.274 36.4004C230.81 36.4004 230.393 36.3117 230.024 36.1341C229.656 35.9541 229.363 35.7075 229.143 35.3944C228.924 35.0812 228.807 34.7236 228.792 34.3217H229.901C229.929 34.6472 230.073 34.9147 230.334 35.1243C230.596 35.3339 230.909 35.4387 231.274 35.4387C231.565 35.4387 231.822 35.3722 232.047 35.239C232.274 35.1034 232.451 34.9172 232.579 34.6805C232.71 34.4437 232.775 34.1737 232.775 33.8704C232.775 33.5622 232.709 33.2872 232.576 33.0456C232.443 32.8039 232.259 32.614 232.025 32.4759C231.793 32.3379 231.526 32.2676 231.226 32.2651C230.996 32.2651 230.766 32.3046 230.534 32.3835C230.302 32.4624 230.115 32.566 229.972 32.6942L228.925 32.5388L229.35 28.7216H233.515V29.7018H230.301L230.06 31.8212H230.105C230.253 31.6782 230.449 31.5586 230.693 31.4625C230.94 31.3663 231.203 31.3182 231.485 31.3182C231.946 31.3182 232.356 31.4279 232.716 31.6474C233.079 31.8669 233.364 32.1665 233.571 32.5462C233.78 32.9235 233.884 33.3575 233.881 33.8482C233.884 34.3389 233.773 34.7766 233.549 35.1613C233.327 35.546 233.018 35.8493 232.624 36.0712C232.232 36.2907 231.782 36.4004 231.274 36.4004Z" fill="#18181B"/>
<path d="M252.963 31.3086L249.243 35.0286L245.523 31.3086" stroke="#71717A" stroke-width="1.488" stroke-linecap="round" stroke-linejoin="round"/>
<g clip-path="url(#clip0_2792_155689)">
<g filter="url(#filter0_d_2792_155689)">
<rect x="14.8828" y="83.4482" width="127.668" height="80.616" rx="5.952" fill="white"/>
<rect x="14.6968" y="83.2622" width="128.04" height="80.988" rx="6.138" stroke="#E5E7EB" stroke-width="0.372"/>
<path d="M34.2284 108.373C37.3102 108.373 39.8084 105.875 39.8084 102.793C39.8084 99.7111 37.3102 97.2129 34.2284 97.2129C31.1467 97.2129 28.6484 99.7111 28.6484 102.793C28.6484 105.875 31.1467 108.373 34.2284 108.373Z" stroke="#5A42DE" stroke-width="1.116" stroke-linecap="round" stroke-linejoin="round"/>
<path d="M34.2266 99.5371V102.792H37.4816" stroke="#5A42DE" stroke-width="1.116" stroke-linecap="round" stroke-linejoin="round"/>
<path d="M27.2921 120.423V119.609H32.9736V120.423H30.5915V127.185H29.6742V120.423H27.2921ZM35.7551 127.303C35.2422 127.303 34.7922 127.181 34.405 126.937C34.0203 126.693 33.7195 126.351 33.5025 125.912C33.288 125.473 33.1807 124.96 33.1807 124.373C33.1807 123.782 33.288 123.265 33.5025 122.824C33.7195 122.382 34.0203 122.039 34.405 121.795C34.7922 121.551 35.2422 121.429 35.7551 121.429C36.268 121.429 36.7168 121.551 37.1015 121.795C37.4886 122.039 37.7895 122.382 38.004 122.824C38.221 123.265 38.3295 123.782 38.3295 124.373C38.3295 124.96 38.221 125.473 38.004 125.912C37.7895 126.351 37.4886 126.693 37.1015 126.937C36.7168 127.181 36.268 127.303 35.7551 127.303ZM35.7551 126.519C36.1447 126.519 36.4653 126.419 36.7168 126.219C36.9683 126.019 37.1545 125.757 37.2753 125.431C37.3962 125.106 37.4566 124.753 37.4566 124.373C37.4566 123.994 37.3962 123.64 37.2753 123.312C37.1545 122.984 36.9683 122.719 36.7168 122.517C36.4653 122.314 36.1447 122.213 35.7551 122.213C35.3655 122.213 35.0449 122.314 34.7934 122.517C34.5419 122.719 34.3557 122.984 34.2349 123.312C34.114 123.64 34.0536 123.994 34.0536 124.373C34.0536 124.753 34.114 125.106 34.2349 125.431C34.3557 125.757 34.5419 126.019 34.7934 126.219C35.0449 126.419 35.3655 126.519 35.7551 126.519ZM42.1329 121.503V122.243H39.1886V121.503H42.1329ZM40.0467 120.142H40.9196V125.557C40.9196 125.804 40.9554 125.989 41.0269 126.112C41.1009 126.233 41.1946 126.314 41.308 126.356C41.4239 126.395 41.546 126.415 41.6742 126.415C41.7704 126.415 41.8493 126.41 41.9109 126.4C41.9726 126.388 42.0219 126.378 42.0589 126.371L42.2364 127.155C42.1773 127.177 42.0947 127.199 41.9886 127.222C41.8826 127.246 41.7482 127.259 41.5854 127.259C41.3389 127.259 41.0972 127.206 40.8605 127.099C40.6262 126.993 40.4314 126.832 40.276 126.615C40.1232 126.398 40.0467 126.124 40.0467 125.794V120.142ZM45.1179 127.318C44.7578 127.318 44.4311 127.25 44.1377 127.114C43.8442 126.976 43.6112 126.778 43.4386 126.519C43.266 126.257 43.1797 125.942 43.1797 125.572C43.1797 125.246 43.2438 124.983 43.372 124.78C43.5002 124.576 43.6716 124.415 43.8861 124.299C44.1007 124.184 44.3374 124.097 44.5963 124.041C44.8577 123.981 45.1203 123.935 45.3842 123.9C45.7294 123.856 46.0093 123.822 46.2238 123.8C46.4408 123.775 46.5986 123.735 46.6973 123.678C46.7984 123.621 46.8489 123.523 46.8489 123.382V123.353C46.8489 122.988 46.7491 122.704 46.5493 122.502C46.352 122.3 46.0524 122.199 45.6505 122.199C45.2338 122.199 44.907 122.29 44.6703 122.472C44.4336 122.655 44.2671 122.85 44.1709 123.057L43.3424 122.761C43.4904 122.416 43.6876 122.147 43.9342 121.954C44.1833 121.76 44.4545 121.624 44.748 121.548C45.0439 121.469 45.3349 121.429 45.6209 121.429C45.8034 121.429 46.013 121.451 46.2497 121.496C46.4889 121.538 46.7195 121.625 46.9414 121.758C47.1658 121.891 47.352 122.092 47.4999 122.361C47.6479 122.63 47.7219 122.99 47.7219 123.441V127.185H46.8489V126.415H46.8045C46.7454 126.539 46.6467 126.67 46.5086 126.811C46.3705 126.952 46.1868 127.071 45.9575 127.17C45.7282 127.268 45.4483 127.318 45.1179 127.318ZM45.251 126.534C45.5962 126.534 45.8872 126.466 46.1239 126.33C46.3631 126.195 46.5432 126.019 46.664 125.805C46.7873 125.59 46.8489 125.365 46.8489 125.128V124.329C46.8119 124.373 46.7306 124.414 46.6048 124.451C46.4815 124.486 46.3385 124.516 46.1757 124.544C46.0154 124.568 45.8589 124.59 45.706 124.61C45.5556 124.627 45.4335 124.642 45.3398 124.655C45.1129 124.684 44.9009 124.732 44.7036 124.799C44.5088 124.863 44.351 124.96 44.2301 125.091C44.1118 125.219 44.0526 125.394 44.0526 125.616C44.0526 125.92 44.1648 126.149 44.3892 126.304C44.616 126.457 44.9033 126.534 45.251 126.534ZM50.1881 119.609V127.185H49.3151V119.609H50.1881ZM55.5893 123.767V127.185H54.7164V119.609H55.5893V122.391H55.6633C55.7965 122.097 55.9962 121.864 56.2625 121.692C56.5313 121.517 56.8889 121.429 57.3352 121.429C57.7224 121.429 58.0614 121.507 58.3524 121.662C58.6434 121.815 58.869 122.051 59.0293 122.369C59.192 122.684 59.2734 123.086 59.2734 123.574V127.185H58.4005V123.634C58.4005 123.182 58.2833 122.833 58.0491 122.587C57.8173 122.338 57.4955 122.213 57.0837 122.213C56.7976 122.213 56.5412 122.274 56.3143 122.395C56.0899 122.515 55.9124 122.692 55.7817 122.923C55.6535 123.155 55.5893 123.436 55.5893 123.767ZM63.1785 127.303C62.6656 127.303 62.2155 127.181 61.8284 126.937C61.4437 126.693 61.1429 126.351 60.9259 125.912C60.7113 125.473 60.6041 124.96 60.6041 124.373C60.6041 123.782 60.7113 123.265 60.9259 122.824C61.1429 122.382 61.4437 122.039 61.8284 121.795C62.2155 121.551 62.6656 121.429 63.1785 121.429C63.6914 121.429 64.1402 121.551 64.5249 121.795C64.912 122.039 65.2129 122.382 65.4274 122.824C65.6444 123.265 65.7529 123.782 65.7529 124.373C65.7529 124.96 65.6444 125.473 65.4274 125.912C65.2129 126.351 64.912 126.693 64.5249 126.937C64.1402 127.181 63.6914 127.303 63.1785 127.303ZM63.1785 126.519C63.5681 126.519 63.8887 126.419 64.1402 126.219C64.3917 126.019 64.5779 125.757 64.6987 125.431C64.8195 125.106 64.88 124.753 64.88 124.373C64.88 123.994 64.8195 123.64 64.6987 123.312C64.5779 122.984 64.3917 122.719 64.1402 122.517C63.8887 122.314 63.5681 122.213 63.1785 122.213C62.7889 122.213 62.4683 122.314 62.2168 122.517C61.9653 122.719 61.7791 122.984 61.6583 123.312C61.5374 123.64 61.477 123.994 61.477 124.373C61.477 124.753 61.5374 125.106 61.6583 125.431C61.7791 125.757 61.9653 126.019 62.2168 126.219C62.4683 126.419 62.7889 126.519 63.1785 126.519ZM70.6659 124.862V121.503H71.5388V127.185H70.6659V126.223H70.6067C70.4736 126.511 70.2664 126.757 69.9853 126.959C69.7042 127.159 69.3491 127.259 68.92 127.259C68.565 127.259 68.2493 127.181 67.9731 127.026C67.697 126.868 67.48 126.631 67.3221 126.315C67.1643 125.997 67.0854 125.597 67.0854 125.113V121.503H67.9583V125.054C67.9583 125.468 68.0742 125.799 68.306 126.045C68.5403 126.292 68.8387 126.415 69.2012 126.415C69.4182 126.415 69.6389 126.36 69.8633 126.249C70.0901 126.138 70.28 125.968 70.4329 125.738C70.5882 125.509 70.6659 125.217 70.6659 124.862ZM73.1377 127.185V121.503H73.981V122.361H74.0402C74.1438 122.08 74.3312 121.852 74.6024 121.677C74.8737 121.502 75.1794 121.414 75.5197 121.414C75.5839 121.414 75.664 121.416 75.7602 121.418C75.8563 121.421 75.9291 121.424 75.9784 121.429V122.317C75.9488 122.309 75.881 122.298 75.775 122.284C75.6714 122.266 75.5617 122.258 75.4458 122.258C75.1696 122.258 74.923 122.316 74.706 122.432C74.4915 122.545 74.3213 122.703 74.1956 122.905C74.0723 123.105 74.0106 123.333 74.0106 123.589V127.185H73.1377ZM81.0375 122.776L80.2534 122.997C80.204 122.867 80.1313 122.74 80.0351 122.616C79.9414 122.491 79.8132 122.387 79.6504 122.306C79.4877 122.224 79.2793 122.184 79.0253 122.184C78.6776 122.184 78.3879 122.264 78.1561 122.424C77.9268 122.582 77.8121 122.783 77.8121 123.027C77.8121 123.244 77.891 123.415 78.0488 123.541C78.2067 123.667 78.4532 123.772 78.7886 123.856L79.632 124.063C80.1399 124.186 80.5184 124.375 80.7675 124.629C81.0166 124.88 81.1411 125.204 81.1411 125.601C81.1411 125.927 81.0474 126.218 80.86 126.474C80.675 126.731 80.4161 126.933 80.0832 127.081C79.7503 127.229 79.3632 127.303 78.9218 127.303C78.3423 127.303 77.8627 127.177 77.4829 126.926C77.1032 126.674 76.8627 126.307 76.7616 125.823L77.5902 125.616C77.6691 125.922 77.8183 126.151 78.0377 126.304C78.2597 126.457 78.5494 126.534 78.907 126.534C79.3139 126.534 79.6369 126.447 79.8761 126.275C80.1177 126.1 80.2386 125.89 80.2386 125.646C80.2386 125.449 80.1695 125.283 80.0314 125.15C79.8933 125.015 79.6813 124.913 79.3952 124.847L78.4483 124.625C77.928 124.502 77.5458 124.311 77.3017 124.052C77.06 123.79 76.9392 123.464 76.9392 123.071C76.9392 122.751 77.0292 122.467 77.2092 122.221C77.3917 121.974 77.6395 121.781 77.9527 121.64C78.2683 121.499 78.6259 121.429 79.0253 121.429C79.5876 121.429 80.029 121.552 80.3495 121.799C80.6726 122.046 80.9019 122.371 81.0375 122.776ZM86.2575 119.609V127.185H85.3846V119.609H86.2575ZM90.1645 127.303C89.6516 127.303 89.2015 127.181 88.8144 126.937C88.4297 126.693 88.1289 126.351 87.9119 125.912C87.6973 125.473 87.5901 124.96 87.5901 124.373C87.5901 123.782 87.6973 123.265 87.9119 122.824C88.1289 122.382 88.4297 122.039 88.8144 121.795C89.2015 121.551 89.6516 121.429 90.1645 121.429C90.6774 121.429 91.1262 121.551 91.5109 121.795C91.898 122.039 92.1988 122.382 92.4134 122.824C92.6304 123.265 92.7389 123.782 92.7389 124.373C92.7389 124.96 92.6304 125.473 92.4134 125.912C92.1988 126.351 91.898 126.693 91.5109 126.937C91.1262 127.181 90.6774 127.303 90.1645 127.303ZM90.1645 126.519C90.5541 126.519 90.8747 126.419 91.1262 126.219C91.3777 126.019 91.5639 125.757 91.6847 125.431C91.8055 125.106 91.8659 124.753 91.8659 124.373C91.8659 123.994 91.8055 123.64 91.6847 123.312C91.5639 122.984 91.3777 122.719 91.1262 122.517C90.8747 122.314 90.5541 122.213 90.1645 122.213C89.7749 122.213 89.4543 122.314 89.2028 122.517C88.9512 122.719 88.7651 122.984 88.6442 123.312C88.5234 123.64 88.463 123.994 88.463 124.373C88.463 124.753 88.5234 125.106 88.6442 125.431C88.7651 125.757 88.9512 126.019 89.2028 126.219C89.4543 126.419 89.7749 126.519 90.1645 126.519ZM96.3647 129.433C95.943 129.433 95.5805 129.379 95.2772 129.271C94.9739 129.165 94.7212 129.024 94.519 128.849C94.3192 128.676 94.1602 128.492 94.0418 128.294L94.7372 127.806C94.8161 127.91 94.916 128.028 95.0368 128.161C95.1576 128.297 95.3228 128.414 95.5324 128.512C95.7445 128.614 96.0219 128.664 96.3647 128.664C96.8233 128.664 97.2019 128.553 97.5002 128.331C97.7986 128.109 97.9478 127.762 97.9478 127.288V126.134H97.8738C97.8097 126.238 97.7185 126.366 97.6001 126.519C97.4842 126.669 97.3165 126.804 97.0971 126.922C96.8801 127.038 96.5866 127.096 96.2167 127.096C95.7581 127.096 95.3463 126.987 94.9813 126.77C94.6188 126.553 94.3315 126.238 94.1195 125.823C93.9099 125.409 93.8051 124.906 93.8051 124.314C93.8051 123.732 93.9074 123.226 94.1121 122.794C94.3168 122.36 94.6016 122.025 94.9665 121.788C95.3315 121.549 95.7531 121.429 96.2315 121.429C96.6014 121.429 96.8949 121.491 97.1119 121.614C97.3313 121.735 97.499 121.873 97.6149 122.028C97.7333 122.181 97.8245 122.307 97.8886 122.406H97.9774V121.503H98.8207V127.347C98.8207 127.836 98.7098 128.233 98.4878 128.538C98.2684 128.847 97.9725 129.072 97.6001 129.215C97.2302 129.361 96.8184 129.433 96.3647 129.433ZM96.3351 126.312C96.6853 126.312 96.9812 126.231 97.2228 126.071C97.4645 125.911 97.6482 125.68 97.774 125.38C97.8997 125.079 97.9626 124.719 97.9626 124.299C97.9626 123.89 97.9009 123.529 97.7777 123.216C97.6544 122.903 97.4719 122.657 97.2302 122.48C96.9886 122.302 96.6902 122.213 96.3351 122.213C95.9652 122.213 95.657 122.307 95.4104 122.494C95.1663 122.682 94.9825 122.933 94.8593 123.249C94.7384 123.565 94.678 123.915 94.678 124.299C94.678 124.694 94.7397 125.043 94.8629 125.346C94.9887 125.647 95.1737 125.884 95.4178 126.056C95.6644 126.227 95.9701 126.312 96.3351 126.312ZM102.712 129.433C102.29 129.433 101.928 129.379 101.624 129.271C101.321 129.165 101.068 129.024 100.866 128.849C100.666 128.676 100.507 128.492 100.389 128.294L101.084 127.806C101.163 127.91 101.263 128.028 101.384 128.161C101.505 128.297 101.67 128.414 101.88 128.512C102.092 128.614 102.369 128.664 102.712 128.664C103.171 128.664 103.549 128.553 103.847 128.331C104.146 128.109 104.295 127.762 104.295 127.288V126.134H104.221C104.157 126.238 104.066 126.366 103.947 126.519C103.831 126.669 103.664 126.804 103.444 126.922C103.227 127.038 102.934 127.096 102.564 127.096C102.105 127.096 101.694 126.987 101.329 126.77C100.966 126.553 100.679 126.238 100.467 125.823C100.257 125.409 100.152 124.906 100.152 124.314C100.152 123.732 100.255 123.226 100.459 122.794C100.664 122.36 100.949 122.025 101.314 121.788C101.679 121.549 102.1 121.429 102.579 121.429C102.949 121.429 103.242 121.491 103.459 121.614C103.679 121.735 103.846 121.873 103.962 122.028C104.081 122.181 104.172 122.307 104.236 122.406H104.325V121.503H105.168V127.347C105.168 127.836 105.057 128.233 104.835 128.538C104.616 128.847 104.32 129.072 103.947 129.215C103.577 129.361 103.166 129.433 102.712 129.433ZM102.682 126.312C103.033 126.312 103.328 126.231 103.57 126.071C103.812 125.911 103.995 125.68 104.121 125.38C104.247 125.079 104.31 124.719 104.31 124.299C104.31 123.89 104.248 123.529 104.125 123.216C104.002 122.903 103.819 122.657 103.577 122.48C103.336 122.302 103.037 122.213 102.682 122.213C102.312 122.213 102.004 122.307 101.758 122.494C101.514 122.682 101.33 122.933 101.207 123.249C101.086 123.565 101.025 123.915 101.025 124.299C101.025 124.694 101.087 125.043 101.21 125.346C101.336 125.647 101.521 125.884 101.765 126.056C102.012 126.227 102.317 126.312 102.682 126.312ZM109.148 127.303C108.601 127.303 108.128 127.182 107.731 126.94C107.337 126.696 107.032 126.356 106.818 125.92C106.606 125.481 106.5 124.97 106.5 124.388C106.5 123.806 106.606 123.293 106.818 122.85C107.032 122.403 107.331 122.055 107.713 121.806C108.097 121.555 108.546 121.429 109.059 121.429C109.355 121.429 109.647 121.478 109.936 121.577C110.224 121.676 110.487 121.836 110.724 122.058C110.96 122.277 111.149 122.568 111.29 122.931C111.43 123.293 111.5 123.74 111.5 124.27V124.64H107.121V123.885H110.613C110.613 123.565 110.549 123.279 110.42 123.027C110.295 122.776 110.115 122.577 109.88 122.432C109.649 122.286 109.375 122.213 109.059 122.213C108.711 122.213 108.411 122.3 108.157 122.472C107.905 122.642 107.712 122.864 107.576 123.138C107.44 123.412 107.373 123.705 107.373 124.018V124.521C107.373 124.95 107.446 125.314 107.594 125.613C107.745 125.908 107.953 126.134 108.22 126.289C108.486 126.442 108.795 126.519 109.148 126.519C109.377 126.519 109.584 126.487 109.769 126.423C109.957 126.356 110.118 126.257 110.254 126.127C110.39 125.994 110.494 125.828 110.568 125.631L111.412 125.868C111.323 126.154 111.174 126.405 110.964 126.622C110.755 126.837 110.496 127.005 110.187 127.125C109.879 127.244 109.533 127.303 109.148 127.303ZM114.974 127.303C114.5 127.303 114.082 127.183 113.72 126.944C113.357 126.702 113.074 126.362 112.869 125.923C112.664 125.482 112.562 124.96 112.562 124.359C112.562 123.762 112.664 123.244 112.869 122.805C113.074 122.366 113.359 122.027 113.723 121.788C114.088 121.549 114.51 121.429 114.988 121.429C115.358 121.429 115.651 121.491 115.865 121.614C116.082 121.735 116.247 121.873 116.361 122.028C116.477 122.181 116.567 122.307 116.631 122.406H116.705V119.609H117.578V127.185H116.734V126.312H116.631C116.567 126.415 116.475 126.546 116.357 126.704C116.239 126.859 116.07 126.998 115.85 127.122C115.631 127.243 115.339 127.303 114.974 127.303ZM115.092 126.519C115.442 126.519 115.738 126.428 115.98 126.245C116.221 126.06 116.405 125.805 116.531 125.479C116.657 125.151 116.72 124.773 116.72 124.344C116.72 123.92 116.658 123.549 116.535 123.23C116.411 122.91 116.229 122.661 115.987 122.483C115.746 122.303 115.447 122.213 115.092 122.213C114.722 122.213 114.414 122.308 114.167 122.498C113.923 122.686 113.739 122.941 113.616 123.264C113.495 123.584 113.435 123.944 113.435 124.344C113.435 124.748 113.497 125.116 113.62 125.446C113.746 125.774 113.931 126.035 114.175 126.23C114.421 126.423 114.727 126.519 115.092 126.519Z" fill="#71717A"/>
<path d="M31.6161 138.421V148.16H29.8517V140.137H29.7947L27.5167 141.593V139.976L29.9373 138.421H31.6161ZM34.089 148.16V146.886L37.4703 143.571C37.7937 143.244 38.0632 142.954 38.2788 142.701C38.4944 142.447 38.6561 142.201 38.7639 141.964C38.8717 141.726 38.9256 141.472 38.9256 141.203C38.9256 140.895 38.8558 140.632 38.7163 140.413C38.5768 140.191 38.385 140.02 38.1409 139.9C37.8967 139.779 37.6193 139.719 37.3086 139.719C36.9884 139.719 36.7078 139.785 36.4669 139.919C36.2259 140.049 36.0389 140.234 35.9057 140.475C35.7757 140.716 35.7107 141.003 35.7107 141.336H34.032C34.032 140.718 34.1731 140.18 34.4552 139.724C34.7374 139.267 35.1258 138.914 35.6204 138.663C36.1181 138.413 36.6888 138.287 37.3324 138.287C37.9855 138.287 38.5594 138.409 39.054 138.654C39.5486 138.898 39.9322 139.232 40.2048 139.657C40.4807 140.082 40.6186 140.567 40.6186 141.112C40.6186 141.477 40.5488 141.835 40.4093 142.187C40.2698 142.539 40.0241 142.929 39.6722 143.357C39.3235 143.785 38.8336 144.303 38.2027 144.912L36.5239 146.619V146.686H40.766V148.16H34.089ZM46.0068 148.346C45.2237 148.346 44.5515 148.147 43.9904 147.751C43.4324 147.352 43.0028 146.776 42.7016 146.025C42.4036 145.27 42.2545 144.362 42.2545 143.3C42.2577 142.238 42.4083 141.334 42.7063 140.589C43.0075 139.841 43.4371 139.27 43.9951 138.877C44.5563 138.484 45.2268 138.287 46.0068 138.287C46.7867 138.287 47.4573 138.484 48.0184 138.877C48.5796 139.27 49.0092 139.841 49.3072 140.589C49.6084 141.337 49.759 142.241 49.759 143.3C49.759 144.365 49.6084 145.275 49.3072 146.03C49.0092 146.781 48.5796 147.355 48.0184 147.751C47.4604 148.147 46.7899 148.346 46.0068 148.346ZM46.0068 146.857C46.6155 146.857 47.0958 146.557 47.4477 145.958C47.8028 145.356 47.9804 144.47 47.9804 143.3C47.9804 142.526 47.8995 141.876 47.7378 141.35C47.5761 140.824 47.3479 140.427 47.053 140.161C46.7582 139.892 46.4094 139.757 46.0068 139.757C45.4012 139.757 44.9225 140.058 44.5706 140.66C44.2186 141.26 44.0411 142.139 44.0379 143.3C44.0347 144.077 44.1124 144.73 44.2709 145.259C44.4326 145.789 44.6609 146.188 44.9558 146.458C45.2506 146.724 45.601 146.857 46.0068 146.857ZM56.4015 143.88V148.16H54.6799V138.421H56.3635V142.097H56.4491C56.6203 141.685 56.885 141.36 57.2433 141.122C57.6047 140.881 58.0644 140.76 58.6224 140.76C59.1297 140.76 59.572 140.867 59.9492 141.079C60.3265 141.291 60.6182 141.602 60.8243 142.011C61.0335 142.42 61.1382 142.919 61.1382 143.509V148.16H59.4166V143.775C59.4166 143.284 59.2898 142.902 59.0362 142.629C58.7857 142.353 58.4338 142.216 57.9804 142.216C57.676 142.216 57.4034 142.282 57.1624 142.415C56.9246 142.545 56.7376 142.734 56.6012 142.981C56.4681 143.229 56.4015 143.528 56.4015 143.88Z" fill="#18181B"/>
</g>
<g filter="url(#filter1_d_2792_155689)">
<rect x="154.453" y="83.4482" width="127.668" height="80.616" rx="5.952" fill="white"/>
<rect x="154.267" y="83.2622" width="128.04" height="80.988" rx="6.138" stroke="#E5E7EB" stroke-width="0.372"/>
<path d="M171.477 103.257L172.872 104.652L176.127 101.397" stroke="#16A34A" stroke-width="1.116" stroke-linecap="round" stroke-linejoin="round"/>
<path d="M173.799 108.373C176.88 108.373 179.379 105.875 179.379 102.793C179.379 99.7111 176.88 97.2129 173.799 97.2129C170.717 97.2129 168.219 99.7111 168.219 102.793C168.219 105.875 170.717 108.373 173.799 108.373Z" stroke="#16A34A" stroke-width="1.116" stroke-linecap="round" stroke-linejoin="round"/>
<path d="M167.587 127.185H166.626L169.407 119.609H170.354L173.136 127.185H172.174L169.91 120.808H169.851L167.587 127.185ZM167.942 124.225H171.819V125.039H167.942V124.225ZM174.197 129.315V121.503H175.041V122.406H175.144C175.208 122.307 175.297 122.181 175.41 122.028C175.526 121.873 175.692 121.735 175.906 121.614C176.123 121.491 176.417 121.429 176.786 121.429C177.265 121.429 177.687 121.549 178.051 121.788C178.416 122.027 178.701 122.366 178.906 122.805C179.111 123.244 179.213 123.762 179.213 124.359C179.213 124.96 179.111 125.482 178.906 125.923C178.701 126.362 178.418 126.702 178.055 126.944C177.693 127.183 177.275 127.303 176.801 127.303C176.436 127.303 176.144 127.243 175.925 127.122C175.705 126.998 175.536 126.859 175.418 126.704C175.3 126.546 175.208 126.415 175.144 126.312H175.07V129.315H174.197ZM175.055 124.344C175.055 124.773 175.118 125.151 175.244 125.479C175.37 125.805 175.554 126.06 175.795 126.245C176.037 126.428 176.333 126.519 176.683 126.519C177.048 126.519 177.352 126.423 177.597 126.23C177.843 126.035 178.028 125.774 178.151 125.446C178.277 125.116 178.34 124.748 178.34 124.344C178.34 123.944 178.278 123.584 178.155 123.264C178.034 122.941 177.851 122.686 177.604 122.498C177.36 122.308 177.053 122.213 176.683 122.213C176.328 122.213 176.029 122.303 175.788 122.483C175.546 122.661 175.364 122.91 175.24 123.23C175.117 123.549 175.055 123.92 175.055 124.344ZM180.545 129.315V121.503H181.388V122.406H181.491C181.556 122.307 181.644 122.181 181.758 122.028C181.874 121.873 182.039 121.735 182.253 121.614C182.47 121.491 182.764 121.429 183.134 121.429C183.612 121.429 184.034 121.549 184.399 121.788C184.764 122.027 185.049 122.366 185.253 122.805C185.458 123.244 185.56 123.762 185.56 124.359C185.56 124.96 185.458 125.482 185.253 125.923C185.049 126.362 184.765 126.702 184.402 126.944C184.04 127.183 183.622 127.303 183.149 127.303C182.784 127.303 182.491 127.243 182.272 127.122C182.052 126.998 181.884 126.859 181.765 126.704C181.647 126.546 181.556 126.415 181.491 126.312H181.417V129.315H180.545ZM181.403 124.344C181.403 124.773 181.466 125.151 181.591 125.479C181.717 125.805 181.901 126.06 182.142 126.245C182.384 126.428 182.68 126.519 183.03 126.519C183.395 126.519 183.7 126.423 183.944 126.23C184.19 126.035 184.375 125.774 184.499 125.446C184.624 125.116 184.687 124.748 184.687 124.344C184.687 123.944 184.626 123.584 184.502 123.264C184.381 122.941 184.198 122.686 183.951 122.498C183.707 122.308 183.4 122.213 183.03 122.213C182.675 122.213 182.377 122.303 182.135 122.483C181.893 122.661 181.711 122.91 181.588 123.23C181.464 123.549 181.403 123.92 181.403 124.344ZM186.892 127.185V121.503H187.735V122.361H187.794C187.898 122.08 188.085 121.852 188.357 121.677C188.628 121.502 188.934 121.414 189.274 121.414C189.338 121.414 189.418 121.416 189.514 121.418C189.61 121.421 189.683 121.424 189.732 121.429V122.317C189.703 122.309 189.635 122.298 189.529 122.284C189.425 122.266 189.316 122.258 189.2 122.258C188.924 122.258 188.677 122.316 188.46 122.432C188.246 122.545 188.075 122.703 187.95 122.905C187.826 123.105 187.765 123.333 187.765 123.589V127.185H186.892ZM192.902 127.303C192.39 127.303 191.939 127.181 191.552 126.937C191.168 126.693 190.867 126.351 190.65 125.912C190.435 125.473 190.328 124.96 190.328 124.373C190.328 123.782 190.435 123.265 190.65 122.824C190.867 122.382 191.168 122.039 191.552 121.795C191.939 121.551 192.39 121.429 192.902 121.429C193.415 121.429 193.864 121.551 194.249 121.795C194.636 122.039 194.937 122.382 195.151 122.824C195.368 123.265 195.477 123.782 195.477 124.373C195.477 124.96 195.368 125.473 195.151 125.912C194.937 126.351 194.636 126.693 194.249 126.937C193.864 127.181 193.415 127.303 192.902 127.303ZM192.902 126.519C193.292 126.519 193.613 126.419 193.864 126.219C194.116 126.019 194.302 125.757 194.423 125.431C194.543 125.106 194.604 124.753 194.604 124.373C194.604 123.994 194.543 123.64 194.423 123.312C194.302 122.984 194.116 122.719 193.864 122.517C193.613 122.314 193.292 122.213 192.902 122.213C192.513 122.213 192.192 122.314 191.941 122.517C191.689 122.719 191.503 122.984 191.382 123.312C191.261 123.64 191.201 123.994 191.201 124.373C191.201 124.753 191.261 125.106 191.382 125.431C191.503 125.757 191.689 126.019 191.941 126.219C192.192 126.419 192.513 126.519 192.902 126.519ZM201.252 121.503L199.151 127.185H198.263L196.162 121.503H197.109L198.677 126.031H198.736L200.305 121.503H201.252ZM204.583 127.303C204.035 127.303 203.563 127.182 203.166 126.94C202.771 126.696 202.467 126.356 202.252 125.92C202.04 125.481 201.934 124.97 201.934 124.388C201.934 123.806 202.04 123.293 202.252 122.85C202.467 122.403 202.765 122.055 203.147 121.806C203.532 121.555 203.981 121.429 204.494 121.429C204.79 121.429 205.082 121.478 205.37 121.577C205.659 121.676 205.921 121.836 206.158 122.058C206.395 122.277 206.584 122.568 206.724 122.931C206.865 123.293 206.935 123.74 206.935 124.27V124.64H202.556V123.885H206.047C206.047 123.565 205.983 123.279 205.855 123.027C205.729 122.776 205.549 122.577 205.315 122.432C205.083 122.286 204.809 122.213 204.494 122.213C204.146 122.213 203.845 122.3 203.591 122.472C203.34 122.642 203.146 122.864 203.01 123.138C202.875 123.412 202.807 123.705 202.807 124.018V124.521C202.807 124.95 202.881 125.314 203.029 125.613C203.179 125.908 203.388 126.134 203.654 126.289C203.92 126.442 204.23 126.519 204.583 126.519C204.812 126.519 205.019 126.487 205.204 126.423C205.391 126.356 205.553 126.257 205.688 126.127C205.824 125.994 205.929 125.828 206.003 125.631L206.846 125.868C206.757 126.154 206.608 126.405 206.399 126.622C206.189 126.837 205.93 127.005 205.622 127.125C205.314 127.244 204.967 127.303 204.583 127.303ZM210.408 127.303C209.935 127.303 209.517 127.183 209.154 126.944C208.792 126.702 208.508 126.362 208.304 125.923C208.099 125.482 207.997 124.96 207.997 124.359C207.997 123.762 208.099 123.244 208.304 122.805C208.508 122.366 208.793 122.027 209.158 121.788C209.523 121.549 209.945 121.429 210.423 121.429C210.793 121.429 211.085 121.491 211.3 121.614C211.517 121.735 211.682 121.873 211.795 122.028C211.911 122.181 212.001 122.307 212.065 122.406H212.139V119.609H213.012V127.185H212.169V126.312H212.065C212.001 126.415 211.91 126.546 211.792 126.704C211.673 126.859 211.504 126.998 211.285 127.122C211.065 127.243 210.773 127.303 210.408 127.303ZM210.527 126.519C210.877 126.519 211.173 126.428 211.414 126.245C211.656 126.06 211.84 125.805 211.965 125.479C212.091 125.151 212.154 124.773 212.154 124.344C212.154 123.92 212.092 123.549 211.969 123.23C211.846 122.91 211.663 122.661 211.422 122.483C211.18 122.303 210.882 122.213 210.527 122.213C210.157 122.213 209.848 122.308 209.602 122.498C209.358 122.686 209.174 122.941 209.051 123.264C208.93 123.584 208.869 123.944 208.869 124.344C208.869 124.748 208.931 125.116 209.054 125.446C209.18 125.774 209.365 126.035 209.609 126.23C209.856 126.423 210.162 126.519 210.527 126.519ZM218.535 123.767V127.185H217.662V119.609H218.535V122.391H218.609C218.742 122.097 218.941 121.864 219.208 121.692C219.477 121.517 219.834 121.429 220.28 121.429C220.668 121.429 221.007 121.507 221.298 121.662C221.589 121.815 221.814 122.051 221.975 122.369C222.137 122.684 222.219 123.086 222.219 123.574V127.185H221.346V123.634C221.346 123.182 221.229 122.833 220.994 122.587C220.763 122.338 220.441 122.213 220.029 122.213C219.743 122.213 219.486 122.274 219.26 122.395C219.035 122.515 218.858 122.692 218.727 122.923C218.599 123.155 218.535 123.436 218.535 123.767ZM226.124 127.303C225.611 127.303 225.161 127.181 224.774 126.937C224.389 126.693 224.088 126.351 223.871 125.912C223.657 125.473 223.549 124.96 223.549 124.373C223.549 123.782 223.657 123.265 223.871 122.824C224.088 122.382 224.389 122.039 224.774 121.795C225.161 121.551 225.611 121.429 226.124 121.429C226.637 121.429 227.085 121.551 227.47 121.795C227.857 122.039 228.158 122.382 228.373 122.824C228.59 123.265 228.698 123.782 228.698 124.373C228.698 124.96 228.59 125.473 228.373 125.912C228.158 126.351 227.857 126.693 227.47 126.937C227.085 127.181 226.637 127.303 226.124 127.303ZM226.124 126.519C226.513 126.519 226.834 126.419 227.085 126.219C227.337 126.019 227.523 125.757 227.644 125.431C227.765 125.106 227.825 124.753 227.825 124.373C227.825 123.994 227.765 123.64 227.644 123.312C227.523 122.984 227.337 122.719 227.085 122.517C226.834 122.314 226.513 122.213 226.124 122.213C225.734 122.213 225.414 122.314 225.162 122.517C224.911 122.719 224.724 122.984 224.604 123.312C224.483 123.64 224.422 123.994 224.422 124.373C224.422 124.753 224.483 125.106 224.604 125.431C224.724 125.757 224.911 126.019 225.162 126.219C225.414 126.419 225.734 126.519 226.124 126.519ZM233.611 124.862V121.503H234.484V127.185H233.611V126.223H233.552C233.419 126.511 233.212 126.757 232.931 126.959C232.649 127.159 232.294 127.259 231.865 127.259C231.51 127.259 231.195 127.181 230.918 127.026C230.642 126.868 230.425 126.631 230.267 126.315C230.11 125.997 230.031 125.597 230.031 125.113V121.503H230.904V125.054C230.904 125.468 231.02 125.799 231.251 126.045C231.486 126.292 231.784 126.415 232.146 126.415C232.363 126.415 232.584 126.36 232.809 126.249C233.035 126.138 233.225 125.968 233.378 125.738C233.534 125.509 233.611 125.217 233.611 124.862ZM236.083 127.185V121.503H236.926V122.361H236.985C237.089 122.08 237.276 121.852 237.548 121.677C237.819 121.502 238.125 121.414 238.465 121.414C238.529 121.414 238.609 121.416 238.705 121.418C238.802 121.421 238.874 121.424 238.924 121.429V122.317C238.894 122.309 238.826 122.298 238.72 122.284C238.617 122.266 238.507 122.258 238.391 122.258C238.115 122.258 237.868 122.316 237.651 122.432C237.437 122.545 237.267 122.703 237.141 122.905C237.018 123.105 236.956 123.333 236.956 123.589V127.185H236.083ZM243.983 122.776L243.199 122.997C243.149 122.867 243.077 122.74 242.98 122.616C242.887 122.491 242.758 122.387 242.596 122.306C242.433 122.224 242.225 122.184 241.971 122.184C241.623 122.184 241.333 122.264 241.101 122.424C240.872 122.582 240.757 122.783 240.757 123.027C240.757 123.244 240.836 123.415 240.994 123.541C241.152 123.667 241.399 123.772 241.734 123.856L242.577 124.063C243.085 124.186 243.464 124.375 243.713 124.629C243.962 124.88 244.086 125.204 244.086 125.601C244.086 125.927 243.993 126.218 243.805 126.474C243.62 126.731 243.361 126.933 243.028 127.081C242.696 127.229 242.308 127.303 241.867 127.303C241.288 127.303 240.808 127.177 240.428 126.926C240.048 126.674 239.808 126.307 239.707 125.823L240.535 125.616C240.614 125.922 240.764 126.151 240.983 126.304C241.205 126.457 241.495 126.534 241.852 126.534C242.259 126.534 242.582 126.447 242.821 126.275C243.063 126.1 243.184 125.89 243.184 125.646C243.184 125.449 243.115 125.283 242.977 125.15C242.839 125.015 242.627 124.913 242.341 124.847L241.394 124.625C240.873 124.502 240.491 124.311 240.247 124.052C240.005 123.79 239.884 123.464 239.884 123.071C239.884 122.751 239.974 122.467 240.154 122.221C240.337 121.974 240.585 121.781 240.898 121.64C241.214 121.499 241.571 121.429 241.971 121.429C242.533 121.429 242.974 121.552 243.295 121.799C243.618 122.046 243.847 122.371 243.983 122.776Z" fill="#71717A"/>
<path d="M171.186 138.421V148.16H169.422V140.137H169.365L167.087 141.593V139.976L169.508 138.421H171.186ZM177.259 148.346C176.476 148.346 175.804 148.147 175.243 147.751C174.685 147.352 174.255 146.776 173.954 146.025C173.656 145.27 173.507 144.362 173.507 143.3C173.51 142.238 173.661 141.334 173.959 140.589C174.26 139.841 174.69 139.27 175.248 138.877C175.809 138.484 176.479 138.287 177.259 138.287C178.039 138.287 178.71 138.484 179.271 138.877C179.832 139.27 180.262 139.841 180.56 140.589C180.861 141.337 181.012 142.241 181.012 143.3C181.012 144.365 180.861 145.275 180.56 146.03C180.262 146.781 179.832 147.355 179.271 147.751C178.713 148.147 178.042 148.346 177.259 148.346ZM177.259 146.857C177.868 146.857 178.348 146.557 178.7 145.958C179.055 145.356 179.233 144.47 179.233 143.3C179.233 142.526 179.152 141.876 178.99 141.35C178.829 140.824 178.6 140.427 178.306 140.161C178.011 139.892 177.662 139.757 177.259 139.757C176.654 139.757 176.175 140.058 175.823 140.66C175.471 141.26 175.294 142.139 175.291 143.3C175.287 144.077 175.365 144.73 175.524 145.259C175.685 145.789 175.914 146.188 176.208 146.458C176.503 146.724 176.854 146.857 177.259 146.857ZM186.192 148.346C185.409 148.346 184.737 148.147 184.175 147.751C183.617 147.352 183.188 146.776 182.887 146.025C182.589 145.27 182.44 144.362 182.44 143.3C182.443 142.238 182.593 141.334 182.891 140.589C183.193 139.841 183.622 139.27 184.18 138.877C184.741 138.484 185.412 138.287 186.192 138.287C186.972 138.287 187.642 138.484 188.203 138.877C188.765 139.27 189.194 139.841 189.492 140.589C189.793 141.337 189.944 142.241 189.944 143.3C189.944 144.365 189.793 145.275 189.492 146.03C189.194 146.781 188.765 147.355 188.203 147.751C187.645 148.147 186.975 148.346 186.192 148.346ZM186.192 146.857C186.8 146.857 187.281 146.557 187.633 145.958C187.988 145.356 188.165 144.47 188.165 143.3C188.165 142.526 188.085 141.876 187.923 141.35C187.761 140.824 187.533 140.427 187.238 140.161C186.943 139.892 186.594 139.757 186.192 139.757C185.586 139.757 185.107 140.058 184.756 140.66C184.404 141.26 184.226 142.139 184.223 143.3C184.22 144.077 184.297 144.73 184.456 145.259C184.618 145.789 184.846 146.188 185.141 146.458C185.436 146.724 185.786 146.857 186.192 146.857ZM196.586 143.88V148.16H194.865V138.421H196.548V142.097H196.634C196.805 141.685 197.07 141.36 197.428 141.122C197.79 140.881 198.249 140.76 198.807 140.76C199.315 140.76 199.757 140.867 200.134 141.079C200.512 141.291 200.803 141.602 201.009 142.011C201.219 142.42 201.323 142.919 201.323 143.509V148.16H199.602V143.775C199.602 143.284 199.475 142.902 199.221 142.629C198.971 142.353 198.619 142.216 198.165 142.216C197.861 142.216 197.588 142.282 197.347 142.415C197.11 142.545 196.923 142.734 196.786 142.981C196.653 143.229 196.586 143.528 196.586 143.88Z" fill="#18181B"/>
</g>
<g filter="url(#filter2_d_2792_155689)">
<rect x="14.8828" y="175.968" width="127.668" height="80.616" rx="5.952" fill="white"/>
<rect x="14.6968" y="175.782" width="128.04" height="80.988" rx="6.138" stroke="#E5E7EB" stroke-width="0.372"/>
<path d="M39.8084 195.777C39.5719 198.642 37.1539 200.892 34.2284 200.892C32.7485 200.892 31.3292 200.305 30.2828 199.258C29.2363 198.212 28.6484 196.792 28.6484 195.312C28.6484 192.387 30.899 189.969 33.7634 189.732" stroke="#EA580C" stroke-width="1.116" stroke-linecap="round" stroke-linejoin="round"/>
<path d="M34.2266 192.057V195.312H37.4816" stroke="#EA580C" stroke-width="1.116" stroke-linecap="round" stroke-linejoin="round"/>
<path d="M36.0891 190.546C36.4101 190.546 36.6703 190.286 36.6703 189.965C36.6703 189.644 36.4101 189.384 36.0891 189.384C35.768 189.384 35.5078 189.644 35.5078 189.965C35.5078 190.286 35.768 190.546 36.0891 190.546Z" fill="#EA580C"/>
<path d="M38.1828 191.941C38.5038 191.941 38.7641 191.681 38.7641 191.36C38.7641 191.039 38.5038 190.778 38.1828 190.778C37.8618 190.778 37.6016 191.039 37.6016 191.36C37.6016 191.681 37.8618 191.941 38.1828 191.941Z" fill="#EA580C"/>
<path d="M39.5734 194.034C39.8945 194.034 40.1547 193.773 40.1547 193.452C40.1547 193.131 39.8945 192.871 39.5734 192.871C39.2524 192.871 38.9922 193.131 38.9922 193.452C38.9922 193.773 39.2524 194.034 39.5734 194.034Z" fill="#EA580C"/>
<path d="M27.7064 219.704V212.129H30.266C30.8603 212.129 31.3461 212.236 31.7233 212.451C32.1031 212.663 32.3842 212.95 32.5667 213.312C32.7492 213.675 32.8404 214.079 32.8404 214.526C32.8404 214.972 32.7492 215.378 32.5667 215.743C32.3867 216.108 32.108 216.399 31.7307 216.616C31.3535 216.83 30.8701 216.937 30.2808 216.937H28.4462V216.124H30.2512C30.6581 216.124 30.9848 216.053 31.2314 215.913C31.478 215.772 31.6568 215.582 31.7677 215.343C31.8812 215.101 31.9379 214.829 31.9379 214.526C31.9379 214.222 31.8812 213.951 31.7677 213.712C31.6568 213.473 31.4768 213.285 31.2277 213.15C30.9786 213.012 30.6482 212.943 30.2364 212.943H28.6237V219.704H27.7064ZM36.5208 219.822C35.9733 219.822 35.5011 219.702 35.1041 219.46C34.7096 219.216 34.405 218.876 34.1905 218.439C33.9784 218 33.8724 217.49 33.8724 216.908C33.8724 216.326 33.9784 215.813 34.1905 215.369C34.405 214.923 34.7034 214.575 35.0856 214.326C35.4703 214.074 35.9191 213.949 36.432 213.949C36.7279 213.949 37.0201 213.998 37.3086 214.097C37.5971 214.195 37.8598 214.356 38.0965 214.577C38.3332 214.797 38.5219 215.088 38.6624 215.45C38.803 215.813 38.8733 216.259 38.8733 216.789V217.159H34.4938V216.405H37.9855C37.9855 216.084 37.9214 215.798 37.7932 215.547C37.6674 215.295 37.4874 215.097 37.2531 214.951C37.0214 214.806 36.7476 214.733 36.432 214.733C36.0843 214.733 35.7835 214.819 35.5295 214.992C35.278 215.162 35.0844 215.384 34.9488 215.658C34.8131 215.931 34.7453 216.225 34.7453 216.538V217.041C34.7453 217.47 34.8193 217.834 34.9673 218.132C35.1177 218.428 35.326 218.654 35.5924 218.809C35.8587 218.962 36.1681 219.038 36.5208 219.038C36.7501 219.038 36.9572 219.006 37.1422 218.942C37.3296 218.876 37.4911 218.777 37.6267 218.646C37.7624 218.513 37.8672 218.348 37.9411 218.151L38.7845 218.387C38.6957 218.673 38.5465 218.925 38.3369 219.142C38.1273 219.356 37.8684 219.524 37.5602 219.645C37.2519 219.763 36.9055 219.822 36.5208 219.822ZM41.0741 216.286V219.704H40.2011V214.023H41.0445V214.91H41.1185C41.2516 214.622 41.4538 214.39 41.7251 214.215C41.9963 214.037 42.3465 213.949 42.7756 213.949C43.1602 213.949 43.4968 214.028 43.7853 214.185C44.0739 214.341 44.2983 214.577 44.4585 214.896C44.6188 215.211 44.699 215.611 44.699 216.094V219.704H43.826V216.153C43.826 215.707 43.7101 215.359 43.4783 215.11C43.2465 214.859 42.9284 214.733 42.524 214.733C42.2454 214.733 41.9963 214.793 41.7769 214.914C41.5599 215.035 41.3885 215.211 41.2627 215.443C41.137 215.675 41.0741 215.956 41.0741 216.286ZM48.4394 219.822C47.966 219.822 47.548 219.703 47.1855 219.464C46.823 219.222 46.5395 218.882 46.3348 218.443C46.1301 218.001 46.0278 217.48 46.0278 216.878C46.0278 216.281 46.1301 215.764 46.3348 215.325C46.5395 214.886 46.8243 214.547 47.1892 214.307C47.5542 214.068 47.9758 213.949 48.4542 213.949C48.8241 213.949 49.1163 214.01 49.3309 214.134C49.5479 214.254 49.7131 214.393 49.8265 214.548C49.9424 214.701 50.0324 214.827 50.0965 214.925H50.1705V212.129H51.0434V219.704H50.2001V218.831H50.0965C50.0324 218.935 49.9412 219.065 49.8228 219.223C49.7044 219.379 49.5355 219.518 49.3161 219.641C49.0966 219.762 48.8044 219.822 48.4394 219.822ZM48.5578 219.038C48.908 219.038 49.2039 218.947 49.4455 218.765C49.6872 218.58 49.8709 218.324 49.9967 217.999C50.1224 217.671 50.1853 217.292 50.1853 216.863C50.1853 216.439 50.1237 216.068 50.0004 215.75C49.8771 215.429 49.6946 215.18 49.4529 215.003C49.2113 214.823 48.9129 214.733 48.5578 214.733C48.1879 214.733 47.8797 214.828 47.6331 215.018C47.389 215.205 47.2052 215.46 47.082 215.783C46.9611 216.104 46.9007 216.464 46.9007 216.863C46.9007 217.268 46.9624 217.635 47.0857 217.966C47.2114 218.294 47.3964 218.555 47.6405 218.75C47.8871 218.942 48.1928 219.038 48.5578 219.038ZM52.7634 219.704V214.023H53.6363V219.704H52.7634ZM53.2073 213.076C53.0371 213.076 52.8904 213.018 52.7671 212.902C52.6463 212.786 52.5859 212.647 52.5859 212.484C52.5859 212.321 52.6463 212.182 52.7671 212.066C52.8904 211.95 53.0371 211.892 53.2073 211.892C53.3774 211.892 53.5229 211.95 53.6437 212.066C53.767 212.182 53.8287 212.321 53.8287 212.484C53.8287 212.647 53.767 212.786 53.6437 212.902C53.5229 213.018 53.3774 213.076 53.2073 213.076ZM56.1081 216.286V219.704H55.2352V214.023H56.0785V214.91H56.1525C56.2857 214.622 56.4879 214.39 56.7591 214.215C57.0304 214.037 57.3805 213.949 57.8096 213.949C58.1943 213.949 58.5309 214.028 58.8194 214.185C59.1079 214.341 59.3323 214.577 59.4926 214.896C59.6529 215.211 59.733 215.611 59.733 216.094V219.704H58.8601V216.153C58.8601 215.707 58.7442 215.359 58.5124 215.11C58.2806 214.859 57.9625 214.733 57.5581 214.733C57.2794 214.733 57.0304 214.793 56.8109 214.914C56.5939 215.035 56.4225 215.211 56.2967 215.443C56.171 215.675 56.1081 215.956 56.1081 216.286ZM63.6214 221.953C63.1998 221.953 62.8373 221.899 62.534 221.79C62.2306 221.684 61.9779 221.544 61.7757 221.369C61.5759 221.196 61.4169 221.011 61.2985 220.814L61.9939 220.326C62.0728 220.429 62.1727 220.547 62.2935 220.681C62.4144 220.816 62.5796 220.933 62.7892 221.032C63.0012 221.133 63.2787 221.184 63.6214 221.184C64.0801 221.184 64.4586 221.073 64.757 220.851C65.0553 220.629 65.2045 220.281 65.2045 219.808V218.654H65.1306C65.0664 218.757 64.9752 218.885 64.8568 219.038C64.7409 219.189 64.5733 219.323 64.3538 219.441C64.1368 219.557 63.8434 219.615 63.4735 219.615C63.0148 219.615 62.603 219.507 62.238 219.29C61.8756 219.073 61.5883 218.757 61.3762 218.343C61.1666 217.929 61.0618 217.426 61.0618 216.834C61.0618 216.252 61.1641 215.745 61.3688 215.314C61.5735 214.88 61.8583 214.544 62.2233 214.307C62.5882 214.068 63.0099 213.949 63.4883 213.949C63.8581 213.949 64.1516 214.01 64.3686 214.134C64.5881 214.254 64.7557 214.393 64.8716 214.548C64.99 214.701 65.0812 214.827 65.1454 214.925H65.2341V214.023H66.0775V219.867C66.0775 220.355 65.9665 220.752 65.7446 221.058C65.5251 221.366 65.2292 221.592 64.8568 221.735C64.487 221.88 64.0751 221.953 63.6214 221.953ZM63.5918 218.831C63.942 218.831 64.2379 218.751 64.4796 218.591C64.7212 218.43 64.9049 218.2 65.0307 217.899C65.1564 217.598 65.2193 217.238 65.2193 216.819C65.2193 216.41 65.1577 216.048 65.0344 215.735C64.9111 215.422 64.7286 215.177 64.487 214.999C64.2453 214.822 63.9469 214.733 63.5918 214.733C63.2219 214.733 62.9137 214.827 62.6671 215.014C62.423 215.201 62.2393 215.453 62.116 215.769C61.9952 216.084 61.9347 216.434 61.9347 216.819C61.9347 217.214 61.9964 217.562 62.1197 217.866C62.2454 218.167 62.4304 218.403 62.6745 218.576C62.9211 218.746 63.2269 218.831 63.5918 218.831ZM71.4778 216.286V219.704H70.6049V212.129H71.4778V214.91H71.5518C71.6849 214.617 71.8847 214.384 72.151 214.211C72.4198 214.036 72.7773 213.949 73.2237 213.949C73.6108 213.949 73.9499 214.026 74.2409 214.182C74.5318 214.335 74.7575 214.57 74.9178 214.888C75.0805 215.204 75.1619 215.606 75.1619 216.094V219.704H74.2889V216.153C74.2889 215.702 74.1718 215.353 73.9376 215.106C73.7058 214.857 73.384 214.733 72.9722 214.733C72.6861 214.733 72.4297 214.793 72.2028 214.914C71.9784 215.035 71.8008 215.211 71.6702 215.443C71.5419 215.675 71.4778 215.956 71.4778 216.286ZM79.067 219.822C78.554 219.822 78.104 219.7 77.7169 219.456C77.3322 219.212 77.0313 218.871 76.8143 218.432C76.5998 217.993 76.4925 217.48 76.4925 216.893C76.4925 216.301 76.5998 215.785 76.8143 215.343C77.0313 214.902 77.3322 214.559 77.7169 214.315C78.104 214.071 78.554 213.949 79.067 213.949C79.5799 213.949 80.0287 214.071 80.4133 214.315C80.8005 214.559 81.1013 214.902 81.3159 215.343C81.5329 215.785 81.6414 216.301 81.6414 216.893C81.6414 217.48 81.5329 217.993 81.3159 218.432C81.1013 218.871 80.8005 219.212 80.4133 219.456C80.0287 219.7 79.5799 219.822 79.067 219.822ZM79.067 219.038C79.4566 219.038 79.7771 218.938 80.0287 218.739C80.2802 218.539 80.4664 218.276 80.5872 217.951C80.708 217.625 80.7684 217.273 80.7684 216.893C80.7684 216.513 80.708 216.159 80.5872 215.831C80.4664 215.503 80.2802 215.238 80.0287 215.036C79.7771 214.834 79.4566 214.733 79.067 214.733C78.6773 214.733 78.3568 214.834 78.1052 215.036C77.8537 215.238 77.6675 215.503 77.5467 215.831C77.4259 216.159 77.3655 216.513 77.3655 216.893C77.3655 217.273 77.4259 217.625 77.5467 217.951C77.6675 218.276 77.8537 218.539 78.1052 218.739C78.3568 218.938 78.6773 219.038 79.067 219.038ZM86.5544 217.381V214.023H87.4273V219.704H86.5544V218.742H86.4952C86.362 219.031 86.1549 219.276 85.8738 219.478C85.5927 219.678 85.2376 219.778 84.8085 219.778C84.4534 219.778 84.1378 219.7 83.8616 219.545C83.5854 219.387 83.3684 219.151 83.2106 218.835C83.0528 218.517 82.9739 218.116 82.9739 217.633V214.023H83.8468V217.574C83.8468 217.988 83.9627 218.318 84.1945 218.565C84.4288 218.811 84.7271 218.935 85.0896 218.935C85.3066 218.935 85.5273 218.879 85.7517 218.768C85.9786 218.657 86.1685 218.487 86.3213 218.258C86.4767 218.029 86.5544 217.736 86.5544 217.381ZM89.0261 219.704V214.023H89.8695V214.881H89.9287C90.0322 214.6 90.2196 214.372 90.4909 214.196C90.7621 214.021 91.0679 213.934 91.4082 213.934C91.4723 213.934 91.5525 213.935 91.6486 213.938C91.7448 213.94 91.8176 213.944 91.8669 213.949V214.836C91.8373 214.829 91.7695 214.818 91.6634 214.803C91.5599 214.786 91.4501 214.777 91.3342 214.777C91.0581 214.777 90.8115 214.835 90.5945 214.951C90.3799 215.064 90.2098 215.222 90.084 215.425C89.9607 215.624 89.8991 215.852 89.8991 216.109V219.704H89.0261ZM96.926 215.295L96.1418 215.517C96.0925 215.386 96.0198 215.259 95.9236 215.136C95.8299 215.01 95.7017 214.907 95.5389 214.825C95.3762 214.744 95.1678 214.703 94.9138 214.703C94.5661 214.703 94.2764 214.783 94.0446 214.944C93.8153 215.101 93.7006 215.302 93.7006 215.547C93.7006 215.764 93.7795 215.935 93.9373 216.061C94.0951 216.186 94.3417 216.291 94.6771 216.375L95.5204 216.582C96.0284 216.706 96.4069 216.894 96.656 217.148C96.905 217.4 97.0296 217.724 97.0296 218.121C97.0296 218.446 96.9359 218.737 96.7484 218.994C96.5635 219.25 96.3046 219.453 95.9717 219.601C95.6388 219.748 95.2516 219.822 94.8102 219.822C94.2308 219.822 93.7511 219.697 93.3714 219.445C92.9916 219.194 92.7512 218.826 92.6501 218.343L93.4787 218.136C93.5576 218.442 93.7068 218.671 93.9262 218.824C94.1481 218.977 94.4379 219.053 94.7954 219.053C95.2023 219.053 95.5254 218.967 95.7646 218.794C96.0062 218.619 96.127 218.409 96.127 218.165C96.127 217.968 96.058 217.803 95.9199 217.67C95.7818 217.534 95.5697 217.433 95.2837 217.366L94.3368 217.144C93.8165 217.021 93.4343 216.83 93.1901 216.571C92.9485 216.31 92.8277 215.983 92.8277 215.591C92.8277 215.27 92.9177 214.987 93.0977 214.74C93.2801 214.494 93.528 214.3 93.8411 214.16C94.1568 214.019 94.5143 213.949 94.9138 213.949C95.476 213.949 95.9174 214.072 96.238 214.319C96.561 214.565 96.7904 214.891 96.926 215.295Z" fill="#71717A"/>
<path d="M31.6161 230.94V240.68H29.8517V232.657H29.7947L27.5167 234.112V232.495L29.9373 230.94H31.6161ZM37.5512 240.813C36.8442 240.813 36.2164 240.694 35.6679 240.456C35.1226 240.218 34.6946 239.893 34.3839 239.481C34.0764 239.066 33.9242 238.595 33.9273 238.069C33.9242 237.66 34.0129 237.284 34.1937 236.942C34.3744 236.599 34.6185 236.314 34.926 236.086C35.2367 235.854 35.5823 235.707 35.9628 235.643V235.577C35.4618 235.466 35.056 235.211 34.7453 234.811C34.4378 234.409 34.2856 233.944 34.2888 233.418C34.2856 232.917 34.4251 232.47 34.7073 232.077C34.9894 231.684 35.3762 231.374 35.8677 231.149C36.3591 230.921 36.9202 230.807 37.5512 230.807C38.1757 230.807 38.7322 230.921 39.2204 231.149C39.7118 231.374 40.0986 231.684 40.3808 232.077C40.6661 232.47 40.8088 232.917 40.8088 233.418C40.8088 233.944 40.6519 234.409 40.338 234.811C40.0273 235.211 39.6262 235.466 39.1348 235.577V235.643C39.5153 235.707 39.8577 235.854 40.162 236.086C40.4696 236.314 40.7137 236.599 40.8944 236.942C41.0783 237.284 41.1702 237.66 41.1702 238.069C41.1702 238.595 41.0149 239.066 40.7042 239.481C40.3935 239.893 39.9655 240.218 39.4202 240.456C38.878 240.694 38.255 240.813 37.5512 240.813ZM37.5512 239.453C37.9158 239.453 38.2328 239.391 38.5023 239.267C38.7718 239.14 38.981 238.963 39.1301 238.735C39.2791 238.506 39.3552 238.243 39.3583 237.945C39.3552 237.634 39.2743 237.36 39.1158 237.122C38.9604 236.881 38.7464 236.693 38.4738 236.557C38.2043 236.42 37.8967 236.352 37.5512 236.352C37.2024 236.352 36.8917 236.42 36.6191 236.557C36.3464 236.693 36.1308 236.881 35.9723 237.122C35.8169 237.36 35.7408 237.634 35.744 237.945C35.7408 238.243 35.8138 238.506 35.9628 238.735C36.1118 238.96 36.321 239.136 36.5905 239.262C36.8632 239.389 37.1834 239.453 37.5512 239.453ZM37.5512 235.016C37.8492 235.016 38.1123 234.955 38.3406 234.835C38.5721 234.714 38.7544 234.546 38.8875 234.331C39.0207 234.115 39.0888 233.866 39.092 233.584C39.0888 233.305 39.0223 233.061 38.8923 232.852C38.7623 232.639 38.5816 232.476 38.3501 232.362C38.1187 232.245 37.8524 232.186 37.5512 232.186C37.2436 232.186 36.9726 232.245 36.7379 232.362C36.5065 232.476 36.3258 232.639 36.1958 232.852C36.069 233.061 36.0072 233.305 36.0103 233.584C36.0072 233.866 36.0706 234.115 36.2006 234.331C36.3337 234.543 36.516 234.711 36.7475 234.835C36.9821 234.955 37.25 235.016 37.5512 235.016ZM47.7961 236.4V240.68H46.0745V230.94H47.7581V234.616H47.8437C48.0149 234.204 48.2796 233.879 48.6379 233.641C48.9993 233.4 49.459 233.28 50.017 233.28C50.5243 233.28 50.9666 233.386 51.3438 233.598C51.7211 233.811 52.0128 234.122 52.2189 234.531C52.4281 234.94 52.5328 235.439 52.5328 236.029V240.68H50.8112V236.295C50.8112 235.804 50.6844 235.421 50.4307 235.149C50.1803 234.873 49.8284 234.735 49.375 234.735C49.0706 234.735 48.798 234.802 48.557 234.935C48.3192 235.065 48.1322 235.253 47.9958 235.501C47.8627 235.748 47.7961 236.048 47.7961 236.4Z" fill="#18181B"/>
</g>
<g filter="url(#filter3_d_2792_155689)">
<rect x="154.453" y="175.968" width="127.668" height="80.616" rx="5.952" fill="white"/>
<rect x="154.267" y="175.782" width="128.04" height="80.988" rx="6.138" stroke="#E5E7EB" stroke-width="0.372"/>
<path d="M177.743 199.257L169.852 191.366" stroke="#DC2626" stroke-width="1.116" stroke-linecap="round" stroke-linejoin="round"/>
<path d="M173.799 200.892C176.88 200.892 179.379 198.394 179.379 195.312C179.379 192.231 176.88 189.732 173.799 189.732C170.717 189.732 168.219 192.231 168.219 195.312C168.219 198.394 170.717 200.892 173.799 200.892Z" stroke="#DC2626" stroke-width="1.116" stroke-linecap="round" stroke-linejoin="round"/>
<path d="M169.614 219.704H167.277V212.129H169.718C170.453 212.129 171.082 212.28 171.604 212.584C172.127 212.885 172.528 213.317 172.806 213.882C173.085 214.444 173.224 215.118 173.224 215.902C173.224 216.691 173.084 217.37 172.803 217.94C172.522 218.507 172.112 218.943 171.575 219.249C171.037 219.552 170.384 219.704 169.614 219.704ZM168.194 218.89H169.555C170.182 218.89 170.701 218.77 171.112 218.528C171.524 218.286 171.831 217.942 172.033 217.496C172.236 217.05 172.337 216.518 172.337 215.902C172.337 215.29 172.237 214.764 172.037 214.322C171.837 213.878 171.539 213.538 171.142 213.301C170.745 213.062 170.251 212.943 169.659 212.943H168.194V218.89ZM177.027 219.822C176.479 219.822 176.007 219.702 175.61 219.46C175.216 219.216 174.911 218.876 174.697 218.439C174.485 218 174.379 217.49 174.379 216.908C174.379 216.326 174.485 215.813 174.697 215.369C174.911 214.923 175.21 214.575 175.592 214.326C175.976 214.074 176.425 213.949 176.938 213.949C177.234 213.949 177.526 213.998 177.815 214.097C178.103 214.195 178.366 214.356 178.603 214.577C178.839 214.797 179.028 215.088 179.169 215.45C179.309 215.813 179.379 216.259 179.379 216.789V217.159H175V216.405H178.492C178.492 216.084 178.428 215.798 178.299 215.547C178.174 215.295 177.994 215.097 177.759 214.951C177.527 214.806 177.254 214.733 176.938 214.733C176.59 214.733 176.29 214.819 176.036 214.992C175.784 215.162 175.591 215.384 175.455 215.658C175.319 215.931 175.251 216.225 175.251 216.538V217.041C175.251 217.47 175.325 217.834 175.473 218.132C175.624 218.428 175.832 218.654 176.098 218.809C176.365 218.962 176.674 219.038 177.027 219.038C177.256 219.038 177.463 219.006 177.648 218.942C177.836 218.876 177.997 218.777 178.133 218.646C178.268 218.513 178.373 218.348 178.447 218.151L179.291 218.387C179.202 218.673 179.053 218.925 178.843 219.142C178.633 219.356 178.375 219.524 178.066 219.645C177.758 219.763 177.412 219.822 177.027 219.822ZM181.58 216.286V219.704H180.707V214.023H181.551V214.91H181.625C181.758 214.622 181.96 214.39 182.231 214.215C182.502 214.037 182.853 213.949 183.282 213.949C183.666 213.949 184.003 214.028 184.291 214.185C184.58 214.341 184.804 214.577 184.965 214.896C185.125 215.211 185.205 215.611 185.205 216.094V219.704H184.332V216.153C184.332 215.707 184.216 215.359 183.984 215.11C183.753 214.859 183.435 214.733 183.03 214.733C182.752 214.733 182.502 214.793 182.283 214.914C182.066 215.035 181.895 215.211 181.769 215.443C181.643 215.675 181.58 215.956 181.58 216.286ZM186.8 219.704V214.023H187.673V219.704H186.8ZM187.244 213.076C187.074 213.076 186.927 213.018 186.804 212.902C186.683 212.786 186.623 212.647 186.623 212.484C186.623 212.321 186.683 212.182 186.804 212.066C186.927 211.95 187.074 211.892 187.244 211.892C187.414 211.892 187.56 211.95 187.681 212.066C187.804 212.182 187.865 212.321 187.865 212.484C187.865 212.647 187.804 212.786 187.681 212.902C187.56 213.018 187.414 213.076 187.244 213.076ZM191.654 219.822C191.107 219.822 190.634 219.702 190.237 219.46C189.843 219.216 189.538 218.876 189.324 218.439C189.112 218 189.006 217.49 189.006 216.908C189.006 216.326 189.112 215.813 189.324 215.369C189.538 214.923 189.837 214.575 190.219 214.326C190.604 214.074 191.052 213.949 191.565 213.949C191.861 213.949 192.153 213.998 192.442 214.097C192.73 214.195 192.993 214.356 193.23 214.577C193.466 214.797 193.655 215.088 193.796 215.45C193.936 215.813 194.007 216.259 194.007 216.789V217.159H189.627V216.405H193.119C193.119 216.084 193.055 215.798 192.926 215.547C192.801 215.295 192.621 215.097 192.386 214.951C192.155 214.806 191.881 214.733 191.565 214.733C191.218 214.733 190.917 214.819 190.663 214.992C190.411 215.162 190.218 215.384 190.082 215.658C189.946 215.931 189.879 216.225 189.879 216.538V217.041C189.879 217.47 189.953 217.834 190.101 218.132C190.251 218.428 190.459 218.654 190.726 218.809C190.992 218.962 191.301 219.038 191.654 219.038C191.883 219.038 192.091 219.006 192.275 218.942C192.463 218.876 192.624 218.777 192.76 218.646C192.896 218.513 193 218.348 193.074 218.151L193.918 218.387C193.829 218.673 193.68 218.925 193.47 219.142C193.261 219.356 193.002 219.524 192.693 219.645C192.385 219.763 192.039 219.822 191.654 219.822ZM197.48 219.822C197.006 219.822 196.588 219.703 196.226 219.464C195.863 219.222 195.58 218.882 195.375 218.443C195.17 218.001 195.068 217.48 195.068 216.878C195.068 216.281 195.17 215.764 195.375 215.325C195.58 214.886 195.865 214.547 196.23 214.307C196.595 214.068 197.016 213.949 197.495 213.949C197.864 213.949 198.157 214.01 198.371 214.134C198.588 214.254 198.753 214.393 198.867 214.548C198.983 214.701 199.073 214.827 199.137 214.925H199.211V212.129H200.084V219.704H199.24V218.831H199.137C199.073 218.935 198.982 219.065 198.863 219.223C198.745 219.379 198.576 219.518 198.356 219.641C198.137 219.762 197.845 219.822 197.48 219.822ZM197.598 219.038C197.948 219.038 198.244 218.947 198.486 218.765C198.728 218.58 198.911 218.324 199.037 217.999C199.163 217.671 199.226 217.292 199.226 216.863C199.226 216.439 199.164 216.068 199.041 215.75C198.917 215.429 198.735 215.18 198.493 215.003C198.252 214.823 197.953 214.733 197.598 214.733C197.228 214.733 196.92 214.828 196.673 215.018C196.429 215.205 196.246 215.46 196.122 215.783C196.001 216.104 195.941 216.464 195.941 216.863C195.941 217.268 196.003 217.635 196.126 217.966C196.252 218.294 196.437 218.555 196.681 218.75C196.927 218.942 197.233 219.038 197.598 219.038ZM205.606 216.286V219.704H204.733V212.129H205.606V214.91H205.68C205.813 214.617 206.013 214.384 206.279 214.211C206.548 214.036 206.906 213.949 207.352 213.949C207.739 213.949 208.078 214.026 208.369 214.182C208.66 214.335 208.886 214.57 209.046 214.888C209.209 215.204 209.29 215.606 209.29 216.094V219.704H208.417V216.153C208.417 215.702 208.3 215.353 208.066 215.106C207.834 214.857 207.512 214.733 207.101 214.733C206.814 214.733 206.558 214.793 206.331 214.914C206.107 215.035 205.929 215.211 205.799 215.443C205.67 215.675 205.606 215.956 205.606 216.286ZM213.195 219.822C212.682 219.822 212.232 219.7 211.845 219.456C211.461 219.212 211.16 218.871 210.943 218.432C210.728 217.993 210.621 217.48 210.621 216.893C210.621 216.301 210.728 215.785 210.943 215.343C211.16 214.902 211.461 214.559 211.845 214.315C212.232 214.071 212.682 213.949 213.195 213.949C213.708 213.949 214.157 214.071 214.542 214.315C214.929 214.559 215.23 214.902 215.444 215.343C215.661 215.785 215.77 216.301 215.77 216.893C215.77 217.48 215.661 217.993 215.444 218.432C215.23 218.871 214.929 219.212 214.542 219.456C214.157 219.7 213.708 219.822 213.195 219.822ZM213.195 219.038C213.585 219.038 213.905 218.938 214.157 218.739C214.409 218.539 214.595 218.276 214.716 217.951C214.836 217.625 214.897 217.273 214.897 216.893C214.897 216.513 214.836 216.159 214.716 215.831C214.595 215.503 214.409 215.238 214.157 215.036C213.905 214.834 213.585 214.733 213.195 214.733C212.806 214.733 212.485 214.834 212.234 215.036C211.982 215.238 211.796 215.503 211.675 215.831C211.554 216.159 211.494 216.513 211.494 216.893C211.494 217.273 211.554 217.625 211.675 217.951C211.796 218.276 211.982 218.539 212.234 218.739C212.485 218.938 212.806 219.038 213.195 219.038ZM220.683 217.381V214.023H221.556V219.704H220.683V218.742H220.624C220.49 219.031 220.283 219.276 220.002 219.478C219.721 219.678 219.366 219.778 218.937 219.778C218.582 219.778 218.266 219.7 217.99 219.545C217.714 219.387 217.497 219.151 217.339 218.835C217.181 218.517 217.102 218.116 217.102 217.633V214.023H217.975V217.574C217.975 217.988 218.091 218.318 218.323 218.565C218.557 218.811 218.855 218.935 219.218 218.935C219.435 218.935 219.656 218.879 219.88 218.768C220.107 218.657 220.297 218.487 220.45 218.258C220.605 218.029 220.683 217.736 220.683 217.381ZM223.155 219.704V214.023H223.998V214.881H224.057C224.161 214.6 224.348 214.372 224.619 214.196C224.891 214.021 225.196 213.934 225.537 213.934C225.601 213.934 225.681 213.935 225.777 213.938C225.873 213.94 225.946 213.944 225.995 213.949V214.836C225.966 214.829 225.898 214.818 225.792 214.803C225.688 214.786 225.578 214.777 225.463 214.777C225.186 214.777 224.94 214.835 224.723 214.951C224.508 215.064 224.338 215.222 224.212 215.425C224.089 215.624 224.027 215.852 224.027 216.109V219.704H223.155ZM231.054 215.295L230.27 215.517C230.221 215.386 230.148 215.259 230.052 215.136C229.958 215.01 229.83 214.907 229.667 214.825C229.505 214.744 229.296 214.703 229.042 214.703C228.694 214.703 228.405 214.783 228.173 214.944C227.944 215.101 227.829 215.302 227.829 215.547C227.829 215.764 227.908 215.935 228.066 216.061C228.223 216.186 228.47 216.291 228.805 216.375L229.649 216.582C230.157 216.706 230.535 216.894 230.784 217.148C231.033 217.4 231.158 217.724 231.158 218.121C231.158 218.446 231.064 218.737 230.877 218.994C230.692 219.25 230.433 219.453 230.1 219.601C229.767 219.748 229.38 219.822 228.939 219.822C228.359 219.822 227.879 219.697 227.5 219.445C227.12 219.194 226.88 218.826 226.778 218.343L227.607 218.136C227.686 218.442 227.835 218.671 228.055 218.824C228.277 218.977 228.566 219.053 228.924 219.053C229.331 219.053 229.654 218.967 229.893 218.794C230.135 218.619 230.255 218.409 230.255 218.165C230.255 217.968 230.186 217.803 230.048 217.67C229.91 217.534 229.698 217.433 229.412 217.366L228.465 217.144C227.945 217.021 227.563 216.83 227.318 216.571C227.077 216.31 226.956 215.983 226.956 215.591C226.956 215.27 227.046 214.987 227.226 214.74C227.409 214.494 227.656 214.3 227.969 214.16C228.285 214.019 228.643 213.949 229.042 213.949C229.604 213.949 230.046 214.072 230.366 214.319C230.689 214.565 230.919 214.891 231.054 215.295Z" fill="#71717A"/>
<path d="M167.225 240.68V239.405L170.606 236.09C170.93 235.764 171.199 235.474 171.415 235.22C171.63 234.967 171.792 234.721 171.9 234.483C172.008 234.245 172.061 233.992 172.061 233.722C172.061 233.415 171.992 233.151 171.852 232.933C171.713 232.711 171.521 232.54 171.277 232.419C171.033 232.299 170.755 232.238 170.445 232.238C170.124 232.238 169.844 232.305 169.603 232.438C169.362 232.568 169.175 232.754 169.042 232.995C168.912 233.235 168.847 233.522 168.847 233.855H167.168C167.168 233.237 167.309 232.7 167.591 232.243C167.873 231.787 168.262 231.433 168.756 231.183C169.254 230.932 169.825 230.807 170.468 230.807C171.121 230.807 171.695 230.929 172.19 231.173C172.684 231.417 173.068 231.752 173.341 232.177C173.617 232.601 173.754 233.086 173.754 233.632C173.754 233.996 173.685 234.355 173.545 234.707C173.406 235.058 173.16 235.448 172.808 235.876C172.459 236.304 171.969 236.823 171.339 237.432L169.66 239.139V239.205H173.902V240.68H167.225ZM180.605 236.4V240.68H178.883V230.94H180.567V234.616H180.653C180.824 234.204 181.089 233.879 181.447 233.641C181.808 233.4 182.268 233.28 182.826 233.28C183.333 233.28 183.775 233.386 184.153 233.598C184.53 233.811 184.822 234.122 185.028 234.531C185.237 234.94 185.342 235.439 185.342 236.029V240.68H183.62V236.295C183.62 235.804 183.493 235.421 183.24 235.149C182.989 234.873 182.637 234.735 182.184 234.735C181.88 234.735 181.607 234.802 181.366 234.935C181.128 235.065 180.941 235.253 180.805 235.501C180.672 235.748 180.605 236.048 180.605 236.4Z" fill="#18181B"/>
</g>
</g>
<defs>
<filter id="filter0_d_2792_155689" x="14.5078" y="83.0762" width="128.414" height="81.3604" filterUnits="userSpaceOnUse" color-interpolation-filters="sRGB">
<feFlood flood-opacity="0" result="BackgroundImageFix"/>
<feColorMatrix in="SourceAlpha" type="matrix" values="0 0 0 0 0 0 0 0 0 0 0 0 0 0 0 0 0 0 127 0" result="hardAlpha"/>
<feMorphology radius="3.72" operator="erode" in="SourceAlpha" result="effect1_dropShadow_2792_155689"/>
<feOffset dy="0.744"/>
<feGaussianBlur stdDeviation="0.372"/>
<feColorMatrix type="matrix" values="0 0 0 0 0 0 0 0 0 0 0 0 0 0 0 0 0 0 0.03 0"/>
<feBlend mode="normal" in2="BackgroundImageFix" result="effect1_dropShadow_2792_155689"/>
<feBlend mode="normal" in="SourceGraphic" in2="effect1_dropShadow_2792_155689" result="shape"/>
</filter>
<filter id="filter1_d_2792_155689" x="154.078" y="83.0762" width="128.414" height="81.3604" filterUnits="userSpaceOnUse" color-interpolation-filters="sRGB">
<feFlood flood-opacity="0" result="BackgroundImageFix"/>
<feColorMatrix in="SourceAlpha" type="matrix" values="0 0 0 0 0 0 0 0 0 0 0 0 0 0 0 0 0 0 127 0" result="hardAlpha"/>
<feMorphology radius="3.72" operator="erode" in="SourceAlpha" result="effect1_dropShadow_2792_155689"/>
<feOffset dy="0.744"/>
<feGaussianBlur stdDeviation="0.372"/>
<feColorMatrix type="matrix" values="0 0 0 0 0 0 0 0 0 0 0 0 0 0 0 0 0 0 0.03 0"/>
<feBlend mode="normal" in2="BackgroundImageFix" result="effect1_dropShadow_2792_155689"/>
<feBlend mode="normal" in="SourceGraphic" in2="effect1_dropShadow_2792_155689" result="shape"/>
</filter>
<filter id="filter2_d_2792_155689" x="14.5078" y="175.596" width="128.414" height="81.3604" filterUnits="userSpaceOnUse" color-interpolation-filters="sRGB">
<feFlood flood-opacity="0" result="BackgroundImageFix"/>
<feColorMatrix in="SourceAlpha" type="matrix" values="0 0 0 0 0 0 0 0 0 0 0 0 0 0 0 0 0 0 127 0" result="hardAlpha"/>
<feMorphology radius="3.72" operator="erode" in="SourceAlpha" result="effect1_dropShadow_2792_155689"/>
<feOffset dy="0.744"/>
<feGaussianBlur stdDeviation="0.372"/>
<feColorMatrix type="matrix" values="0 0 0 0 0 0 0 0 0 0 0 0 0 0 0 0 0 0 0.03 0"/>
<feBlend mode="normal" in2="BackgroundImageFix" result="effect1_dropShadow_2792_155689"/>
<feBlend mode="normal" in="SourceGraphic" in2="effect1_dropShadow_2792_155689" result="shape"/>
</filter>
<filter id="filter3_d_2792_155689" x="154.078" y="175.596" width="128.414" height="81.3604" filterUnits="userSpaceOnUse" color-interpolation-filters="sRGB">
<feFlood flood-opacity="0" result="BackgroundImageFix"/>
<feColorMatrix in="SourceAlpha" type="matrix" values="0 0 0 0 0 0 0 0 0 0 0 0 0 0 0 0 0 0 127 0" result="hardAlpha"/>
<feMorphology radius="3.72" operator="erode" in="SourceAlpha" result="effect1_dropShadow_2792_155689"/>
<feOffset dy="0.744"/>
<feGaussianBlur stdDeviation="0.372"/>
<feColorMatrix type="matrix" values="0 0 0 0 0 0 0 0 0 0 0 0 0 0 0 0 0 0 0.03 0"/>
<feBlend mode="normal" in2="BackgroundImageFix" result="effect1_dropShadow_2792_155689"/>
<feBlend mode="normal" in="SourceGraphic" in2="effect1_dropShadow_2792_155689" result="shape"/>
</filter>
<clipPath id="clip0_2792_155689">
<rect width="297" height="304.44" fill="white" transform="translate(0 83.4482)"/>
</clipPath>
</defs>
</svg>
